<?xml version="1.0" encoding="UTF-8" standalone="no"?>
<svg
   xmlns:dc="http://purl.org/dc/elements/1.1/"
   xmlns:cc="http://creativecommons.org/ns#"
   xmlns:rdf="http://www.w3.org/1999/02/22-rdf-syntax-ns#"
   xmlns:svg="http://www.w3.org/2000/svg"
   xmlns="http://www.w3.org/2000/svg"
   xmlns:sodipodi="http://sodipodi.sourceforge.net/DTD/sodipodi-0.dtd"
   xmlns:inkscape="http://www.inkscape.org/namespaces/inkscape"
   width="720"
   height="600"
   viewBox="0 0 190.5 158.75"
   version="1.1"
   id="svg8"
   inkscape:version="1.0.1 (3bc2e813f5, 2020-09-07)"
   sodipodi:docname="Accept terms-bro-pink-720x600.svg"
   inkscape:export-filename="C:\Users\jakub\git\at8_online\static\img\terms.png"
   inkscape:export-xdpi="96"
   inkscape:export-ydpi="96">
  <defs
     id="defs2">
    <clipPath
       id="freepik--clip-path--inject-3">
      <rect
         x="93.14"
         y="68.96"
         width="291.22"
         height="210.32"
         style="fill:#fff;stroke:#263238;stroke-linecap:round;stroke-linejoin:round"
         id="rect1225" />
    </clipPath>
    <clipPath
       id="freepik--clip-path-2--inject-3">
      <path
         d="M234.37,247.67c.28-.55,2.09,1.29,2.09,1.29,1.47,1.47,12.45,12.45,14.42,12.45s37.32,11.82,37.32,11.82l27.95-7.6C318.6,272,310.26,284,310.26,284s-21.82,1.72-26,0-34.57-18.63-34.57-18.63-3.69.05-5.65-.94a9.84,9.84,0,0,1-3.67-2.74c-.49-.74-.73-.74-2.45-2.21a1.52,1.52,0,0,1-.29-2.42l1,.09-3-4.79a8.64,8.64,0,0,1-1.11-1.67c-.44-1,.26-1.28.26-1.28S234.09,248.23,234.37,247.67Z"
         style="fill:#fff;stroke:#263238;stroke-linecap:round;stroke-linejoin:round"
         id="path1228" />
    </clipPath>
    <clipPath
       id="freepik--clip-path-3--inject-3">
      <path
         d="M235.87,248.44a25.89,25.89,0,0,1,5.4,3.38,44.29,44.29,0,0,1,4,5.49S236.7,250.09,235.87,248.44Z"
         style="fill:#fff;stroke:#263238;stroke-linecap:round;stroke-linejoin:round"
         id="path1231" />
    </clipPath>
    <clipPath
       id="freepik--clip-path-4--inject-3">
      <path
         d="M234.48,250.71c-.44-1,.26-1.28.26-1.28s-.65-1.2-.37-1.76,2.09,1.29,2.09,1.29c1.47,1.47,12.45,12.45,14.42,12.45,1,0,10.38,3,19.5,5.95l-3.53,7.48c-8.64-4.71-17.15-9.45-17.15-9.45s-3.69.05-5.65-.94a9.84,9.84,0,0,1-3.67-2.74c-.49-.74-.73-.74-2.45-2.21a1.52,1.52,0,0,1-.29-2.42l1,.09-3-4.79A8.64,8.64,0,0,1,234.48,250.71Z"
         style="fill:#fff;stroke:#263238;stroke-linecap:round;stroke-linejoin:round"
         id="path1234" />
    </clipPath>
    <clipPath
       id="freepik--clip-path-5--inject-3">
      <path
         d="M341.9,317.37s8.82,6.38,10.05,12.26,3.43,15.94,3.68,17.16,10.54,35.56,10.79,36.78S376,392.4,375.73,400s4.42,42.91,4.66,45.12-2,3.43-4.17,4.66-6.63,5.77-11.77,2.94c-4-2.18,9.32-10.05,9.32-14s-13-39.47-16.67-46.83S344.59,367.15,341.9,363a60.78,60.78,0,0,1-4.66-9.07s-.74,16.18,1.22,24.52,3.68,21.57,1,34.57-3.43,25.74-2.69,29.91-.49,4.42-2.95,5.15-7.13-.15-10.07,1.11-8.87,1-9.28-1,9.55-6,12.73-8.43,2.21-6.62,2.95-16.68-5.4-35.8-6.38-41.44-6.87-26.48-6.87-38.25.74-16.67.74-16.67,3.43-3.43,10.79-6.62A31.08,31.08,0,0,1,341.9,317.37Z"
         style="fill:#fff;stroke:#263238;stroke-linecap:round;stroke-linejoin:round"
         id="path1237" />
    </clipPath>
    <clipPath
       id="freepik--clip-path-6--inject-3">
      <path
         d="M303.56,236.56c0-1.88-1.73-8.55,3.07-12.93s13.24-3.39,13.24-3.39c10,.68,15.91,12.14,13.89,20.22s-7.82,9-9.84,11.6c-1.1,1.38-.34,5,.59,8,8.6.39,7.95,7.22,9.54,12,2,5.88,4.66,24.52,5.39,28.69s6.13,11.28,6.13,13.73-10.79,6.37-20.1,11-9.17,4.89-10.89,2.43S311,300.94,311,298s-8.83-10.3-6.87-14.47c1.58-3.36,8.73-15.94,11.45-20.7l-.15-.53a72.64,72.64,0,0,0-3.91-8.76s-5.13.27-6.61.13-2.29-.54-2.56-1.88a6.77,6.77,0,0,1,.4-3.1s-.53.13-.8-.68.67-1.48.67-1.48c-.67-.27-.68-1.6-.68-1.6l1.25-1.26s-2.19-.62-2.4-2.29S303.56,238.43,303.56,236.56Z"
         style="fill:#fff;stroke:#263238;stroke-linecap:round;stroke-linejoin:round"
         id="path1240" />
    </clipPath>
    <clipPath
       id="freepik--clip-path-7--inject-3">
      <path
         d="M316.25,242.45s3.1-5.19,6.21-3.58-.74,6.84-3.11,8.15-3.25-2-3.25-2"
         style="fill:#fff;stroke:#263238;stroke-linecap:round;stroke-linejoin:round"
         id="path1243" />
    </clipPath>
    <clipPath
       id="freepik--clip-path-8--inject-3">
      <path
         d="M317.62,270.05s5.39-8.58,11.77-6.13,27.22,29.18,27.95,33.34,6.38,38.26,6.38,38.26,1.22,3.67,0,6.62-1.23,4.16,0,6.62,1,3.43-1,2-2.21-2-4.42-6.38,1.47-10.79,1.47-10.79-12.5-28.68-13-31.38a15.21,15.21,0,0,0-1.47-4.42s-22.56-18.63-24.77-22.06"
         style="fill:#fff;stroke:#263238;stroke-linecap:round;stroke-linejoin:round"
         id="path1246" />
    </clipPath>
    <clipPath
       id="freepik--clip-path-9--inject-3">
      <path
         d="M357.89,300.49c1.62,9.62,5.83,35,5.83,35s1.22,3.67,0,6.62-1.23,4.16,0,6.62,1,3.43-1,2-2.21-2-4.42-6.38,1.47-10.79,1.47-10.79-11.41-26.18-12.86-30.87Z"
         style="fill:#fff;stroke:#263238;stroke-linecap:round;stroke-linejoin:round"
         id="path1249" />
    </clipPath>
  </defs>
  <sodipodi:namedview
     id="base"
     pagecolor="#707070"
     bordercolor="#666666"
     borderopacity="1.0"
     inkscape:pageopacity="0"
     inkscape:pageshadow="2"
     inkscape:zoom="1.7023346"
     inkscape:cx="345.3008"
     inkscape:cy="344.80947"
     inkscape:document-units="px"
     inkscape:current-layer="freepik--Page--inject-3"
     inkscape:document-rotation="0"
     showgrid="false"
     showguides="false"
     units="px"
     inkscape:window-width="2152"
     inkscape:window-height="1420"
     inkscape:window-x="2156"
     inkscape:window-y="2355"
     inkscape:window-maximized="0" />
  <metadata
     id="metadata5">
    <rdf:RDF>
      <cc:Work
         rdf:about="">
        <dc:format>image/svg+xml</dc:format>
        <dc:type
           rdf:resource="http://purl.org/dc/dcmitype/StillImage" />
        <dc:title></dc:title>
      </cc:Work>
    </rdf:RDF>
  </metadata>
  <g
     inkscape:label="Layer 1"
     inkscape:groupmode="layer"
     id="layer1">
    <g
       id="g1816"
       transform="matrix(0.36984413,0,0,0.36984413,5.3199542,-10.998093)">
      <g
         id="freepik--background-simple--inject-3"
         sodipodi:insensitive="true">
        <path
           d="m 66.67,186.47 c 0,0 -16.05,68.58 28.66,128.33 44.71,59.75 122.67,82.98 185.27,103.45 62.6,20.47 121.31,-3.16 143.32,-55.8 22.01,-52.64 -22.45,-81 -32.25,-149.75 -9.8,-68.75 -2,-88.56 -47.7,-140.91 -45.7,-52.35 -139.55,-51.1 -203,2.65 -63.45,53.75 -74.3,112.03 -74.3,112.03 z"
           style="fill:#be185d"
           id="path1254" />
        <path
           d="m 66.67,186.47 c 0,0 -16.05,68.58 28.66,128.33 44.71,59.75 122.67,82.98 185.27,103.45 62.6,20.47 121.31,-3.16 143.32,-55.8 22.01,-52.64 -22.45,-81 -32.25,-149.75 -9.8,-68.75 -2,-88.56 -47.7,-140.91 -45.7,-52.35 -139.55,-51.1 -203,2.65 -63.45,53.75 -74.3,112.03 -74.3,112.03 z"
           style="opacity:0.7;fill:#ffffff"
           id="path1256" />
      </g>
      <g
         id="freepik--Floor--inject-3">
        <path
           d="m 399.36,450.3 c 0,2.94 -70.37,5.31 -157.18,5.31 -86.81,0 -157.18,-2.37 -157.18,-5.31 0,-2.94 70.37,-5.3 157.18,-5.3 86.81,0 157.18,2.37 157.18,5.3 z"
           style="fill:#be185d"
           id="path1259" />
        <path
           d="m 399.36,450.3 c 0,2.94 -70.37,5.31 -157.18,5.31 -86.81,0 -157.18,-2.37 -157.18,-5.31 0,-2.94 70.37,-5.3 157.18,-5.3 86.81,0 157.18,2.37 157.18,5.3 z"
           style="opacity:0.6;fill:#ffffff"
           id="path1261" />
      </g>
      <g
         id="freepik--Plants--inject-3">
        <path
           d="m 130.62,284.78 c -0.06,0 0.69,-3.73 0.77,-4 0.86,-2.66 4.1,-7.3 7.23,-7.3 a 3.72,3.72 0 0 1 3.57,4.22 c -0.23,2.2 -2.21,4.08 -4,5.16 -2.09,1.31 -7.57,1.92 -7.57,1.92 z"
           style="fill:#be185d"
           id="path1264" />
        <path
           d="m 124.55,259.66 c 3,1.06 4.42,6.52 4.32,9.32 0,0.24 -0.56,4 -0.61,4 h -0.06 c 0.23,0.86 0.48,1.78 0.73,2.8 0.44,1.88 0.92,4 1.29,6.36 a 65.63,65.63 0 0 1 0.84,7.64 48.28,48.28 0 0 1 -0.29,8.6 0.44,0.44 0 0 0 0,0.1 c 0.39,-0.83 1.55,-3.12 1.65,-3.29 1.54,-2.34 5.88,-6 8.91,-5.13 a 3.7,3.7 0 0 1 2.32,5 c -0.8,2.07 -3.2,3.35 -5.21,3.93 -2.27,0.64 -7.33,-0.12 -7.73,-0.18 a 65.64,65.64 0 0 1 -1.86,8.56 q -0.71,2.46 -1.52,4.91 c 0.35,-0.71 0.68,-1.34 0.73,-1.42 1.54,-2.34 5.89,-6 8.91,-5.13 a 3.7,3.7 0 0 1 2.32,5 c -0.8,2.06 -3.2,3.35 -5.21,3.92 -2.01,0.57 -6.37,0 -7.51,-0.14 l -0.63,1.87 c -1,3 -2.09,6 -3,8.94 -0.33,1 -0.62,2.08 -0.91,3.12 0.32,-0.63 0.59,-1.16 0.64,-1.23 1.53,-2.35 5.88,-6 8.9,-5.13 a 3.71,3.71 0 0 1 2.33,5 c -0.8,2.06 -3.21,3.35 -5.22,3.92 -2.01,0.57 -5.94,0.07 -7.3,-0.12 -0.27,1.07 -0.53,2.15 -0.74,3.2 -0.13,0.72 -0.3,1.4 -0.39,2.14 l -0.3,2.14 c -0.14,1.37 -0.3,2.78 -0.4,4.12 -0.08,0.94 -0.14,1.83 -0.2,2.72 0.32,-1 1,-3.07 1,-3.23 a 14.5,14.5 0 0 1 4.8,-5.46 4.3,4.3 0 0 1 0.41,-0.72 3.7,3.7 0 0 1 5.45,-0.85 c 2.38,2.05 1.78,7.67 0.69,10.25 -0.06,0.15 -1,1.73 -1.52,2.71 0.43,-0.53 0.83,-1 1.28,-1.58 0.87,-1.07 1.77,-2.11 2.73,-3.23 q 0.74,-0.78 1.47,-1.59 c 0.48,-0.54 1.06,-1.05 1.59,-1.59 1.25,-1.21 2.58,-2.38 4,-3.52 -0.93,-0.77 -4.21,-3.53 -5.15,-5.41 -0.94,-1.88 -1.61,-4.51 -0.63,-6.5 a 3.71,3.71 0 0 1 5.27,-1.66 c 2.65,1.66 2.92,7.31 2.23,10 0,0.17 -0.76,2.07 -1.17,3.1 0.83,-0.69 1.65,-1.37 2.51,-2 2.48,-1.91 5,-3.77 7.6,-5.64 l 2.33,-1.73 c -0.33,-0.27 -4.29,-3.47 -5.35,-5.58 -0.93,-1.87 -1.61,-4.51 -0.63,-6.49 a 3.71,3.71 0 0 1 5.27,-1.67 c 2.66,1.67 2.92,7.31 2.23,10 -0.05,0.2 -1.08,2.92 -1.37,3.6 1.7,-1.27 3.39,-2.55 5,-3.88 a 66,66 0 0 0 6.2,-5.78 c -0.15,-0.12 -4.3,-3.45 -5.38,-5.6 -0.94,-1.87 -1.61,-4.51 -0.63,-6.5 a 3.71,3.71 0 0 1 5.26,-1.67 c 2.66,1.67 2.93,7.32 2.24,10 -0.05,0.18 -0.83,2.26 -1.22,3.23 a 0.78,0.78 0 0 0 0.15,0.1 47.88,47.88 0 0 0 5.09,-6.84 c 0.83,-1.32 1.56,-2.64 2.24,-3.93 -0.84,-0.54 -4.63,-3.05 -5.82,-4.88 -1.19,-1.83 -2.09,-4.31 -1.34,-6.39 a 3.7,3.7 0 0 1 5,-2.23 c 2.83,1.36 3.71,6.95 3.32,9.72 0,0.15 -0.4,1.66 -0.69,2.75 0.29,-0.58 0.61,-1.19 0.88,-1.76 1,-2.13 1.85,-4.15 2.55,-5.94 0.4,-1 0.73,-2 1,-2.84 -0.55,-0.95 -2.69,-4.84 -2.9,-7 -0.21,-2.16 0.13,-4.79 1.76,-6.29 a 3.71,3.71 0 0 1 5.51,0.34 c 1.88,2.51 0.09,7.88 -1.53,10.16 -0.14,0.2 -2.69,3 -2.72,3 v -0.06 c -0.28,0.85 -0.58,1.75 -0.94,2.74 -0.66,1.81 -1.43,3.85 -2.42,6 a 67.92,67.92 0 0 1 -3.53,6.84 48.53,48.53 0 0 1 -5,7 l -0.07,0.07 c 0.78,-0.48 3,-1.75 3.19,-1.83 2.58,-1.11 8.2,-1.73 10.26,0.63 a 3.71,3.71 0 0 1 -0.82,5.46 c -1.81,1.28 -4.52,1 -6.52,0.4 -2.25,-0.71 -6,-4.14 -6.34,-4.41 a 66.15,66.15 0 0 1 -6.28,6.11 c -1.29,1.11 -2.63,2.19 -4,3.26 0.69,-0.39 1.31,-0.74 1.4,-0.78 2.57,-1.11 8.19,-1.73 10.25,0.63 a 3.7,3.7 0 0 1 -0.82,5.46 c -1.8,1.28 -4.52,1 -6.51,0.4 -1.99,-0.6 -5.32,-3.5 -6.18,-4.27 -0.53,0.41 -1,0.82 -1.57,1.22 -2.51,1.93 -5,3.84 -7.45,5.79 -0.85,0.69 -1.66,1.39 -2.48,2.1 l 1.22,-0.68 c 2.57,-1.1 8.19,-1.73 10.25,0.64 a 3.7,3.7 0 0 1 -0.82,5.46 c -1.81,1.28 -4.52,1 -6.51,0.39 -1.99,-0.61 -5,-3.22 -6,-4.12 -0.81,0.74 -1.63,1.49 -2.38,2.25 -0.51,0.53 -1,1 -1.5,1.57 l -1.44,1.63 c -0.87,1.06 -1.78,2.15 -2.61,3.21 -0.58,0.74 -1.12,1.45 -1.66,2.16 0.83,-0.69 2.51,-2 2.66,-2.11 2.37,-1.49 7.84,-2.95 10.23,-0.93 a 3.71,3.71 0 0 1 0,5.52 c -1.6,1.54 -4.32,1.7 -6.38,1.38 -2.28,-0.35 -6.4,-3 -6.91,-3.37 -0.9,1.18 -1.76,2.34 -2.56,3.44 -2.77,3.83 -4.93,7.13 -6.41,9.45 l -0.15,0.24 -1.92,-0.93 0.3,-0.46 c 1.55,-2.31 3.81,-5.59 6.69,-9.4 0.91,-1.21 1.9,-2.47 2.93,-3.77 a 40,40 0 0 1 -3,-3.68 c -2.21,0.86 -6.79,0.89 -7.39,0.89 -0.09,1.49 -0.17,2.93 -0.23,4.29 -0.2,4.73 -0.18,8.67 -0.13,11.42 v 0.32 l -2.11,-1 c 0,-2.74 0.11,-6.44 0.39,-10.82 0.09,-1.5 0.22,-3.11 0.37,-4.76 -0.59,-0.14 -5.36,-1.37 -7.16,-2.81 -1.63,-1.3 -3.35,-3.42 -3.29,-5.63 a 3.7,3.7 0 0 1 4.08,-3.72 c 3.11,0.4 5.72,5.41 6.23,8.17 0,0.16 0.16,2 0.22,3.09 0.07,-0.67 0.12,-1.32 0.2,-2 0.13,-1.37 0.31,-2.73 0.5,-4.2 0.11,-0.7 0.23,-1.42 0.34,-2.14 0.11,-0.72 0.3,-1.46 0.45,-2.19 0.38,-1.71 0.84,-3.42 1.35,-5.13 -1.2,-0.12 -5.45,-0.62 -7.28,-1.67 -1.83,-1.05 -3.83,-2.87 -4.1,-5.07 a 3.7,3.7 0 0 1 3.47,-4.29 c 3.13,-0.08 6.47,4.48 7.39,7.13 0.06,0.16 0.51,2.13 0.74,3.22 0.31,-1 0.61,-2.05 1,-3.08 1,-3 2.13,-5.93 3.23,-8.9 0.34,-0.91 0.66,-1.82 1,-2.73 -0.43,0 -5.5,-0.52 -7.54,-1.7 -1.81,-1 -3.83,-2.87 -4.11,-5.07 a 3.71,3.71 0 0 1 3.47,-4.29 c 3.14,-0.08 6.48,4.49 7.4,7.13 0.07,0.2 0.71,3 0.84,3.77 0.72,-2 1.43,-4 2,-6 a 65.26,65.26 0 0 0 2,-8.24 c -0.2,0 -5.49,-0.5 -7.58,-1.7 -1.82,-1 -3.84,-2.88 -4.11,-5.08 a 3.7,3.7 0 0 1 3.47,-4.29 c 3.13,-0.08 6.47,4.49 7.39,7.13 0.06,0.17 0.56,2.34 0.77,3.37 H 130 a 47.81,47.81 0 0 0 0.48,-8.51 c 0,-1.56 -0.15,-3.06 -0.3,-4.51 -1,0 -5.54,0 -7.54,-0.86 -2,-0.86 -4.13,-2.44 -4.65,-4.59 a 3.71,3.71 0 0 1 3,-4.65 c 3.11,-0.42 6.93,3.75 8.14,6.27 0.06,0.14 0.58,1.61 0.93,2.69 -0.07,-0.66 -0.14,-1.33 -0.23,-2 -0.31,-2.35 -0.75,-4.48 -1.15,-6.37 -0.24,-1.07 -0.47,-2 -0.7,-2.93 -1,-0.5 -4.92,-2.55 -6.26,-4.22 -1.34,-1.67 -2.54,-4.06 -2,-6.21 a 3.71,3.71 0 0 1 4.83,-2.7 z"
           style="fill:#be185d"
           id="path1266" />
        <path
           d="m 181.23,308 c -2.45,-0.1 -7.35,-2.62 -7.35,-2.62 0,0 2.63,-2.72 2.82,-2.88 2.19,-1.74 7.45,-3.83 10.06,-2.09 a 3.7,3.7 0 0 1 0.65,5.48 c -1.41,1.71 -4.09,2.19 -6.18,2.11 z"
           style="fill:#be185d"
           id="path1268" />
        <g
           style="opacity:0.5"
           id="g1276">
          <path
             d="m 130.62,284.78 c -0.06,0 0.69,-3.73 0.77,-4 0.86,-2.66 4.1,-7.3 7.23,-7.3 a 3.72,3.72 0 0 1 3.57,4.22 c -0.23,2.2 -2.21,4.08 -4,5.16 -2.09,1.31 -7.57,1.92 -7.57,1.92 z"
             style="fill:#ffffff"
             id="path1270" />
          <path
             d="m 124.55,259.66 c 3,1.06 4.42,6.52 4.32,9.32 0,0.24 -0.56,4 -0.61,4 h -0.06 c 0.23,0.86 0.48,1.78 0.73,2.8 0.44,1.88 0.92,4 1.29,6.36 a 65.63,65.63 0 0 1 0.84,7.64 48.28,48.28 0 0 1 -0.29,8.6 0.44,0.44 0 0 0 0,0.1 c 0.39,-0.83 1.55,-3.12 1.65,-3.29 1.54,-2.34 5.88,-6 8.91,-5.13 a 3.7,3.7 0 0 1 2.32,5 c -0.8,2.07 -3.2,3.35 -5.21,3.93 -2.27,0.64 -7.33,-0.12 -7.73,-0.18 a 65.64,65.64 0 0 1 -1.86,8.56 q -0.71,2.46 -1.52,4.91 c 0.35,-0.71 0.68,-1.34 0.73,-1.42 1.54,-2.34 5.89,-6 8.91,-5.13 a 3.7,3.7 0 0 1 2.32,5 c -0.8,2.06 -3.2,3.35 -5.21,3.92 -2.01,0.57 -6.37,0 -7.51,-0.14 l -0.63,1.87 c -1,3 -2.09,6 -3,8.94 -0.33,1 -0.62,2.08 -0.91,3.12 0.32,-0.63 0.59,-1.16 0.64,-1.23 1.53,-2.35 5.88,-6 8.9,-5.13 a 3.71,3.71 0 0 1 2.33,5 c -0.8,2.06 -3.21,3.35 -5.22,3.92 -2.01,0.57 -5.94,0.07 -7.3,-0.12 -0.27,1.07 -0.53,2.15 -0.74,3.2 -0.13,0.72 -0.3,1.4 -0.39,2.14 l -0.3,2.14 c -0.14,1.37 -0.3,2.78 -0.4,4.12 -0.08,0.94 -0.14,1.83 -0.2,2.72 0.32,-1 1,-3.07 1,-3.23 a 14.5,14.5 0 0 1 4.8,-5.46 4.3,4.3 0 0 1 0.41,-0.72 3.7,3.7 0 0 1 5.45,-0.85 c 2.38,2.05 1.78,7.67 0.69,10.25 -0.06,0.15 -1,1.73 -1.52,2.71 0.43,-0.53 0.83,-1 1.28,-1.58 0.87,-1.07 1.77,-2.11 2.73,-3.23 q 0.74,-0.78 1.47,-1.59 c 0.48,-0.54 1.06,-1.05 1.59,-1.59 1.25,-1.21 2.58,-2.38 4,-3.52 -0.93,-0.77 -4.21,-3.53 -5.15,-5.41 -0.94,-1.88 -1.61,-4.51 -0.63,-6.5 a 3.71,3.71 0 0 1 5.27,-1.66 c 2.65,1.66 2.92,7.31 2.23,10 0,0.17 -0.76,2.07 -1.17,3.1 0.83,-0.69 1.65,-1.37 2.51,-2 2.48,-1.91 5,-3.77 7.6,-5.64 l 2.33,-1.73 c -0.33,-0.27 -4.29,-3.47 -5.35,-5.58 -0.93,-1.87 -1.61,-4.51 -0.63,-6.49 a 3.71,3.71 0 0 1 5.27,-1.67 c 2.66,1.67 2.92,7.31 2.23,10 -0.05,0.2 -1.08,2.92 -1.37,3.6 1.7,-1.27 3.39,-2.55 5,-3.88 a 66,66 0 0 0 6.2,-5.78 c -0.15,-0.12 -4.3,-3.45 -5.38,-5.6 -0.94,-1.87 -1.61,-4.51 -0.63,-6.5 a 3.71,3.71 0 0 1 5.26,-1.67 c 2.66,1.67 2.93,7.32 2.24,10 -0.05,0.18 -0.83,2.26 -1.22,3.23 a 0.78,0.78 0 0 0 0.15,0.1 47.88,47.88 0 0 0 5.09,-6.84 c 0.83,-1.32 1.56,-2.64 2.24,-3.93 -0.84,-0.54 -4.63,-3.05 -5.82,-4.88 -1.19,-1.83 -2.09,-4.31 -1.34,-6.39 a 3.7,3.7 0 0 1 5,-2.23 c 2.83,1.36 3.71,6.95 3.32,9.72 0,0.15 -0.4,1.66 -0.69,2.75 0.29,-0.58 0.61,-1.19 0.88,-1.76 1,-2.13 1.85,-4.15 2.55,-5.94 0.4,-1 0.73,-2 1,-2.84 -0.55,-0.95 -2.69,-4.84 -2.9,-7 -0.21,-2.16 0.13,-4.79 1.76,-6.29 a 3.71,3.71 0 0 1 5.51,0.34 c 1.88,2.51 0.09,7.88 -1.53,10.16 -0.14,0.2 -2.69,3 -2.72,3 v -0.06 c -0.28,0.85 -0.58,1.75 -0.94,2.74 -0.66,1.81 -1.43,3.85 -2.42,6 a 67.92,67.92 0 0 1 -3.53,6.84 48.53,48.53 0 0 1 -5,7 l -0.07,0.07 c 0.78,-0.48 3,-1.75 3.19,-1.83 2.58,-1.11 8.2,-1.73 10.26,0.63 a 3.71,3.71 0 0 1 -0.82,5.46 c -1.81,1.28 -4.52,1 -6.52,0.4 -2.25,-0.71 -6,-4.14 -6.34,-4.41 a 66.15,66.15 0 0 1 -6.28,6.11 c -1.29,1.11 -2.63,2.19 -4,3.26 0.69,-0.39 1.31,-0.74 1.4,-0.78 2.57,-1.11 8.19,-1.73 10.25,0.63 a 3.7,3.7 0 0 1 -0.82,5.46 c -1.8,1.28 -4.52,1 -6.51,0.4 -1.99,-0.6 -5.32,-3.5 -6.18,-4.27 -0.53,0.41 -1,0.82 -1.57,1.22 -2.51,1.93 -5,3.84 -7.45,5.79 -0.85,0.69 -1.66,1.39 -2.48,2.1 l 1.22,-0.68 c 2.57,-1.1 8.19,-1.73 10.25,0.64 a 3.7,3.7 0 0 1 -0.82,5.46 c -1.81,1.28 -4.52,1 -6.51,0.39 -1.99,-0.61 -5,-3.22 -6,-4.12 -0.81,0.74 -1.63,1.49 -2.38,2.25 -0.51,0.53 -1,1 -1.5,1.57 l -1.44,1.63 c -0.87,1.06 -1.78,2.15 -2.61,3.21 -0.58,0.74 -1.12,1.45 -1.66,2.16 0.83,-0.69 2.51,-2 2.66,-2.11 2.37,-1.49 7.84,-2.95 10.23,-0.93 a 3.71,3.71 0 0 1 0,5.52 c -1.6,1.54 -4.32,1.7 -6.38,1.38 -2.28,-0.35 -6.4,-3 -6.91,-3.37 -0.9,1.18 -1.76,2.34 -2.56,3.44 -2.77,3.83 -4.93,7.13 -6.41,9.45 l -0.15,0.24 -1.92,-0.93 0.3,-0.46 c 1.55,-2.31 3.81,-5.59 6.69,-9.4 0.91,-1.21 1.9,-2.47 2.93,-3.77 a 40,40 0 0 1 -3,-3.68 c -2.21,0.86 -6.79,0.89 -7.39,0.89 -0.09,1.49 -0.17,2.93 -0.23,4.29 -0.2,4.73 -0.18,8.67 -0.13,11.42 v 0.32 l -2.11,-1 c 0,-2.74 0.11,-6.44 0.39,-10.82 0.09,-1.5 0.22,-3.11 0.37,-4.76 -0.59,-0.14 -5.36,-1.37 -7.16,-2.81 -1.63,-1.3 -3.35,-3.42 -3.29,-5.63 a 3.7,3.7 0 0 1 4.08,-3.72 c 3.11,0.4 5.72,5.41 6.23,8.17 0,0.16 0.16,2 0.22,3.09 0.07,-0.67 0.12,-1.32 0.2,-2 0.13,-1.37 0.31,-2.73 0.5,-4.2 0.11,-0.7 0.23,-1.42 0.34,-2.14 0.11,-0.72 0.3,-1.46 0.45,-2.19 0.38,-1.71 0.84,-3.42 1.35,-5.13 -1.2,-0.12 -5.45,-0.62 -7.28,-1.67 -1.83,-1.05 -3.83,-2.87 -4.1,-5.07 a 3.7,3.7 0 0 1 3.47,-4.29 c 3.13,-0.08 6.47,4.48 7.39,7.13 0.06,0.16 0.51,2.13 0.74,3.22 0.31,-1 0.61,-2.05 1,-3.08 1,-3 2.13,-5.93 3.23,-8.9 0.34,-0.91 0.66,-1.82 1,-2.73 -0.43,0 -5.5,-0.52 -7.54,-1.7 -1.81,-1 -3.83,-2.87 -4.11,-5.07 a 3.71,3.71 0 0 1 3.47,-4.29 c 3.14,-0.08 6.48,4.49 7.4,7.13 0.07,0.2 0.71,3 0.84,3.77 0.72,-2 1.43,-4 2,-6 a 65.26,65.26 0 0 0 2,-8.24 c -0.2,0 -5.49,-0.5 -7.58,-1.7 -1.82,-1 -3.84,-2.88 -4.11,-5.08 a 3.7,3.7 0 0 1 3.47,-4.29 c 3.13,-0.08 6.47,4.49 7.39,7.13 0.06,0.17 0.56,2.34 0.77,3.37 H 130 a 47.81,47.81 0 0 0 0.48,-8.51 c 0,-1.56 -0.15,-3.06 -0.3,-4.51 -1,0 -5.54,0 -7.54,-0.86 -2,-0.86 -4.13,-2.44 -4.65,-4.59 a 3.71,3.71 0 0 1 3,-4.65 c 3.11,-0.42 6.93,3.75 8.14,6.27 0.06,0.14 0.58,1.61 0.93,2.69 -0.07,-0.66 -0.14,-1.33 -0.23,-2 -0.31,-2.35 -0.75,-4.48 -1.15,-6.37 -0.24,-1.07 -0.47,-2 -0.7,-2.93 -1,-0.5 -4.92,-2.55 -6.26,-4.22 -1.34,-1.67 -2.54,-4.06 -2,-6.21 a 3.71,3.71 0 0 1 4.83,-2.7 z"
             style="fill:#ffffff"
             id="path1272" />
          <path
             d="m 181.23,308 c -2.45,-0.1 -7.35,-2.62 -7.35,-2.62 0,0 2.63,-2.72 2.82,-2.88 2.19,-1.74 7.45,-3.83 10.06,-2.09 a 3.7,3.7 0 0 1 0.65,5.48 c -1.41,1.71 -4.09,2.19 -6.18,2.11 z"
             style="fill:#ffffff"
             id="path1274" />
        </g>
        <path
           d="m 152.62,369.35 c 0,0 -14.87,-35.84 -23.19,-34.28 -8.32,1.56 14.27,57.14 14.27,57.14 0,0 -26.16,-49.35 -44,-49.35 -17.84,0 6.54,54.54 29.14,72.72 0,0 -35.68,-38.44 -56.49,-30.12 -20.81,8.32 41.65,47.27 41.65,47.27 0,0 -36.27,-11.43 -32.11,-2.6 4.16,8.83 15.46,10.39 15.46,10.39 l -41,2.08 H 199 l -32.11,-3.12 c 0,0 33.3,-16.62 24.38,-23.38 -8.92,-6.76 -28.54,7.79 -28.54,7.79 0,0 33.89,-37.4 27.35,-51.42 -6.54,-14.02 -35.68,25.45 -35.68,25.45 0,0 23.79,-50.38 19,-59.22 -4.79,-8.84 -20.78,30.65 -20.78,30.65 z"
           style="fill:#be185d"
           id="path1278" />
        <path
           d="m 152.62,369.35 c 0,0 -14.87,-35.84 -23.19,-34.28 -8.32,1.56 14.27,57.14 14.27,57.14 0,0 -26.16,-49.35 -44,-49.35 -17.84,0 6.54,54.54 29.14,72.72 0,0 -35.68,-38.44 -56.49,-30.12 -20.81,8.32 41.65,47.27 41.65,47.27 0,0 -36.27,-11.43 -32.11,-2.6 4.16,8.83 15.46,10.39 15.46,10.39 l -41,2.08 H 199 l -32.11,-3.12 c 0,0 33.3,-16.62 24.38,-23.38 -8.92,-6.76 -28.54,7.79 -28.54,7.79 0,0 33.89,-37.4 27.35,-51.42 -6.54,-14.02 -35.68,25.45 -35.68,25.45 0,0 23.79,-50.38 19,-59.22 -4.79,-8.84 -20.78,30.65 -20.78,30.65 z"
           style="opacity:0.4;fill:#ffffff"
           id="path1280" />
        <path
           d="m 157.38,371.24 c -13.08,38.65 -13.08,66 -13.08,66 0,0 15.46,0.6 31.51,-11.29"
           style="fill:none;stroke:#263238;stroke-linecap:round;stroke-linejoin:round"
           id="path1282" />
        <path
           d="M 150.84,392.05 A 232.21,232.21 0 0 0 140.13,358.16"
           style="fill:none;stroke:#263238;stroke-linecap:round;stroke-linejoin:round"
           id="path1284" />
        <path
           d="m 112.19,369.46 33.29,49.35 c 0,0 22.6,-19 30.33,-29.73"
           style="fill:none;stroke:#263238;stroke-linecap:round;stroke-linejoin:round"
           id="path1286" />
        <path
           d="m 144.89,430.7 c 0,0 -35.08,-16.65 -49.35,-26.16"
           style="fill:none;stroke:#263238;stroke-linecap:round;stroke-linejoin:round"
           id="path1288" />
      </g>
      <g
         id="freepik--Page--inject-3">
        <polygon
           points="170.86,63 162.71,50 90.95,50 90.95,63 90.95,67.68 90.95,284 386.31,284 386.31,63 "
           style="fill:#263238"
           id="polygon1291"
           sodipodi:insensitive="true" />
        <rect
           x="93.139999"
           y="68.959999"
           width="291.22"
           height="210.32001"
           style="fill:#ffffff"
           id="rect1293"
           sodipodi:insensitive="true" />
        <g
           clip-path="url(#freepik--clip-path--inject-3)"
           id="g1301">
          <rect
             x="379.03"
             y="67.160004"
             width="6.7600002"
             height="213.72"
             style="opacity:0.17"
             id="rect1295" />
          <rect
             x="379.03"
             y="196.38"
             width="6.7600002"
             height="82.769997"
             style="opacity:0.17"
             id="rect1297" />
          <rect
             x="91.989998"
             y="66.120003"
             width="292.76001"
             height="11.44"
             style="fill:#be185d;stroke:#263238;stroke-miterlimit:10"
             id="rect1299" />
        </g>
        <rect
           x="93.139999"
           y="68.959999"
           width="291.22"
           height="210.32001"
           style="fill:none;stroke:#263238;stroke-linecap:round;stroke-linejoin:round"
           id="rect1303" />
        <g
           style="opacity:0.17"
           id="g1313">
          <path
             d="M 244.87,88.59 H 224.5 a 1.81,1.81 0 0 1 -1.8,-1.8 v 0 a 1.81,1.81 0 0 1 1.8,-1.8 h 20.37 a 1.8,1.8 0 0 1 1.8,1.8 v 0 a 1.8,1.8 0 0 1 -1.8,1.8 z"
             id="path1305" />
          <path
             d="m 285.62,88.59 h -20.37 a 1.8,1.8 0 0 1 -1.8,-1.8 v 0 a 1.8,1.8 0 0 1 1.8,-1.8 h 20.37 a 1.81,1.81 0 0 1 1.8,1.8 v 0 a 1.81,1.81 0 0 1 -1.8,1.8 z"
             id="path1307" />
          <path
             d="M 326.37,88.59 H 306 a 1.8,1.8 0 0 1 -1.79,-1.8 v 0 A 1.8,1.8 0 0 1 306,85 h 20.38 a 1.81,1.81 0 0 1 1.8,1.8 v 0 a 1.81,1.81 0 0 1 -1.81,1.79 z"
             id="path1309" />
          <path
             d="m 367.11,88.59 h -20.37 a 1.81,1.81 0 0 1 -1.8,-1.8 v 0 a 1.81,1.81 0 0 1 1.8,-1.8 h 20.37 a 1.8,1.8 0 0 1 1.8,1.8 v 0 a 1.8,1.8 0 0 1 -1.8,1.8 z"
             id="path1311" />
        </g>
        <line
           x1="219.44"
           y1="166.49001"
           x2="231.39"
           y2="166.49001"
           style="fill:none;stroke:#263238;stroke-linecap:round;stroke-linejoin:round"
           id="line1315" />
        <line
           x1="151.00999"
           y1="166.49001"
           x2="212.24001"
           y2="166.49001"
           style="fill:none;stroke:#263238;stroke-linecap:round;stroke-linejoin:round"
           id="line1317" />
        <line
           x1="103.75"
           y1="166.49001"
           x2="144.53"
           y2="166.49001"
           style="fill:none;stroke:#263238;stroke-linecap:round;stroke-linejoin:round"
           id="line1319" />
        <line
           x1="181.25999"
           y1="173.92"
           x2="231.39"
           y2="173.92"
           style="fill:none;stroke:#263238;stroke-linecap:round;stroke-linejoin:round"
           id="line1321" />
        <line
           x1="153.89"
           y1="173.92"
           x2="173.34"
           y2="173.92"
           style="fill:none;stroke:#263238;stroke-linecap:round;stroke-linejoin:round"
           id="line1323" />
        <line
           x1="103.75"
           y1="173.92"
           x2="145.25"
           y2="173.92"
           style="fill:none;stroke:#263238;stroke-linecap:round;stroke-linejoin:round"
           id="line1325" />
        <line
           x1="130.84"
           y1="181.36"
           x2="231.39"
           y2="181.36"
           style="fill:none;stroke:#263238;stroke-linecap:round;stroke-linejoin:round"
           id="line1327" />
        <line
           x1="103.75"
           y1="181.36"
           x2="121.48"
           y2="181.36"
           style="fill:none;stroke:#263238;stroke-linecap:round;stroke-linejoin:round"
           id="line1329" />
        <line
           x1="206.48"
           y1="188.8"
           x2="231.39"
           y2="188.8"
           style="fill:none;stroke:#263238;stroke-linecap:round;stroke-linejoin:round"
           id="line1331" />
        <line
           x1="158.92999"
           y1="188.8"
           x2="197.83"
           y2="188.8"
           style="fill:none;stroke:#263238;stroke-linecap:round;stroke-linejoin:round"
           id="line1333" />
        <line
           x1="103.75"
           y1="188.8"
           x2="151.00999"
           y2="188.8"
           style="fill:none;stroke:#263238;stroke-linecap:round;stroke-linejoin:round"
           id="line1335" />
        <line
           x1="145.25"
           y1="196.23"
           x2="231.39"
           y2="196.23"
           style="fill:none;stroke:#263238;stroke-linecap:round;stroke-linejoin:round"
           id="line1337" />
        <line
           x1="103.75"
           y1="196.23"
           x2="137.33"
           y2="196.23"
           style="fill:none;stroke:#263238;stroke-linecap:round;stroke-linejoin:round"
           id="line1339" />
        <line
           x1="362.16"
           y1="166.49001"
           x2="374.35001"
           y2="166.49001"
           style="fill:none;stroke:#263238;stroke-linecap:round;stroke-linejoin:round"
           id="line1341" />
        <line
           x1="292.35001"
           y1="166.49001"
           x2="354.81"
           y2="166.49001"
           style="fill:none;stroke:#263238;stroke-linecap:round;stroke-linejoin:round"
           id="line1343" />
        <line
           x1="244.13"
           y1="166.49001"
           x2="285.73001"
           y2="166.49001"
           style="fill:none;stroke:#263238;stroke-linecap:round;stroke-linejoin:round"
           id="line1345" />
        <line
           x1="323.20999"
           y1="173.92"
           x2="374.35001"
           y2="173.92"
           style="fill:none;stroke:#263238;stroke-linecap:round;stroke-linejoin:round"
           id="line1347" />
        <line
           x1="295.29001"
           y1="173.92"
           x2="315.13"
           y2="173.92"
           style="fill:none;stroke:#263238;stroke-linecap:round;stroke-linejoin:round"
           id="line1349" />
        <line
           x1="244.13"
           y1="173.92"
           x2="286.47"
           y2="173.92"
           style="fill:none;stroke:#263238;stroke-linecap:round;stroke-linejoin:round"
           id="line1351" />
        <line
           x1="271.76999"
           y1="181.36"
           x2="374.35001"
           y2="181.36"
           style="fill:none;stroke:#263238;stroke-linecap:round;stroke-linejoin:round"
           id="line1353" />
        <line
           x1="244.13"
           y1="181.36"
           x2="262.22"
           y2="181.36"
           style="fill:none;stroke:#263238;stroke-linecap:round;stroke-linejoin:round"
           id="line1355" />
        <line
           x1="348.92999"
           y1="188.8"
           x2="374.35001"
           y2="188.8"
           style="fill:none;stroke:#263238;stroke-linecap:round;stroke-linejoin:round"
           id="line1357" />
        <line
           x1="300.42999"
           y1="188.8"
           x2="340.10999"
           y2="188.8"
           style="fill:none;stroke:#263238;stroke-linecap:round;stroke-linejoin:round"
           id="line1359" />
        <line
           x1="244.13"
           y1="188.8"
           x2="292.35001"
           y2="188.8"
           style="fill:none;stroke:#263238;stroke-linecap:round;stroke-linejoin:round"
           id="line1361" />
        <line
           x1="286.47"
           y1="196.23"
           x2="374.35001"
           y2="196.23"
           style="fill:none;stroke:#263238;stroke-linecap:round;stroke-linejoin:round"
           id="line1363" />
        <line
           x1="244.13"
           y1="196.23"
           x2="278.38"
           y2="196.23"
           style="fill:none;stroke:#263238;stroke-linecap:round;stroke-linejoin:round"
           id="line1365" />
        <line
           x1="219.44"
           y1="203.35001"
           x2="231.39"
           y2="203.35001"
           style="fill:none;stroke:#263238;stroke-linecap:round;stroke-linejoin:round"
           id="line1367" />
        <line
           x1="151.00999"
           y1="203.35001"
           x2="212.24001"
           y2="203.35001"
           style="fill:none;stroke:#263238;stroke-linecap:round;stroke-linejoin:round"
           id="line1369" />
        <line
           x1="103.75"
           y1="203.35001"
           x2="144.53"
           y2="203.35001"
           style="fill:none;stroke:#263238;stroke-linecap:round;stroke-linejoin:round"
           id="line1371" />
        <line
           x1="181.25999"
           y1="210.78999"
           x2="231.39"
           y2="210.78999"
           style="fill:none;stroke:#263238;stroke-linecap:round;stroke-linejoin:round"
           id="line1373" />
        <line
           x1="153.89"
           y1="210.78999"
           x2="173.34"
           y2="210.78999"
           style="fill:none;stroke:#263238;stroke-linecap:round;stroke-linejoin:round"
           id="line1375" />
        <line
           x1="103.75"
           y1="210.78999"
           x2="145.25"
           y2="210.78999"
           style="fill:none;stroke:#263238;stroke-linecap:round;stroke-linejoin:round"
           id="line1377" />
        <line
           x1="130.84"
           y1="218.22"
           x2="231.39"
           y2="218.22"
           style="fill:none;stroke:#263238;stroke-linecap:round;stroke-linejoin:round"
           id="line1379" />
        <line
           x1="103.75"
           y1="218.22"
           x2="121.48"
           y2="218.22"
           style="fill:none;stroke:#263238;stroke-linecap:round;stroke-linejoin:round"
           id="line1381" />
        <line
           x1="206.48"
           y1="225.66"
           x2="231.39"
           y2="225.66"
           style="fill:none;stroke:#263238;stroke-linecap:round;stroke-linejoin:round"
           id="line1383" />
        <line
           x1="158.92999"
           y1="225.66"
           x2="197.83"
           y2="225.66"
           style="fill:none;stroke:#263238;stroke-linecap:round;stroke-linejoin:round"
           id="line1385" />
        <line
           x1="103.75"
           y1="225.66"
           x2="151.00999"
           y2="225.66"
           style="fill:none;stroke:#263238;stroke-linecap:round;stroke-linejoin:round"
           id="line1387" />
        <line
           x1="145.25"
           y1="233.10001"
           x2="231.39"
           y2="233.10001"
           style="fill:none;stroke:#263238;stroke-linecap:round;stroke-linejoin:round"
           id="line1389" />
        <line
           x1="103.75"
           y1="233.10001"
           x2="137.33"
           y2="233.10001"
           style="fill:none;stroke:#263238;stroke-linecap:round;stroke-linejoin:round"
           id="line1391" />
        <line
           x1="362.16"
           y1="203.35001"
           x2="374.35001"
           y2="203.35001"
           style="fill:none;stroke:#263238;stroke-linecap:round;stroke-linejoin:round"
           id="line1393" />
        <line
           x1="292.35001"
           y1="203.35001"
           x2="354.81"
           y2="203.35001"
           style="fill:none;stroke:#263238;stroke-linecap:round;stroke-linejoin:round"
           id="line1395" />
        <line
           x1="244.13"
           y1="203.35001"
           x2="285.73001"
           y2="203.35001"
           style="fill:none;stroke:#263238;stroke-linecap:round;stroke-linejoin:round"
           id="line1397" />
        <line
           x1="323.20999"
           y1="210.78999"
           x2="374.35001"
           y2="210.78999"
           style="fill:none;stroke:#263238;stroke-linecap:round;stroke-linejoin:round"
           id="line1399" />
        <line
           x1="295.29001"
           y1="210.78999"
           x2="315.13"
           y2="210.78999"
           style="fill:none;stroke:#263238;stroke-linecap:round;stroke-linejoin:round"
           id="line1401" />
        <line
           x1="244.13"
           y1="210.78999"
           x2="286.47"
           y2="210.78999"
           style="fill:none;stroke:#263238;stroke-linecap:round;stroke-linejoin:round"
           id="line1403" />
        <line
           x1="271.76999"
           y1="218.22"
           x2="374.35001"
           y2="218.22"
           style="fill:none;stroke:#263238;stroke-linecap:round;stroke-linejoin:round"
           id="line1405" />
        <line
           x1="244.13"
           y1="218.22"
           x2="262.22"
           y2="218.22"
           style="fill:none;stroke:#263238;stroke-linecap:round;stroke-linejoin:round"
           id="line1407" />
        <line
           x1="348.92999"
           y1="225.66"
           x2="374.35001"
           y2="225.66"
           style="fill:none;stroke:#263238;stroke-linecap:round;stroke-linejoin:round"
           id="line1409" />
        <line
           x1="300.42999"
           y1="225.66"
           x2="340.10999"
           y2="225.66"
           style="fill:none;stroke:#263238;stroke-linecap:round;stroke-linejoin:round"
           id="line1411" />
        <line
           x1="244.13"
           y1="225.66"
           x2="292.35001"
           y2="225.66"
           style="fill:none;stroke:#263238;stroke-linecap:round;stroke-linejoin:round"
           id="line1413" />
        <line
           x1="286.47"
           y1="233.10001"
           x2="374.35001"
           y2="233.10001"
           style="fill:none;stroke:#263238;stroke-linecap:round;stroke-linejoin:round"
           id="line1415" />
        <line
           x1="244.13"
           y1="233.10001"
           x2="278.38"
           y2="233.10001"
           style="fill:none;stroke:#263238;stroke-linecap:round;stroke-linejoin:round"
           id="line1417" />
        <path
           d="M 374.35,159 H 103.16 v -56 h 271.19 z"
           style="fill:#be185d"
           id="path1419" />
        <path
           d="M 374.35,159 H 103.16 v -56 h 271.19 z"
           style="opacity:0.7;fill:#ffffff"
           id="path1421" />
        <path
           d="M 231.84,159 H 103.16 v -56 h 118.05 l 10.63,8.29 z"
           style="fill:#263238"
           id="path1423" />
        <polygon
           points="221.21,103.04 221.21,111.33 231.84,111.33 "
           style="fill:#ffffff"
           id="polygon1425" />
        <line
           x1="205.55"
           y1="119.26"
           x2="214.32001"
           y2="119.26"
           style="fill:none;stroke:#ffffff;stroke-linecap:round;stroke-linejoin:round"
           id="line1427" />
        <line
           x1="155.35001"
           y1="119.26"
           x2="200.27"
           y2="119.26"
           style="fill:none;stroke:#ffffff;stroke-linecap:round;stroke-linejoin:round"
           id="line1429" />
        <line
           x1="120.68"
           y1="119.26"
           x2="150.60001"
           y2="119.26"
           style="fill:none;stroke:#ffffff;stroke-linecap:round;stroke-linejoin:round"
           id="line1431" />
        <line
           x1="177.55"
           y1="124.05"
           x2="214.32001"
           y2="124.05"
           style="fill:none;stroke:#ffffff;stroke-linecap:round;stroke-linejoin:round"
           id="line1433" />
        <line
           x1="157.47"
           y1="124.05"
           x2="171.74001"
           y2="124.05"
           style="fill:none;stroke:#ffffff;stroke-linecap:round;stroke-linejoin:round"
           id="line1435" />
        <line
           x1="120.68"
           y1="124.05"
           x2="151.13"
           y2="124.05"
           style="fill:none;stroke:#ffffff;stroke-linecap:round;stroke-linejoin:round"
           id="line1437" />
        <line
           x1="140.56"
           y1="128.84"
           x2="214.32001"
           y2="128.84"
           style="fill:none;stroke:#ffffff;stroke-linecap:round;stroke-linejoin:round"
           id="line1439" />
        <line
           x1="120.68"
           y1="128.84"
           x2="133.69"
           y2="128.84"
           style="fill:none;stroke:#ffffff;stroke-linecap:round;stroke-linejoin:round"
           id="line1441" />
        <line
           x1="196.03999"
           y1="133.64"
           x2="214.32001"
           y2="133.64"
           style="fill:none;stroke:#ffffff;stroke-linecap:round;stroke-linejoin:round"
           id="line1443" />
        <line
           x1="161.17"
           y1="133.64"
           x2="189.7"
           y2="133.64"
           style="fill:none;stroke:#ffffff;stroke-linecap:round;stroke-linejoin:round"
           id="line1445" />
        <line
           x1="120.68"
           y1="133.64"
           x2="155.35001"
           y2="133.64"
           style="fill:none;stroke:#ffffff;stroke-linecap:round;stroke-linejoin:round"
           id="line1447" />
        <line
           x1="151.13"
           y1="138.42999"
           x2="214.32001"
           y2="138.42999"
           style="fill:none;stroke:#ffffff;stroke-linecap:round;stroke-linejoin:round"
           id="line1449" />
        <line
           x1="120.68"
           y1="138.42999"
           x2="145.31"
           y2="138.42999"
           style="fill:none;stroke:#ffffff;stroke-linecap:round;stroke-linejoin:round"
           id="line1451" />
        <path
           d="m 305.9651,265.41 h -58.58 a 2.51,2.51 0 0 1 -2.51,-2.51 v -19.1 a 2.51,2.51 0 0 1 2.51,-2.51 h 58.59 a 2.51,2.51 0 0 1 2.51,2.51 v 19.1 a 2.52,2.52 0 0 1 -2.52,2.51 z"
           style="fill:#be185d"
           id="path1453" />
        <path
           d="m 264.5251,254.67 h -3.42 l -0.48,1.28 a 0.72,0.72 0 0 1 -0.7,0.53 0.76,0.76 0 0 1 -0.51,-0.2 0.6,0.6 0 0 1 -0.23,-0.48 0.74,0.74 0 0 1 0.06,-0.28 l 2.35,-5.88 a 1.67,1.67 0 0 1 0.51,-0.8 1.19,1.19 0 0 1 0.71,-0.2 1.16,1.16 0 0 1 0.7,0.2 1.6,1.6 0 0 1 0.52,0.8 l 2.35,5.88 a 0.72,0.72 0 0 1 0.05,0.28 0.59,0.59 0 0 1 -0.22,0.48 0.77,0.77 0 0 1 -0.52,0.2 0.74,0.74 0 0 1 -0.41,-0.13 0.75,0.75 0 0 1 -0.28,-0.4 z m -1.71,-4.57 -1.32,3.53 h 2.64 z"
           style="fill:#263238"
           id="path1455" />
        <path
           d="m 268.9051,255 a 1.29,1.29 0 0 0 1.07,0.49 1.83,1.83 0 0 0 1.07,-0.28 0.51,0.51 0 0 1 0.28,-0.09 0.37,0.37 0 0 1 0.29,0.13 0.45,0.45 0 0 1 0.12,0.31 0.55,0.55 0 0 1 -0.22,0.43 1.72,1.72 0 0 1 -0.65,0.34 3.44,3.44 0 0 1 -1,0.14 2.55,2.55 0 0 1 -1.93,-0.78 2.71,2.71 0 0 1 -0.75,-2 2.93,2.93 0 0 1 0.33,-1.38 2.49,2.49 0 0 1 1,-1 2.65,2.65 0 0 1 1.41,-0.37 2.49,2.49 0 0 1 1.52,0.43 0.49,0.49 0 0 1 0.24,0.41 0.45,0.45 0 0 1 -0.12,0.31 0.42,0.42 0 0 1 -0.31,0.13 0.55,0.55 0 0 1 -0.25,-0.07 2.11,2.11 0 0 0 -0.94,-0.24 1.32,1.32 0 0 0 -1.09,0.48 1.93,1.93 0 0 0 -0.4,1.29 2,2 0 0 0 0.33,1.32 z"
           style="fill:#263238"
           id="path1457" />
        <path
           d="m 274.1551,255 a 1.29,1.29 0 0 0 1.07,0.49 1.88,1.88 0 0 0 1.08,-0.28 0.48,0.48 0 0 1 0.27,-0.09 0.36,0.36 0 0 1 0.29,0.13 0.45,0.45 0 0 1 0.12,0.31 0.53,0.53 0 0 1 -0.22,0.43 1.65,1.65 0 0 1 -0.65,0.34 3.35,3.35 0 0 1 -1,0.14 2.55,2.55 0 0 1 -1.93,-0.78 2.71,2.71 0 0 1 -0.75,-2 2.82,2.82 0 0 1 0.34,-1.38 2.54,2.54 0 0 1 0.95,-1 2.68,2.68 0 0 1 1.41,-0.37 2.54,2.54 0 0 1 1.53,0.43 0.49,0.49 0 0 1 0.24,0.41 0.46,0.46 0 0 1 -0.13,0.31 0.4,0.4 0 0 1 -0.31,0.13 0.59,0.59 0 0 1 -0.25,-0.07 2.08,2.08 0 0 0 -0.94,-0.24 1.32,1.32 0 0 0 -1.09,0.48 2,2 0 0 0 -0.39,1.29 2,2 0 0 0 0.36,1.32 z"
           style="fill:#263238"
           id="path1459" />
        <path
           d="m 277.9751,252.36 a 2.47,2.47 0 0 1 0.92,-1 2.67,2.67 0 0 1 1.42,-0.38 2.73,2.73 0 0 1 1.1,0.21 2,2 0 0 1 0.77,0.57 2.5,2.5 0 0 1 0.44,0.82 3.1,3.1 0 0 1 0.16,1 0.51,0.51 0 0 1 -0.1,0.34 0.32,0.32 0 0 1 -0.29,0.13 h -3.38 a 1.4,1.4 0 0 0 1.55,1.51 2.51,2.51 0 0 0 1.42,-0.54 0.32,0.32 0 0 1 0.21,-0.08 0.38,0.38 0 0 1 0.29,0.15 0.58,0.58 0 0 1 0.13,0.34 0.48,0.48 0 0 1 -0.17,0.37 3,3 0 0 1 -2,0.71 2.8,2.8 0 0 1 -2,-0.74 2.73,2.73 0 0 1 -0.77,-2.06 3,3 0 0 1 0.3,-1.35 z m 3.66,0.94 a 1.81,1.81 0 0 0 -0.35,-1 1.29,1.29 0 0 0 -1.87,0 1.71,1.71 0 0 0 -0.39,1 z"
           style="fill:#263238"
           id="path1461" />
        <path
           d="m 284.0251,258.28 a 0.72,0.72 0 0 1 -0.19,-0.53 v -5.91 a 0.8,0.8 0 0 1 0.2,-0.56 0.63,0.63 0 0 1 0.48,-0.21 0.69,0.69 0 0 1 0.48,0.17 0.67,0.67 0 0 1 0.18,0.5 v 0.19 a 1.87,1.87 0 0 1 1.77,-0.93 2.12,2.12 0 0 1 1.25,0.37 2.33,2.33 0 0 1 0.8,1 3.56,3.56 0 0 1 0.27,1.42 2.91,2.91 0 0 1 -0.65,2 2.23,2.23 0 0 1 -1.75,0.73 1.84,1.84 0 0 1 -1.69,-0.86 v 2.1 a 0.69,0.69 0 0 1 -0.19,0.53 0.64,0.64 0 0 1 -0.49,0.19 0.61,0.61 0 0 1 -0.47,-0.2 z m 3.09,-2.79 a 1,1 0 0 0 0.39,-0.28 1.5,1.5 0 0 0 0.25,-0.41 2.75,2.75 0 0 0 0.14,-0.49 3.4,3.4 0 0 0 0,-1 2.22,2.22 0 0 0 -0.13,-0.49 1.67,1.67 0 0 0 -0.24,-0.44 1.1,1.1 0 0 0 -0.39,-0.31 1.12,1.12 0 0 0 -0.53,-0.12 1.25,1.25 0 0 0 -1.1,0.47 2.48,2.48 0 0 0 -0.32,1.39 2.82,2.82 0 0 0 0.13,0.91 1.43,1.43 0 0 0 0.47,0.66 1.23,1.23 0 0 0 0.8,0.25 1.29,1.29 0 0 0 0.53,-0.14 z"
           style="fill:#263238"
           id="path1463" />
        <path
           d="m 291.2251,256.05 a 1.84,1.84 0 0 1 -0.41,-1.28 V 252 h -0.52 a 0.52,0.52 0 0 1 -0.36,-0.12 0.49,0.49 0 0 1 -0.12,-0.34 0.45,0.45 0 0 1 0.11,-0.31 0.48,0.48 0 0 1 0.35,-0.13 h 0.57 l 0.16,-1.32 a 0.78,0.78 0 0 1 0.2,-0.48 0.59,0.59 0 0 1 0.46,-0.18 0.47,0.47 0 0 1 0.37,0.15 0.77,0.77 0 0 1 0.13,0.47 v 1.36 h 0.86 a 0.46,0.46 0 0 1 0.34,0.13 0.47,0.47 0 0 1 0.12,0.34 0.44,0.44 0 0 1 -0.12,0.32 0.45,0.45 0 0 1 -0.34,0.11 h -0.86 v 2.44 a 1.72,1.72 0 0 0 0.13,0.77 0.45,0.45 0 0 0 0.45,0.25 h 0.06 0.38 v 0 a 0.44,0.44 0 0 1 0.35,0.15 0.54,0.54 0 0 1 0.08,0.58 0.37,0.37 0 0 1 -0.13,0.15 l -0.19,0.1 a 1.33,1.33 0 0 1 -0.26,0.05 h -0.29 -0.36 a 1.48,1.48 0 0 1 -1.16,-0.44 z"
           style="fill:#263238"
           id="path1465" />
        <path
           d="m 228.9951,265.41 h -58.61 a 2.51,2.51 0 0 1 -2.51,-2.51 v -19.1 a 2.51,2.51 0 0 1 2.51,-2.51 h 58.58 a 2.51,2.51 0 0 1 2.51,2.51 v 19.1 a 2.51,2.51 0 0 1 -2.48,2.51 z"
           style="opacity:0.25"
           id="path1467" />
        <path
           d="m 174.0251,256.26 a 0.62,0.62 0 0 1 -0.21,-0.49 v -6.12 a 0.94,0.94 0 0 1 0.24,-0.68 0.72,0.72 0 0 1 0.57,-0.25 1,1 0 0 1 0.5,0.15 1.08,1.08 0 0 1 0.43,0.39 l 3.52,4.88 v -4.74 a 0.62,0.62 0 0 1 0.21,-0.49 0.72,0.72 0 0 1 1,0 0.64,0.64 0 0 1 0.21,0.5 v 6 a 1.18,1.18 0 0 1 -0.23,0.75 0.69,0.69 0 0 1 -0.59,0.29 0.94,0.94 0 0 1 -0.49,-0.16 1.61,1.61 0 0 1 -0.45,-0.41 l -3.5,-4.85 v 4.75 a 0.63,0.63 0 0 1 -0.2,0.49 0.74,0.74 0 0 1 -0.49,0.18 0.72,0.72 0 0 1 -0.52,-0.19 z"
           style="fill:#ffffff"
           id="path1469" />
        <path
           d="m 183.3151,256.28 a 2.29,2.29 0 0 1 -0.88,-0.62 2.83,2.83 0 0 1 -0.5,-0.88 3.12,3.12 0 0 1 -0.17,-1 3.32,3.32 0 0 1 0.11,-0.83 2.77,2.77 0 0 1 0.33,-0.75 2.63,2.63 0 0 1 0.54,-0.61 2.34,2.34 0 0 1 0.8,-0.42 3.33,3.33 0 0 1 1,-0.15 3.24,3.24 0 0 1 1,0.15 2.35,2.35 0 0 1 0.79,0.4 2.45,2.45 0 0 1 0.56,0.6 2.73,2.73 0 0 1 0.34,0.76 3.35,3.35 0 0 1 0.11,0.85 3.18,3.18 0 0 1 -0.11,0.82 2.31,2.31 0 0 1 -0.32,0.74 2.5,2.5 0 0 1 -0.55,0.62 2.46,2.46 0 0 1 -0.79,0.41 3.15,3.15 0 0 1 -1,0.16 3.33,3.33 0 0 1 -1.26,-0.25 z m 2.34,-1.17 a 2.09,2.09 0 0 0 0.39,-1.35 2.14,2.14 0 0 0 -0.39,-1.36 1.32,1.32 0 0 0 -1.08,-0.49 1.3,1.3 0 0 0 -1.08,0.49 2.12,2.12 0 0 0 -0.38,1.36 2.09,2.09 0 0 0 0.38,1.35 1.45,1.45 0 0 0 2.16,0 z"
           style="fill:#ffffff"
           id="path1471" />
        <path
           d="m 196.5251,254.67 h -3.41 l -0.49,1.28 a 0.75,0.75 0 0 1 -0.28,0.4 0.74,0.74 0 0 1 -0.41,0.13 0.77,0.77 0 0 1 -0.52,-0.2 0.59,0.59 0 0 1 -0.22,-0.48 1,1 0 0 1 0,-0.28 l 2.35,-5.88 a 1.6,1.6 0 0 1 0.52,-0.8 1.16,1.16 0 0 1 0.7,-0.2 1.19,1.19 0 0 1 0.71,0.2 1.6,1.6 0 0 1 0.51,0.8 l 2.36,5.88 a 1,1 0 0 1 0.05,0.28 0.6,0.6 0 0 1 -0.23,0.48 0.76,0.76 0 0 1 -0.51,0.2 0.8,0.8 0 0 1 -0.42,-0.13 0.87,0.87 0 0 1 -0.28,-0.4 z m -1.71,-4.57 -1.32,3.53 h 2.65 z"
           style="fill:#ffffff"
           id="path1473" />
        <path
           d="m 200.9151,255 a 1.26,1.26 0 0 0 1.07,0.49 1.87,1.87 0 0 0 1.07,-0.28 0.48,0.48 0 0 1 0.27,-0.09 0.36,0.36 0 0 1 0.29,0.13 0.45,0.45 0 0 1 0.12,0.31 0.54,0.54 0 0 1 -0.21,0.43 1.7,1.7 0 0 1 -0.66,0.34 3.33,3.33 0 0 1 -1,0.14 2.58,2.58 0 0 1 -1.94,-0.78 2.71,2.71 0 0 1 -0.75,-2 2.82,2.82 0 0 1 0.34,-1.38 2.54,2.54 0 0 1 0.95,-1 2.7,2.7 0 0 1 1.41,-0.37 2.5,2.5 0 0 1 1.53,0.43 0.49,0.49 0 0 1 0.24,0.41 0.42,0.42 0 0 1 -0.13,0.31 0.38,0.38 0 0 1 -0.3,0.13 0.63,0.63 0 0 1 -0.26,-0.07 2.08,2.08 0 0 0 -0.94,-0.24 1.33,1.33 0 0 0 -1.09,0.48 2,2 0 0 0 -0.39,1.29 2,2 0 0 0 0.38,1.32 z"
           style="fill:#ffffff"
           id="path1475" />
        <path
           d="m 206.1651,255 a 1.28,1.28 0 0 0 1.07,0.49 1.83,1.83 0 0 0 1.07,-0.28 0.49,0.49 0 0 1 0.28,-0.09 0.37,0.37 0 0 1 0.29,0.13 0.45,0.45 0 0 1 0.12,0.31 0.55,0.55 0 0 1 -0.22,0.43 1.72,1.72 0 0 1 -0.65,0.34 3.44,3.44 0 0 1 -1,0.14 2.55,2.55 0 0 1 -1.93,-0.78 2.71,2.71 0 0 1 -0.75,-2 2.93,2.93 0 0 1 0.33,-1.38 2.49,2.49 0 0 1 1,-1 2.65,2.65 0 0 1 1.41,-0.37 2.49,2.49 0 0 1 1.52,0.43 0.49,0.49 0 0 1 0.24,0.41 0.45,0.45 0 0 1 -0.12,0.31 0.42,0.42 0 0 1 -0.31,0.13 0.55,0.55 0 0 1 -0.25,-0.07 2.12,2.12 0 0 0 -0.95,-0.24 1.31,1.31 0 0 0 -1.08,0.48 1.93,1.93 0 0 0 -0.4,1.29 2,2 0 0 0 0.33,1.32 z"
           style="fill:#ffffff"
           id="path1477" />
        <path
           d="m 209.9851,252.36 a 2.4,2.4 0 0 1 0.92,-1 2.64,2.64 0 0 1 1.42,-0.38 2.73,2.73 0 0 1 1.1,0.21 2,2 0 0 1 0.77,0.57 2.7,2.7 0 0 1 0.44,0.82 3.1,3.1 0 0 1 0.15,1 0.57,0.57 0 0 1 -0.09,0.34 0.34,0.34 0 0 1 -0.29,0.13 h -3.39 a 1.4,1.4 0 0 0 1.55,1.51 2.46,2.46 0 0 0 1.42,-0.54 0.34,0.34 0 0 1 0.5,0.07 0.52,0.52 0 0 1 0.13,0.34 0.45,0.45 0 0 1 -0.17,0.37 3,3 0 0 1 -2,0.71 2.82,2.82 0 0 1 -2,-0.74 2.72,2.72 0 0 1 -0.76,-2.06 2.91,2.91 0 0 1 0.3,-1.35 z m 3.66,0.94 a 1.81,1.81 0 0 0 -0.36,-1 1.12,1.12 0 0 0 -0.93,-0.39 1.14,1.14 0 0 0 -0.94,0.41 1.77,1.77 0 0 0 -0.38,1 z"
           style="fill:#ffffff"
           id="path1479" />
        <path
           d="m 216.0251,258.28 a 0.76,0.76 0 0 1 -0.19,-0.53 v -5.91 a 0.8,0.8 0 0 1 0.2,-0.56 0.67,0.67 0 0 1 0.49,-0.21 0.69,0.69 0 0 1 0.48,0.17 0.67,0.67 0 0 1 0.18,0.5 v 0.19 a 1.85,1.85 0 0 1 1.77,-0.93 2.09,2.09 0 0 1 1.24,0.37 2.35,2.35 0 0 1 0.81,1 3.56,3.56 0 0 1 0.27,1.42 2.86,2.86 0 0 1 -0.66,2 2.19,2.19 0 0 1 -1.74,0.73 1.83,1.83 0 0 1 -1.69,-0.86 v 2.1 a 0.69,0.69 0 0 1 -0.19,0.53 0.66,0.66 0 0 1 -0.49,0.19 0.65,0.65 0 0 1 -0.48,-0.2 z m 3.1,-2.79 a 1,1 0 0 0 0.38,-0.28 1.29,1.29 0 0 0 0.25,-0.41 1.71,1.71 0 0 0 0.14,-0.49 2.89,2.89 0 0 0 0.05,-0.53 4.38,4.38 0 0 0 0,-0.51 2.22,2.22 0 0 0 -0.13,-0.49 1.69,1.69 0 0 0 -0.25,-0.44 1.06,1.06 0 0 0 -0.38,-0.31 1.19,1.19 0 0 0 -0.54,-0.12 1.24,1.24 0 0 0 -1.09,0.47 2.4,2.4 0 0 0 -0.33,1.39 2.81,2.81 0 0 0 0.14,0.91 1.42,1.42 0 0 0 0.46,0.66 1.28,1.28 0 0 0 0.81,0.25 1.32,1.32 0 0 0 0.49,-0.1 z"
           style="fill:#ffffff"
           id="path1481" />
        <path
           d="m 223.2251,256.05 a 1.84,1.84 0 0 1 -0.41,-1.28 V 252 h -0.52 a 0.48,0.48 0 0 1 -0.35,-0.12 0.45,0.45 0 0 1 -0.13,-0.34 0.41,0.41 0 0 1 0.12,-0.31 0.47,0.47 0 0 1 0.35,-0.13 h 0.56 l 0.16,-1.32 a 0.84,0.84 0 0 1 0.2,-0.48 0.61,0.61 0 0 1 0.47,-0.18 0.46,0.46 0 0 1 0.36,0.15 0.71,0.71 0 0 1 0.13,0.47 v 1.36 h 0.87 a 0.46,0.46 0 0 1 0.34,0.13 0.47,0.47 0 0 1 0.12,0.34 0.44,0.44 0 0 1 -0.12,0.32 0.48,0.48 0 0 1 -0.35,0.11 h -0.86 v 2.44 a 1.88,1.88 0 0 0 0.13,0.77 0.47,0.47 0 0 0 0.46,0.25 h 0.06 0.38 v 0 a 0.43,0.43 0 0 1 0.35,0.15 0.51,0.51 0 0 1 0.13,0.35 0.56,0.56 0 0 1 0,0.23 0.4,0.4 0 0 1 -0.14,0.15 l -0.19,0.1 a 1.2,1.2 0 0 1 -0.26,0.05 h -0.28 -0.42 a 1.51,1.51 0 0 1 -1.16,-0.44 z"
           style="fill:#ffffff"
           id="path1483" />
        <path
           d="m 256.17,135.46 a 4.74,4.74 0 0 1 -2.05,-2.06 7,7 0 0 1 -0.73,-3.33 7.18,7.18 0 0 1 0.37,-2.37 5.67,5.67 0 0 1 1.1,-1.93 4.89,4.89 0 0 1 1.88,-1.31 6.83,6.83 0 0 1 2.64,-0.48 8,8 0 0 1 3.47,0.71 0.92,0.92 0 0 1 0.38,0.35 0.87,0.87 0 0 1 0.13,0.44 1,1 0 0 1 -0.23,0.64 0.71,0.71 0 0 1 -0.58,0.29 0.6,0.6 0 0 1 -0.27,-0.06 9.76,9.76 0 0 0 -2.82,-0.52 4.24,4.24 0 0 0 -1.66,0.3 2.7,2.7 0 0 0 -1.14,0.87 4,4 0 0 0 -0.63,1.33 6.91,6.91 0 0 0 -0.2,1.73 c 0,2.82 1.19,4.23 3.55,4.23 a 9,9 0 0 0 2.1,-0.25 v -2.75 h -1.69 a 0.75,0.75 0 0 1 -0.57,-0.23 0.87,0.87 0 0 1 -0.21,-0.59 0.9,0.9 0 0 1 0.2,-0.57 0.66,0.66 0 0 1 0.55,-0.26 h 3.12 c 0.59,0 0.88,0.36 0.88,1.09 v 3.38 a 1.83,1.83 0 0 1 -0.25,1.08 1.51,1.51 0 0 1 -0.86,0.48 16.55,16.55 0 0 1 -3.38,0.47 6.56,6.56 0 0 1 -3.1,-0.68 z"
           style="fill:#263238"
           id="path1485" />
        <path
           d="m 265.71,129.79 a 3.56,3.56 0 0 1 1.38,-1.48 4,4 0 0 1 2.13,-0.56 4.1,4.1 0 0 1 1.66,0.31 2.83,2.83 0 0 1 1.16,0.86 3.84,3.84 0 0 1 0.66,1.23 5,5 0 0 1 0.24,1.48 0.81,0.81 0 0 1 -0.15,0.51 0.49,0.49 0 0 1 -0.43,0.19 h -5.1 a 2.11,2.11 0 0 0 2.33,2.27 3.75,3.75 0 0 0 2.14,-0.81 0.53,0.53 0 0 1 0.31,-0.11 0.58,0.58 0 0 1 0.45,0.22 0.75,0.75 0 0 1 0.19,0.51 0.71,0.71 0 0 1 -0.26,0.55 4.5,4.5 0 0 1 -3,1.07 4.23,4.23 0 0 1 -3.06,-1.11 4.1,4.1 0 0 1 -1.15,-3.1 4.43,4.43 0 0 1 0.5,-2.03 z m 5.5,1.41 a 2.72,2.72 0 0 0 -0.53,-1.53 1.93,1.93 0 0 0 -2.81,0 2.57,2.57 0 0 0 -0.59,1.5 z"
           style="fill:#263238"
           id="path1487" />
        <path
           d="m 274.8,135.64 a 1.13,1.13 0 0 1 -0.28,-0.82 v -5.95 a 0.94,0.94 0 0 1 0.29,-0.75 1,1 0 0 1 0.73,-0.27 1,1 0 0 1 0.72,0.26 1,1 0 0 1 0.28,0.74 v 0.28 a 2.43,2.43 0 0 1 1,-1 3.52,3.52 0 0 1 1.62,-0.35 3,3 0 0 1 1.09,0.19 3,3 0 0 1 0.92,0.55 2.55,2.55 0 0 1 0.63,1 3.68,3.68 0 0 1 0.24,1.37 v 4 a 1.14,1.14 0 0 1 -0.29,0.82 1,1 0 0 1 -0.75,0.29 0.9,0.9 0 0 1 -0.7,-0.29 1.14,1.14 0 0 1 -0.29,-0.82 v -4 a 1.71,1.71 0 0 0 -0.43,-1.27 1.45,1.45 0 0 0 -1.1,-0.44 1.84,1.84 0 0 0 -1.39,0.63 2.37,2.37 0 0 0 -0.59,1.66 v 3.41 a 1.14,1.14 0 0 1 -0.29,0.82 1.05,1.05 0 0 1 -1.45,0 z"
           style="fill:#263238"
           id="path1489" />
        <path
           d="m 284.18,129.79 a 3.65,3.65 0 0 1 1.39,-1.48 4,4 0 0 1 2.13,-0.56 4.13,4.13 0 0 1 1.66,0.31 2.9,2.9 0 0 1 1.16,0.86 3.84,3.84 0 0 1 0.66,1.23 5,5 0 0 1 0.24,1.48 0.81,0.81 0 0 1 -0.15,0.51 0.5,0.5 0 0 1 -0.43,0.19 h -5.1 a 2.1,2.1 0 0 0 2.33,2.27 3.75,3.75 0 0 0 2.14,-0.81 0.51,0.51 0 0 1 0.31,-0.11 0.54,0.54 0 0 1 0.44,0.22 0.76,0.76 0 0 1 0.2,0.51 0.71,0.71 0 0 1 -0.26,0.55 4.5,4.5 0 0 1 -3,1.07 4.2,4.2 0 0 1 -3.06,-1.11 4.1,4.1 0 0 1 -1.15,-3.1 4.42,4.42 0 0 1 0.49,-2.03 z m 5.51,1.41 a 2.72,2.72 0 0 0 -0.53,-1.53 1.95,1.95 0 0 0 -2.82,0 2.63,2.63 0 0 0 -0.58,1.5 z"
           style="fill:#263238"
           id="path1491" />
        <path
           d="M 293.29,135.65 A 1.11,1.11 0 0 1 293,134.83 v -6 a 0.85,0.85 0 0 1 0.31,-0.71 1.08,1.08 0 0 1 0.72,-0.26 1.06,1.06 0 0 1 0.71,0.25 0.78,0.78 0 0 1 0.29,0.67 v 0.83 a 2.51,2.51 0 0 1 0.83,-1.24 2,2 0 0 1 1.36,-0.52 0.67,0.67 0 0 1 0.57,0.25 0.88,0.88 0 0 1 0.21,0.6 1,1 0 0 1 -0.19,0.6 0.58,0.58 0 0 1 -0.5,0.25 4.13,4.13 0 0 0 -0.84,0.08 2.36,2.36 0 0 0 -0.71,0.27 1.31,1.31 0 0 0 -0.52,0.59 2.29,2.29 0 0 0 -0.19,1 v 3.4 a 1.07,1.07 0 0 1 -0.28,0.8 1,1 0 0 1 -0.74,0.28 1,1 0 0 1 -0.74,-0.32 z"
           style="fill:#263238"
           id="path1493" />
        <path
           d="m 299.53,135.41 a 2,2 0 0 1 -0.79,-1.69 3.1,3.1 0 0 1 0.1,-0.85 2,2 0 0 1 0.28,-0.63 1.57,1.57 0 0 1 0.52,-0.46 4,4 0 0 1 0.7,-0.3 4.62,4.62 0 0 1 0.94,-0.18 c 0.37,0 0.76,-0.07 1.14,-0.08 0.38,-0.01 0.86,0 1.41,0 v -0.62 a 1.48,1.48 0 0 0 -0.36,-1.11 1.45,1.45 0 0 0 -1.07,-0.35 h -0.31 -0.32 l -0.28,0.05 a 1.33,1.33 0 0 0 -0.29,0.07 l -0.26,0.07 -0.26,0.08 -0.22,0.08 -0.21,0.08 -0.18,0.07 a 0.5,0.5 0 0 1 -0.23,0 0.61,0.61 0 0 1 -0.47,-0.23 0.79,0.79 0 0 1 -0.2,-0.54 0.58,0.58 0 0 1 0.35,-0.56 6.89,6.89 0 0 1 3,-0.63 4.61,4.61 0 0 1 1.33,0.17 2.86,2.86 0 0 1 1,0.52 2.22,2.22 0 0 1 0.7,1 3.66,3.66 0 0 1 0.25,1.43 v 4.09 a 1,1 0 0 1 -0.28,0.75 1,1 0 0 1 -0.68,0.26 0.93,0.93 0 0 1 -0.68,-0.26 1,1 0 0 1 -0.29,-0.75 v -0.27 a 2.24,2.24 0 0 1 -0.83,1 2.75,2.75 0 0 1 -1.51,0.38 3.15,3.15 0 0 1 -2,-0.59 z m 3.67,-1.29 a 2.22,2.22 0 0 0 0.62,-1.61 v -0.23 c -0.54,0 -1,0 -1.28,0 -0.28,0 -0.61,0 -0.89,0.09 a 1.52,1.52 0 0 0 -0.63,0.22 1,1 0 0 0 -0.31,0.39 1.35,1.35 0 0 0 -0.12,0.61 1.07,1.07 0 0 0 0.33,0.85 1.24,1.24 0 0 0 0.87,0.3 1.92,1.92 0 0 0 1.41,-0.62 z"
           style="fill:#263238"
           id="path1495" />
        <path
           d="m 308.25,135.64 a 1.18,1.18 0 0 1 -0.27,-0.83 v -9.36 a 1.16,1.16 0 0 1 0.28,-0.83 1,1 0 0 1 0.72,-0.3 1,1 0 0 1 0.74,0.3 1.16,1.16 0 0 1 0.29,0.83 v 9.36 a 1.13,1.13 0 0 1 -0.3,0.83 1,1 0 0 1 -0.74,0.29 0.94,0.94 0 0 1 -0.72,-0.29 z"
           style="fill:#263238"
           id="path1497" />
        <path
           d="m 319.74,135.61 a 1.17,1.17 0 0 1 -0.35,-0.88 v -8.59 h -2.62 a 0.85,0.85 0 0 1 -0.66,-0.27 0.93,0.93 0 0 1 -0.24,-0.64 1,1 0 0 1 0.25,-0.65 0.83,0.83 0 0 1 0.65,-0.27 h 7.56 a 0.84,0.84 0 0 1 0.64,0.27 1,1 0 0 1 0.24,0.65 0.94,0.94 0 0 1 -0.24,0.64 0.82,0.82 0 0 1 -0.64,0.27 h -2.62 v 8.59 a 1.17,1.17 0 0 1 -0.35,0.88 1.12,1.12 0 0 1 -0.81,0.33 1.1,1.1 0 0 1 -0.81,-0.33 z"
           style="fill:#263238"
           id="path1499" />
        <path
           d="m 326.5,129.79 a 3.7,3.7 0 0 1 1.38,-1.48 4,4 0 0 1 2.13,-0.56 4.1,4.1 0 0 1 1.66,0.31 2.83,2.83 0 0 1 1.16,0.86 4.07,4.07 0 0 1 0.67,1.23 5,5 0 0 1 0.23,1.48 0.81,0.81 0 0 1 -0.15,0.51 0.49,0.49 0 0 1 -0.43,0.19 h -5.09 a 2.1,2.1 0 0 0 2.33,2.27 3.75,3.75 0 0 0 2.13,-0.81 0.53,0.53 0 0 1 0.31,-0.11 0.58,0.58 0 0 1 0.45,0.22 0.75,0.75 0 0 1 0.19,0.51 0.68,0.68 0 0 1 -0.26,0.55 4.5,4.5 0 0 1 -3,1.07 4.23,4.23 0 0 1 -3.06,-1.11 4.14,4.14 0 0 1 -1.15,-3.1 4.43,4.43 0 0 1 0.5,-2.03 z m 5.5,1.41 a 2.72,2.72 0 0 0 -0.53,-1.53 1.93,1.93 0 0 0 -2.81,0 2.64,2.64 0 0 0 -0.59,1.5 z"
           style="fill:#263238"
           id="path1501" />
        <path
           d="m 335.6,135.65 a 1.1,1.1 0 0 1 -0.28,-0.82 v -6 a 0.87,0.87 0 0 1 0.3,-0.71 1.08,1.08 0 0 1 0.72,-0.26 1.06,1.06 0 0 1 0.71,0.25 0.79,0.79 0 0 1 0.3,0.67 v 0.83 a 2.58,2.58 0 0 1 0.83,-1.24 2,2 0 0 1 1.37,-0.52 0.7,0.7 0 0 1 0.57,0.25 0.92,0.92 0 0 1 0.2,0.6 1,1 0 0 1 -0.19,0.6 0.58,0.58 0 0 1 -0.5,0.25 4.28,4.28 0 0 0 -0.84,0.08 2.31,2.31 0 0 0 -0.7,0.27 1.33,1.33 0 0 0 -0.53,0.59 2.3,2.3 0 0 0 -0.18,1 v 3.4 a 1.07,1.07 0 0 1 -0.29,0.8 1,1 0 0 1 -0.74,0.28 1,1 0 0 1 -0.75,-0.32 z"
           style="fill:#263238"
           id="path1503" />
        <path
           d="m 341.84,135.64 a 1.15,1.15 0 0 1 -0.28,-0.82 v -5.89 a 1.13,1.13 0 0 1 0.28,-0.8 1,1 0 0 1 0.74,-0.28 1.08,1.08 0 0 1 0.72,0.26 0.89,0.89 0 0 1 0.29,0.7 v 0.4 a 2.67,2.67 0 0 1 2.59,-1.46 2.85,2.85 0 0 1 1.69,0.47 2.33,2.33 0 0 1 0.94,1.29 2.82,2.82 0 0 1 2.84,-1.76 2.94,2.94 0 0 1 2.13,0.77 3,3 0 0 1 0.8,2.29 v 4 a 1.1,1.1 0 0 1 -0.28,0.82 1,1 0 0 1 -0.74,0.29 0.94,0.94 0 0 1 -0.72,-0.29 1.15,1.15 0 0 1 -0.28,-0.82 v -4 a 1.82,1.82 0 0 0 -0.4,-1.28 1.44,1.44 0 0 0 -1.11,-0.43 1.79,1.79 0 0 0 -1.42,0.63 2.5,2.5 0 0 0 -0.55,1.73 v 3.34 a 1.18,1.18 0 0 1 -0.28,0.82 1,1 0 0 1 -0.74,0.29 0.94,0.94 0 0 1 -0.72,-0.29 1.13,1.13 0 0 1 -0.28,-0.82 v -3.95 a 1.88,1.88 0 0 0 -0.4,-1.31 1.45,1.45 0 0 0 -1.12,-0.44 1.83,1.83 0 0 0 -1.42,0.58 2.25,2.25 0 0 0 -0.53,1.58 v 3.54 a 1.11,1.11 0 0 1 -0.29,0.82 1,1 0 0 1 -0.75,0.29 0.94,0.94 0 0 1 -0.71,-0.27 z"
           style="fill:#263238"
           id="path1505" />
        <path
           d="m 356.4,134.58 a 0.69,0.69 0 0 1 0.18,-0.47 0.6,0.6 0 0 1 0.46,-0.2 0.84,0.84 0 0 1 0.42,0.12 l 0.57,0.31 a 4.28,4.28 0 0 0 0.69,0.24 3.68,3.68 0 0 0 1.78,0 1.38,1.38 0 0 0 0.63,-0.34 0.82,0.82 0 0 0 0.26,-0.63 c 0,-0.46 -0.37,-0.78 -1.12,-1 l -1.25,-0.33 q -0.57,-0.15 -0.93,-0.27 a 4.47,4.47 0 0 1 -0.72,-0.31 1.93,1.93 0 0 1 -0.55,-0.42 1.73,1.73 0 0 1 -0.32,-0.57 2.45,2.45 0 0 1 -0.12,-0.8 1.93,1.93 0 0 1 0.89,-1.7 4.17,4.17 0 0 1 2.33,-0.59 6,6 0 0 1 2.64,0.6 0.68,0.68 0 0 1 0.43,0.65 0.63,0.63 0 0 1 -0.16,0.44 0.57,0.57 0 0 1 -0.44,0.18 0.76,0.76 0 0 1 -0.31,-0.07 l -0.18,-0.06 -0.24,-0.09 -0.25,-0.08 a 1.85,1.85 0 0 0 -0.32,-0.08 l -0.32,-0.07 -0.37,-0.05 h -0.36 a 2.41,2.41 0 0 0 -1.06,0.21 0.67,0.67 0 0 0 -0.43,0.63 0.68,0.68 0 0 0 0.23,0.56 2.65,2.65 0 0 0 0.91,0.33 l 1.24,0.32 a 4.26,4.26 0 0 1 1.9,0.88 2,2 0 0 1 0.6,1.54 2.16,2.16 0 0 1 -0.91,1.88 3.89,3.89 0 0 1 -2.35,0.66 5.22,5.22 0 0 1 -3.16,-0.94 0.62,0.62 0 0 1 -0.29,-0.48 z"
           style="fill:#263238"
           id="path1507" />
      </g>
      <g
         id="freepik--Character--inject-3"
         transform="translate(72.969932)">
        <path
           d="m 234.37,247.67 c 0.28,-0.55 2.09,1.29 2.09,1.29 1.47,1.47 12.45,12.45 14.42,12.45 1.97,0 37.32,11.82 37.32,11.82 l 27.95,-7.6 c 2.45,6.37 -5.89,18.37 -5.89,18.37 0,0 -21.82,1.72 -26,0 -4.18,-1.72 -34.57,-18.63 -34.57,-18.63 0,0 -3.69,0.05 -5.65,-0.94 a 9.84,9.84 0 0 1 -3.67,-2.74 c -0.49,-0.74 -0.73,-0.74 -2.45,-2.21 a 1.52,1.52 0 0 1 -0.29,-2.42 l 1,0.09 -3,-4.79 a 8.64,8.64 0 0 1 -1.11,-1.67 c -0.44,-1 0.26,-1.28 0.26,-1.28 0,0 -0.69,-1.18 -0.41,-1.74 z"
           style="fill:#ffffff"
           id="path1510" />
        <g
           clip-path="url(#freepik--clip-path-2--inject-3)"
           id="g1514">
          <path
             d="m 234.37,247.67 c 0.28,-0.55 2.09,1.29 2.09,1.29 1.47,1.47 12.45,12.45 14.42,12.45 1.97,0 37.32,11.82 37.32,11.82 l 27.95,-7.6 c 2.45,6.37 -5.89,18.37 -5.89,18.37 0,0 -21.82,1.72 -26,0 -4.18,-1.72 -34.57,-18.63 -34.57,-18.63 0,0 -3.69,0.05 -5.65,-0.94 a 9.84,9.84 0 0 1 -3.67,-2.74 c -0.49,-0.74 -0.73,-0.74 -2.45,-2.21 a 1.52,1.52 0 0 1 -0.29,-2.42 l 1,0.09 -3,-4.79 a 8.64,8.64 0 0 1 -1.11,-1.67 c -0.44,-1 0.26,-1.28 0.26,-1.28 0,0 -0.69,-1.18 -0.41,-1.74 z"
             style="opacity:0.15"
             id="path1512" />
        </g>
        <path
           d="m 234.37,247.67 c 0.28,-0.55 2.09,1.29 2.09,1.29 1.47,1.47 12.45,12.45 14.42,12.45 1.97,0 37.32,11.82 37.32,11.82 l 27.95,-7.6 c 2.45,6.37 -5.89,18.37 -5.89,18.37 0,0 -21.82,1.72 -26,0 -4.18,-1.72 -34.57,-18.63 -34.57,-18.63 0,0 -3.69,0.05 -5.65,-0.94 a 9.84,9.84 0 0 1 -3.67,-2.74 c -0.49,-0.74 -0.73,-0.74 -2.45,-2.21 a 1.52,1.52 0 0 1 -0.29,-2.42 l 1,0.09 -3,-4.79 a 8.64,8.64 0 0 1 -1.11,-1.67 c -0.44,-1 0.26,-1.28 0.26,-1.28 0,0 -0.69,-1.18 -0.41,-1.74 z"
           style="fill:none;stroke:#263238;stroke-linecap:round;stroke-linejoin:round"
           id="path1516" />
        <path
           d="m 237.93,259.5 a 1.52,1.52 0 0 1 -0.29,-2.42 l 1,0.09 -3,-4.79 a 8.64,8.64 0 0 1 -1.11,-1.67 c -0.44,-1 0.26,-1.28 0.26,-1.28 0,0 -0.65,-1.2 -0.37,-1.76 0.28,-0.56 2.09,1.29 2.09,1.29 1.47,1.47 12.45,12.45 14.42,12.45 1.97,0 37.32,11.82 37.32,11.82 l 13.68,-3.72 a 121.31,121.31 0 0 0 10.65,10.82 c -1.23,2.2 -2.27,3.69 -2.27,3.69 0,0 -21.82,1.72 -26,0 -4.18,-1.72 -34.57,-18.63 -34.57,-18.63 0,0 -3.69,0.05 -5.65,-0.94 a 9.84,9.84 0 0 1 -3.67,-2.74 C 239.89,261 239.65,261 237.93,259.5 Z"
           style="fill:#be185d;stroke:#263238;stroke-linecap:round;stroke-linejoin:round"
           id="path1518" />
        <path
           d="m 235.87,248.44 a 25.89,25.89 0 0 1 5.4,3.38 44.29,44.29 0 0 1 4,5.49 c 0,0 -8.57,-7.22 -9.4,-8.87 z"
           style="fill:#ffffff"
           id="path1520" />
        <g
           clip-path="url(#freepik--clip-path-3--inject-3)"
           id="g1524">
          <path
             d="m 235.87,248.44 a 25.89,25.89 0 0 1 5.4,3.38 44.29,44.29 0 0 1 4,5.49 c 0,0 -8.57,-7.22 -9.4,-8.87 z"
             style="opacity:0.15"
             id="path1522" />
        </g>
        <path
           d="m 235.87,248.44 a 25.89,25.89 0 0 1 5.4,3.38 44.29,44.29 0 0 1 4,5.49 c 0,0 -8.57,-7.22 -9.4,-8.87 z"
           style="fill:none;stroke:#263238;stroke-linecap:round;stroke-linejoin:round"
           id="path1526" />
        <path
           d="m 234.48,250.71 c -0.44,-1 0.26,-1.28 0.26,-1.28 0,0 -0.65,-1.2 -0.37,-1.76 0.28,-0.56 2.09,1.29 2.09,1.29 1.47,1.47 12.45,12.45 14.42,12.45 1,0 10.38,3 19.5,5.95 l -3.53,7.48 c -8.64,-4.71 -17.15,-9.45 -17.15,-9.45 0,0 -3.69,0.05 -5.65,-0.94 a 9.84,9.84 0 0 1 -3.67,-2.74 c -0.49,-0.74 -0.73,-0.74 -2.45,-2.21 a 1.52,1.52 0 0 1 -0.29,-2.42 l 1,0.09 -3,-4.79 a 8.64,8.64 0 0 1 -1.16,-1.67 z"
           style="fill:#ffffff"
           id="path1528" />
        <g
           clip-path="url(#freepik--clip-path-4--inject-3)"
           id="g1536">
          <path
             d="m 234.48,250.71 c -0.44,-1 0.26,-1.28 0.26,-1.28 0,0 -0.65,-1.2 -0.37,-1.76 0.28,-0.56 2.09,1.29 2.09,1.29 1.47,1.47 12.45,12.45 14.42,12.45 1,0 10.38,3 19.5,5.95 l -3.53,7.48 c -8.64,-4.71 -17.15,-9.45 -17.15,-9.45 0,0 -3.69,0.05 -5.65,-0.94 a 9.84,9.84 0 0 1 -3.67,-2.74 c -0.49,-0.74 -0.73,-0.74 -2.45,-2.21 a 1.52,1.52 0 0 1 -0.29,-2.42 l 1,0.09 -3,-4.79 a 8.64,8.64 0 0 1 -1.16,-1.67 z"
             style="opacity:0.15"
             id="path1530" />
          <path
             d="m 237.93,256.81 c 0,0 2.8,1.74 5.2,3.13"
             style="fill:none;stroke:#263238;stroke-linecap:round;stroke-linejoin:round"
             id="path1532" />
          <path
             d="m 234.74,249.43 a 6.84,6.84 0 0 1 2.32,2.21 30.68,30.68 0 0 0 4.87,5.25"
             style="fill:none;stroke:#263238;stroke-linecap:round;stroke-linejoin:round"
             id="path1534" />
        </g>
        <path
           d="m 234.48,250.71 c -0.44,-1 0.26,-1.28 0.26,-1.28 0,0 -0.65,-1.2 -0.37,-1.76 0.28,-0.56 2.09,1.29 2.09,1.29 1.47,1.47 12.45,12.45 14.42,12.45 1,0 10.38,3 19.5,5.95 l -3.53,7.48 c -8.64,-4.71 -17.15,-9.45 -17.15,-9.45 0,0 -3.69,0.05 -5.65,-0.94 a 9.84,9.84 0 0 1 -3.67,-2.74 c -0.49,-0.74 -0.73,-0.74 -2.45,-2.21 a 1.52,1.52 0 0 1 -0.29,-2.42 l 1,0.09 -3,-4.79 a 8.64,8.64 0 0 1 -1.16,-1.67 z"
           style="fill:none;stroke:#263238;stroke-linecap:round;stroke-linejoin:round"
           id="path1538" />
        <path
           d="m 331.33,227.79 a 28.53,28.53 0 0 1 2.7,-8.49 c 2.15,-4.18 8.62,-5.12 9.3,-4.31 0.68,0.81 0.81,1.08 3.37,0.67 2.56,-0.41 8.76,1.35 7.55,2.56 -1.21,1.21 -0.41,1.62 2.56,2.7 2.97,1.08 2.83,4.18 0.94,5.26 -1.89,1.08 -1.08,1.88 0.4,3.64 1.48,1.76 1,3.5 -0.4,3.63 -1.4,0.13 -2.29,-0.53 -0.94,1.76 1.35,2.29 0.81,4.71 -1.22,5 -2.03,0.29 -1.61,1.22 -1.61,3.1 0,1.88 -1.35,3 -2.43,2.7 -1.08,-0.3 -2.16,0.4 -2.7,1.89 -0.54,1.49 -2.15,1.35 -3.23,0.67 -1.08,-0.68 -1.89,-0.27 -2.16,0.54 -0.27,0.81 -0.54,1.35 -2.56,0.27 -2.02,-1.08 -2.69,-2.83 -3.77,-1.62 a 1.74,1.74 0 0 1 -3,-1.21 18.91,18.91 0 0 0 -1.35,-5.66 c -0.78,-1.77 -2.53,-8.78 -1.45,-13.1 z"
           style="fill:#263238;stroke:#263238;stroke-linecap:round;stroke-linejoin:round"
           id="path1540" />
        <path
           d="m 341.9,317.37 c 0,0 8.82,6.38 10.05,12.26 1.23,5.88 3.43,15.94 3.68,17.16 0.25,1.22 10.54,35.56 10.79,36.78 0.25,1.22 9.58,8.83 9.31,16.43 -0.27,7.6 4.42,42.91 4.66,45.12 0.24,2.21 -2,3.43 -4.17,4.66 -2.17,1.23 -6.63,5.77 -11.77,2.94 -4,-2.18 9.32,-10.05 9.32,-14 0,-3.95 -13,-39.47 -16.67,-46.83 -3.67,-7.36 -12.51,-24.74 -15.2,-28.89 a 60.78,60.78 0 0 1 -4.66,-9.07 c 0,0 -0.74,16.18 1.22,24.52 1.96,8.34 3.68,21.57 1,34.57 -2.68,13 -3.43,25.74 -2.69,29.91 0.74,4.17 -0.49,4.42 -2.95,5.15 -2.46,0.73 -7.13,-0.15 -10.07,1.11 -2.94,1.26 -8.87,1 -9.28,-1 -0.41,-2 9.55,-6 12.73,-8.43 3.18,-2.43 2.21,-6.62 2.95,-16.68 0.74,-10.06 -5.4,-35.8 -6.38,-41.44 -0.98,-5.64 -6.87,-26.48 -6.87,-38.25 0,-11.77 0.74,-16.67 0.74,-16.67 0,0 3.43,-3.43 10.79,-6.62 a 31.08,31.08 0 0 1 13.47,-2.73 z"
           style="fill:#ffffff"
           id="path1542" />
        <g
           clip-path="url(#freepik--clip-path-5--inject-3)"
           id="g1546">
          <path
             d="m 341.9,317.37 c 0,0 8.82,6.38 10.05,12.26 1.23,5.88 3.43,15.94 3.68,17.16 0.25,1.22 10.54,35.56 10.79,36.78 0.25,1.22 9.58,8.83 9.31,16.43 -0.27,7.6 4.42,42.91 4.66,45.12 0.24,2.21 -2,3.43 -4.17,4.66 -2.17,1.23 -6.63,5.77 -11.77,2.94 -4,-2.18 9.32,-10.05 9.32,-14 0,-3.95 -13,-39.47 -16.67,-46.83 -3.67,-7.36 -12.51,-24.74 -15.2,-28.89 a 60.78,60.78 0 0 1 -4.66,-9.07 c 0,0 -0.74,16.18 1.22,24.52 1.96,8.34 3.68,21.57 1,34.57 -2.68,13 -3.43,25.74 -2.69,29.91 0.74,4.17 -0.49,4.42 -2.95,5.15 -2.46,0.73 -7.13,-0.15 -10.07,1.11 -2.94,1.26 -8.87,1 -9.28,-1 -0.41,-2 9.55,-6 12.73,-8.43 3.18,-2.43 2.21,-6.62 2.95,-16.68 0.74,-10.06 -5.4,-35.8 -6.38,-41.44 -0.98,-5.64 -6.87,-26.48 -6.87,-38.25 0,-11.77 0.74,-16.67 0.74,-16.67 0,0 3.43,-3.43 10.79,-6.62 a 31.08,31.08 0 0 1 13.47,-2.73 z"
             style="opacity:0.15"
             id="path1544" />
        </g>
        <path
           d="m 341.9,317.37 c 0,0 8.82,6.38 10.05,12.26 1.23,5.88 3.43,15.94 3.68,17.16 0.25,1.22 10.54,35.56 10.79,36.78 0.25,1.22 9.58,8.83 9.31,16.43 -0.27,7.6 4.42,42.91 4.66,45.12 0.24,2.21 -2,3.43 -4.17,4.66 -2.17,1.23 -6.63,5.77 -11.77,2.94 -4,-2.18 9.32,-10.05 9.32,-14 0,-3.95 -13,-39.47 -16.67,-46.83 -3.67,-7.36 -12.51,-24.74 -15.2,-28.89 a 60.78,60.78 0 0 1 -4.66,-9.07 c 0,0 -0.74,16.18 1.22,24.52 1.96,8.34 3.68,21.57 1,34.57 -2.68,13 -3.43,25.74 -2.69,29.91 0.74,4.17 -0.49,4.42 -2.95,5.15 -2.46,0.73 -7.13,-0.15 -10.07,1.11 -2.94,1.26 -8.87,1 -9.28,-1 -0.41,-2 9.55,-6 12.73,-8.43 3.18,-2.43 2.21,-6.62 2.95,-16.68 0.74,-10.06 -5.4,-35.8 -6.38,-41.44 -0.98,-5.64 -6.87,-26.48 -6.87,-38.25 0,-11.77 0.74,-16.67 0.74,-16.67 0,0 3.43,-3.43 10.79,-6.62 a 31.08,31.08 0 0 1 13.47,-2.73 z"
           style="fill:none;stroke:#263238;stroke-linecap:round;stroke-linejoin:round"
           id="path1548" />
        <path
           d="m 329.92,416.29 c -1.1,-11.92 -5.37,-30.05 -6.17,-34.68 -1,-5.64 -6.87,-26.48 -6.87,-38.25 0,-11.77 0.74,-16.67 0.74,-16.67 0,0 3.43,-3.43 10.79,-6.62 a 31.08,31.08 0 0 1 13.49,-2.7 c 0,0 8.82,6.38 10.05,12.26 1.23,5.88 3.43,15.94 3.68,17.16 0.25,1.22 10.54,35.56 10.79,36.78 0.25,1.22 9.58,8.83 9.31,16.43 -0.08,2.48 0.37,7.92 1,14.19 a 28.91,28.91 0 0 1 -9.64,3.21 c -3.78,-10.53 -8.12,-21.72 -10,-25.49 -3.68,-7.35 -12.51,-24.76 -15.2,-28.93 a 60.78,60.78 0 0 1 -4.66,-9.07 c 0,0 -0.74,16.18 1.22,24.52 1.96,8.34 3.68,21.57 1,34.57 -0.21,1 -0.4,2 -0.59,3 -1.56,0.57 -4.31,1 -8.94,0.29 z"
           style="fill:#263238;stroke:#263238;stroke-linecap:round;stroke-linejoin:round"
           id="path1550" />
        <line
           x1="337.23999"
           y1="353.91"
           x2="329.64001"
           y2="343.35999"
           style="fill:none;stroke:#ffffff;stroke-linecap:round;stroke-linejoin:round"
           id="line1552" />
        <path
           d="m 343.61,314.92 1.23,3.68 c 0,0 -10.64,10.72 -20,11.94 -9.36,1.22 -9,0.32 -9,-2.14 0,-2.46 8.59,-5.88 16.19,-9.8 7.6,-3.92 9.37,-4.42 11.58,-3.68 z"
           style="fill:#be185d;stroke:#263238;stroke-linecap:round;stroke-linejoin:round"
           id="path1554" />
        <path
           d="m 303.56,236.56 c 0,-1.88 -1.73,-8.55 3.07,-12.93 4.8,-4.38 13.24,-3.39 13.24,-3.39 10,0.68 15.91,12.14 13.89,20.22 -2.02,8.08 -7.82,9 -9.84,11.6 -1.1,1.38 -0.34,5 0.59,8 8.6,0.39 7.95,7.22 9.54,12 2,5.88 4.66,24.52 5.39,28.69 0.73,4.17 6.13,11.28 6.13,13.73 0,2.45 -10.79,6.37 -20.1,11 -9.31,4.63 -9.17,4.89 -10.89,2.43 C 312.86,325.45 311,300.94 311,298 c 0,-2.94 -8.83,-10.3 -6.87,-14.47 1.58,-3.36 8.73,-15.94 11.45,-20.7 l -0.15,-0.53 a 72.64,72.64 0 0 0 -3.91,-8.76 c 0,0 -5.13,0.27 -6.61,0.13 -1.48,-0.14 -2.29,-0.54 -2.56,-1.88 a 6.77,6.77 0 0 1 0.4,-3.1 c 0,0 -0.53,0.13 -0.8,-0.68 -0.27,-0.81 0.67,-1.48 0.67,-1.48 -0.67,-0.27 -0.68,-1.6 -0.68,-1.6 l 1.25,-1.26 c 0,0 -2.19,-0.62 -2.4,-2.29 -0.21,-1.67 2.77,-2.95 2.77,-4.82 z"
           style="fill:#ffffff"
           id="path1556" />
        <g
           clip-path="url(#freepik--clip-path-6--inject-3)"
           id="g1560">
          <path
             d="m 303.56,236.56 c 0,-1.88 -1.73,-8.55 3.07,-12.93 4.8,-4.38 13.24,-3.39 13.24,-3.39 10,0.68 15.91,12.14 13.89,20.22 -2.02,8.08 -7.82,9 -9.84,11.6 -1.1,1.38 -0.34,5 0.59,8 8.6,0.39 7.95,7.22 9.54,12 2,5.88 4.66,24.52 5.39,28.69 0.73,4.17 6.13,11.28 6.13,13.73 0,2.45 -10.79,6.37 -20.1,11 -9.31,4.63 -12.26,3.93 -14,1.47 -1.74,-2.46 -0.49,-26 -0.49,-28.93 0,-2.93 -8.83,-10.3 -6.87,-14.47 1.58,-3.36 8.73,-15.94 11.45,-20.7 l -0.15,-0.53 a 72.64,72.64 0 0 0 -3.91,-8.76 c 0,0 -5.13,0.27 -6.61,0.13 -1.48,-0.14 -2.29,-0.54 -2.56,-1.88 a 6.77,6.77 0 0 1 0.4,-3.1 c 0,0 -0.53,0.13 -0.8,-0.68 -0.27,-0.81 0.67,-1.48 0.67,-1.48 -0.67,-0.27 -0.68,-1.6 -0.68,-1.6 l 1.25,-1.26 c 0,0 -2.19,-0.62 -2.4,-2.29 -0.21,-1.67 2.79,-2.97 2.79,-4.84 z"
             style="opacity:0.15"
             id="path1558" />
        </g>
        <path
           d="m 303.56,236.56 c 0,-1.88 -1.73,-8.55 3.07,-12.93 4.8,-4.38 13.24,-3.39 13.24,-3.39 10,0.68 15.91,12.14 13.89,20.22 -2.02,8.08 -7.82,9 -9.84,11.6 -1.1,1.38 -0.34,5 0.59,8 8.6,0.39 7.95,7.22 9.54,12 2,5.88 4.66,24.52 5.39,28.69 0.73,4.17 6.13,11.28 6.13,13.73 0,2.45 -10.79,6.37 -20.1,11 -9.31,4.63 -9.17,4.89 -10.89,2.43 C 312.86,325.45 311,300.94 311,298 c 0,-2.94 -8.83,-10.3 -6.87,-14.47 1.58,-3.36 8.73,-15.94 11.45,-20.7 l -0.15,-0.53 a 72.64,72.64 0 0 0 -3.91,-8.76 c 0,0 -5.13,0.27 -6.61,0.13 -1.48,-0.14 -2.29,-0.54 -2.56,-1.88 a 6.77,6.77 0 0 1 0.4,-3.1 c 0,0 -0.53,0.13 -0.8,-0.68 -0.27,-0.81 0.67,-1.48 0.67,-1.48 -0.67,-0.27 -0.68,-1.6 -0.68,-1.6 l 1.25,-1.26 c 0,0 -2.19,-0.62 -2.4,-2.29 -0.21,-1.67 2.77,-2.95 2.77,-4.82 z"
           style="fill:none;stroke:#263238;stroke-linecap:round;stroke-linejoin:round"
           id="path1562" />
        <path
           d="m 306,237 c -0.14,0.69 0,1.31 0.34,1.38 0.34,0.07 0.71,-0.44 0.85,-1.14 0.14,-0.7 0,-1.31 -0.34,-1.37 -0.34,-0.06 -0.71,0.48 -0.85,1.13 z"
           style="fill:#263238"
           id="path1564" />
        <path
           d="m 308.82,234.53 c 0,0 -0.4,-2.15 -3.1,-1.61"
           style="fill:none;stroke:#263238;stroke-linecap:round;stroke-linejoin:round"
           id="path1566" />
        <path
           d="m 302.62,246.53 c 0,0 1.75,0.54 2.29,-0.27"
           style="fill:none;stroke:#263238;stroke-linecap:round;stroke-linejoin:round"
           id="path1568" />
        <path
           d="m 304.13,283.53 c 0.64,-1.36 2.2,-4.23 4,-7.48 l 0.66,0.37 a 36.25,36.25 0 0 0 27.21,3.73 c 1.5,7.74 3,17.65 3.47,20.55 0.74,4.17 6.13,11.28 6.13,13.73 0,2.45 -5.8,7.07 -15.12,11.72 -9.32,4.65 -14.15,4.2 -15.87,1.74 C 312.89,325.43 311,300.94 311,298 c 0,-2.94 -8.83,-10.3 -6.87,-14.47 z"
           style="fill:#be185d;stroke:#263238;stroke-linecap:round;stroke-linejoin:round"
           id="path1570" />
        <path
           d="m 332.33,284.51 c 0,0 -8.58,-0.24 -12.5,-1.47"
           style="fill:none;stroke:#263238;stroke-linecap:round;stroke-linejoin:round"
           id="path1572" />
        <path
           d="m 335.52,286.72 c 0,0 -7.72,1.23 -9.93,0.74"
           style="fill:none;stroke:#263238;stroke-linecap:round;stroke-linejoin:round"
           id="path1574" />
        <path
           d="m 313.36,220.55 a 24.14,24.14 0 0 1 6.51,-0.31 c 10,0.68 15.91,12.14 13.89,20.22 -1.73,6.92 -6.22,8.61 -8.75,10.56 -2,-0.82 -4.19,-2 -4.87,-3.41 a 19.08,19.08 0 0 1 -1.61,-4.45 c 0,0 -1.35,0.94 -1.76,-1.35 -0.41,-2.29 -2.88,-3.62 -4.3,-6.45 -1.42,-2.83 0.54,-5.92 2.37,-8.35 1.41,-1.89 2.56,-5.33 -1.48,-6.46 z"
           style="fill:#263238;stroke:#263238;stroke-linecap:round;stroke-linejoin:round"
           id="path1576" />
        <path
           d="m 314.66,219.06 a 7.09,7.09 0 0 0 -7.34,-0.76 c -4.67,2.12 2.12,5.09 4.67,9.12 2.55,4.03 3.82,10.19 5.09,6.58 1.27,-3.61 2.07,-7.73 0.45,-11.31 a 9.06,9.06 0 0 0 -2.87,-3.63 z"
           style="fill:#263238;stroke:#263238;stroke-linecap:round;stroke-linejoin:round"
           id="path1578" />
        <path
           d="m 316.25,242.45 c 0,0 3.1,-5.19 6.21,-3.58 3.11,1.61 -0.74,6.84 -3.11,8.15 -2.37,1.31 -3.25,-2 -3.25,-2"
           style="fill:#ffffff"
           id="path1580" />
        <g
           clip-path="url(#freepik--clip-path-7--inject-3)"
           id="g1584">
          <path
             d="m 316.25,242.45 c 0,0 3.1,-5.19 6.21,-3.58 3.11,1.61 -0.74,6.84 -3.11,8.15 -2.37,1.31 -3.25,-2 -3.25,-2"
             style="opacity:0.15"
             id="path1582" />
        </g>
        <path
           d="m 316.25,242.45 c 0,0 3.1,-5.19 6.21,-3.58 3.11,1.61 -0.74,6.84 -3.11,8.15 -2.37,1.31 -3.25,-2 -3.25,-2"
           style="fill:none;stroke:#263238;stroke-linecap:round;stroke-linejoin:round"
           id="path1586" />
        <path
           d="m 317.62,270.05 c 0,0 5.39,-8.58 11.77,-6.13 6.38,2.45 27.22,29.18 27.95,33.34 0.73,4.16 6.38,38.26 6.38,38.26 0,0 1.22,3.67 0,6.62 -1.22,2.95 -1.23,4.16 0,6.62 1.23,2.46 1,3.43 -1,2 -2,-1.43 -2.21,-2 -4.42,-6.38 -2.21,-4.38 1.47,-10.79 1.47,-10.79 0,0 -12.5,-28.68 -13,-31.38 a 15.21,15.21 0 0 0 -1.47,-4.42 c 0,0 -22.56,-18.63 -24.77,-22.06"
           style="fill:#ffffff"
           id="path1588" />
        <g
           clip-path="url(#freepik--clip-path-8--inject-3)"
           id="g1592">
          <path
             d="m 317.62,270.05 c 0,0 5.39,-8.58 11.77,-6.13 6.38,2.45 27.22,29.18 27.95,33.34 0.73,4.16 6.38,38.26 6.38,38.26 0,0 1.22,3.67 0,6.62 -1.22,2.95 -1.23,4.16 0,6.62 1.23,2.46 1,3.43 -1,2 -2,-1.43 -2.21,-2 -4.42,-6.38 -2.21,-4.38 1.47,-10.79 1.47,-10.79 0,0 -12.5,-28.68 -13,-31.38 a 15.21,15.21 0 0 0 -1.47,-4.42 c 0,0 -22.56,-18.63 -24.77,-22.06"
             style="opacity:0.15"
             id="path1590" />
        </g>
        <path
           d="m 317.62,270.05 c 0,0 5.39,-8.58 11.77,-6.13 6.38,2.45 27.22,29.18 27.95,33.34 0.73,4.16 6.38,38.26 6.38,38.26 0,0 1.22,3.67 0,6.62 -1.22,2.95 -1.23,4.16 0,6.62 1.23,2.46 1,3.43 -1,2 -2,-1.43 -2.21,-2 -4.42,-6.38 -2.21,-4.38 1.47,-10.79 1.47,-10.79 0,0 -12.5,-28.68 -13,-31.38 a 15.21,15.21 0 0 0 -1.47,-4.42 c 0,0 -22.56,-18.63 -24.77,-22.06"
           style="fill:none;stroke:#263238;stroke-linecap:round;stroke-linejoin:round"
           id="path1594" />
        <path
           d="m 343.26,277.26 c 6.95,8.26 13.67,17.67 14.08,20 0.74,4.17 6.38,38.26 6.38,38.26 0,0 1.22,3.67 0,6.62 -1.22,2.95 -1.23,4.16 0,6.62 1.23,2.46 1,3.43 -1,2 -2,-1.43 -2.21,-2 -4.42,-6.38 -2.21,-4.38 1.47,-10.79 1.47,-10.79 0,0 -12.5,-28.68 -13,-31.38 a 15.21,15.21 0 0 0 -1.47,-4.42 c 0,0 -11.85,-9.78 -19.21,-16.48 a 39.27,39.27 0 0 0 17.17,-4.05 z"
           style="fill:#be185d;stroke:#263238;stroke-linecap:round;stroke-linejoin:round"
           id="path1596" />
        <path
           d="m 357.89,300.49 c 1.62,9.62 5.83,35 5.83,35 0,0 1.22,3.67 0,6.62 -1.22,2.95 -1.23,4.16 0,6.62 1.23,2.46 1,3.43 -1,2 -2,-1.43 -2.21,-2 -4.42,-6.38 -2.21,-4.38 1.47,-10.79 1.47,-10.79 0,0 -11.41,-26.18 -12.86,-30.87 z"
           style="fill:#ffffff"
           id="path1598" />
        <g
           clip-path="url(#freepik--clip-path-9--inject-3)"
           id="g1602">
          <path
             d="m 357.89,300.49 c 1.62,9.62 5.83,35 5.83,35 0,0 1.22,3.67 0,6.62 -1.22,2.95 -1.23,4.16 0,6.62 1.23,2.46 1,3.43 -1,2 -2,-1.43 -2.21,-2 -4.42,-6.38 -2.21,-4.38 1.47,-10.79 1.47,-10.79 0,0 -11.41,-26.18 -12.86,-30.87 z"
             style="opacity:0.15"
             id="path1600" />
        </g>
        <path
           d="m 357.89,300.49 c 1.62,9.62 5.83,35 5.83,35 0,0 1.22,3.67 0,6.62 -1.22,2.95 -1.23,4.16 0,6.62 1.23,2.46 1,3.43 -1,2 -2,-1.43 -2.21,-2 -4.42,-6.38 -2.21,-4.38 1.47,-10.79 1.47,-10.79 0,0 -11.41,-26.18 -12.86,-30.87 z"
           style="fill:none;stroke:#263238;stroke-linecap:round;stroke-linejoin:round"
           id="path1604" />
        <path
           d="m 373.66,439.39 a 2.18,2.18 0 0 1 1.53,1 8.62,8.62 0 0 1 1.33,2.95 l 3.28,-2.95 c 0.32,2.57 0.54,4.32 0.59,4.76 0.25,2.21 -2,3.43 -4.17,4.66 -2.17,1.23 -6.63,5.77 -11.77,2.94 -3.75,-2.1 7.99,-9.28 9.21,-13.36 z"
           style="fill:#be185d;stroke:#263238;stroke-linecap:round;stroke-linejoin:round"
           id="path1606" />
        <path
           d="m 327.18,439.73 a 6,6 0 0 0 0.73,-0.69 3.75,3.75 0 0 1 1.56,1 5,5 0 0 1 0.74,1.62 l 0.15,1.18 a 14.44,14.44 0 0 0 6.31,-0.43 c 0,0.17 0.05,0.33 0.08,0.47 0.73,4.17 -0.49,4.42 -2.95,5.15 -2.46,0.73 -7.13,-0.15 -10.07,1.11 -2.94,1.26 -8.87,1 -9.28,-1 -0.41,-2 9.55,-5.96 12.73,-8.41 z"
           style="fill:#be185d;stroke:#263238;stroke-linecap:round;stroke-linejoin:round"
           id="path1608" />
      </g>
    </g>
  </g>
</svg>
