<?xml version="1.0" encoding="UTF-8" standalone="no"?>
<svg
   xmlns:dc="http://purl.org/dc/elements/1.1/"
   xmlns:cc="http://creativecommons.org/ns#"
   xmlns:rdf="http://www.w3.org/1999/02/22-rdf-syntax-ns#"
   xmlns:svg="http://www.w3.org/2000/svg"
   xmlns="http://www.w3.org/2000/svg"
   xmlns:sodipodi="http://sodipodi.sourceforge.net/DTD/sodipodi-0.dtd"
   xmlns:inkscape="http://www.inkscape.org/namespaces/inkscape"
   width="230"
   height="170"
   viewBox="0 0 230 170"
   version="1.1"
   id="svg4353"
   inkscape:version="1.0.1 (3bc2e813f5, 2020-09-07)"
   sodipodi:docname="browse.svg"
   inkscape:export-filename="C:\Users\jakub\git\at8_online\static\img\reg.png"
   inkscape:export-xdpi="96"
   inkscape:export-ydpi="96">
  <defs
     id="defs4347">
    <clipPath
       id="freepik--clip-path--inject-1">
      <path
         d="M 175.37,119.69 H 300.6 a 4.36,4.36 0 0 1 4.36,4.36 v 152.76 a 4.36,4.36 0 0 1 -4.36,4.36 H 175.37 A 4.37,4.37 0 0 1 171,276.8 V 124.06 a 4.36,4.36 0 0 1 4.36,-4.36 z"
         style="fill:none"
         id="path1678" />
    </clipPath>
  </defs>
  <sodipodi:namedview
     id="base"
     pagecolor="#ffffff"
     bordercolor="#666666"
     borderopacity="1.0"
     inkscape:pageopacity="0.0"
     inkscape:pageshadow="2"
     inkscape:zoom="1.914786"
     inkscape:cx="111.27241"
     inkscape:cy="81.248059"
     inkscape:document-units="px"
     inkscape:current-layer="layer1"
     inkscape:document-rotation="0"
     showgrid="false"
     units="px"
     inkscape:pagecheckerboard="true"
     inkscape:window-width="1267"
     inkscape:window-height="1198"
     inkscape:window-x="2654"
     inkscape:window-y="494"
     inkscape:window-maximized="0" />
  <metadata
     id="metadata4350">
    <rdf:RDF>
      <cc:Work
         rdf:about="">
        <dc:format>image/svg+xml</dc:format>
        <dc:type
           rdf:resource="http://purl.org/dc/dcmitype/StillImage" />
        <dc:title></dc:title>
      </cc:Work>
    </rdf:RDF>
  </metadata>
  <g
     inkscape:label="Layer 1"
     inkscape:groupmode="layer"
     id="layer1">
    <g
       id="g2284"
       transform="matrix(0.45630235,0,0,0.45630235,0.9244125,-25.096629)">
      <g
         id="freepik--background-complete--inject-1">
        <rect
           y="382.39999"
           width="500"
           height="0.25"
           style="fill:#ebebeb"
           id="rect1683"
           x="0" />
        <rect
           x="416.78"
           y="398.48999"
           width="33.119999"
           height="0.25"
           style="fill:#ebebeb"
           id="rect1685" />
        <rect
           x="322.53"
           y="401.20999"
           width="8.6899996"
           height="0.25"
           style="fill:#ebebeb"
           id="rect1687" />
        <rect
           x="396.59"
           y="389.20999"
           width="19.190001"
           height="0.25"
           style="fill:#ebebeb"
           id="rect1689" />
        <rect
           x="52.459999"
           y="390.89001"
           width="43.189999"
           height="0.25"
           style="fill:#ebebeb"
           id="rect1691" />
        <rect
           x="104.56"
           y="390.89001"
           width="6.3299999"
           height="0.25"
           style="fill:#ebebeb"
           id="rect1693" />
        <rect
           x="131.47"
           y="395.10999"
           width="93.68"
           height="0.25"
           style="fill:#ebebeb"
           id="rect1695" />
        <path
           d="M 237,337.8 H 43.91 a 5.71,5.71 0 0 1 -5.7,-5.71 V 60.66 A 5.71,5.71 0 0 1 43.91,55 H 237 a 5.71,5.71 0 0 1 5.71,5.71 V 332.09 A 5.71,5.71 0 0 1 237,337.8 Z M 43.91,55.2 a 5.46,5.46 0 0 0 -5.45,5.46 v 271.43 a 5.46,5.46 0 0 0 5.45,5.46 H 237 a 5.47,5.47 0 0 0 5.46,-5.46 V 60.66 A 5.47,5.47 0 0 0 237,55.2 Z"
           style="fill:#ebebeb"
           id="path1697" />
        <path
           d="m 453.31,337.8 h -193.1 a 5.72,5.72 0 0 1 -5.71,-5.71 V 60.66 A 5.72,5.72 0 0 1 260.21,55 h 193.1 a 5.71,5.71 0 0 1 5.69,5.66 v 271.43 a 5.71,5.71 0 0 1 -5.69,5.71 z M 260.21,55.2 a 5.47,5.47 0 0 0 -5.46,5.46 v 271.43 a 5.47,5.47 0 0 0 5.46,5.46 h 193.1 a 5.47,5.47 0 0 0 5.46,-5.46 V 60.66 a 5.47,5.47 0 0 0 -5.46,-5.46 z"
           style="fill:#ebebeb"
           id="path1699" />
        <rect
           x="81.870003"
           y="72.010002"
           width="273.57001"
           height="159.59"
           style="fill:#ebebeb"
           id="rect1701" />
        <rect
           x="89.360001"
           y="80.449997"
           width="258.57999"
           height="142.71001"
           style="fill:#fafafa"
           id="rect1703" />
        <polygon
           points="133.26,223.16 111.85,223.16 132.01,80.45 153.42,80.45 "
           style="fill:#ffffff"
           id="polygon1705" />
        <polygon
           points="186.16,223.16 164.75,223.16 184.91,80.45 206.32,80.45 "
           style="fill:#ffffff"
           id="polygon1707" />
        <polygon
           points="308.95,223.16 298.25,223.16 318.4,80.45 329.11,80.45 "
           style="fill:#ffffff"
           id="polygon1709" />
        <polygon
           points="204.99,223.16 194.28,223.16 214.44,80.45 225.15,80.45 "
           style="fill:#ffffff"
           id="polygon1711" />
        <rect
           x="147.66"
           y="80.449997"
           width="10.09"
           height="142.71001"
           style="fill:#ebebeb"
           id="rect1713" />
        <rect
           x="157.75"
           y="80.449997"
           width="2.25"
           height="142.71001"
           transform="rotate(180,158.87,151.805)"
           style="fill:#e0e0e0"
           id="rect1715" />
        <rect
           x="355.44"
           y="72.010002"
           width="1.61"
           height="159.59"
           transform="rotate(180,356.25,151.805)"
           style="fill:#e0e0e0"
           id="rect1717" />
        <path
           d="m 410.4,289.51 c -2.66,-29.48 -4.52,-77.31 -3.08,-93.31 a 2,2 0 0 1 0.75,-1.39 v 0 a 1.84,1.84 0 0 1 2.93,1.65 c -0.25,7.93 -0.54,27.74 1,61.93 0.78,17 1.92,28.66 1.14,31.12 z"
           style="fill:#f0f0f0"
           id="path1719" />
        <path
           d="m 402.19,228.48 c -6.37,-8 -19.38,-13.66 -32.64,-13.64 -5.21,0 15.84,9.29 24.59,19.53 6.8,7.95 14.46,21.33 17.07,28.76 -1.69,-15.63 -2.65,-26.67 -9.02,-34.65 z"
           style="fill:#f0f0f0"
           id="path1721" />
        <path
           d="m 415.51,228.4 c 6.31,-8.78 20.86,-15.54 36.61,-16.3 6.18,-0.3 -17.34,10.72 -26.12,22 -6.82,8.78 -13.81,23.31 -15.73,31.28 -0.46,-16.53 -1.06,-28.2 5.24,-36.98 z"
           style="fill:#f0f0f0"
           id="path1723" />
        <path
           d="m 402.19,241.3 c -6.37,-8 -19.38,-13.66 -32.64,-13.63 -5.21,0 15.84,9.29 24.59,19.52 6.8,8 14.46,21.34 17.07,28.76 -1.69,-15.62 -2.65,-26.66 -9.02,-34.65 z"
           style="fill:#f0f0f0"
           id="path1725" />
        <path
           d="m 415.51,241.94 c 6.31,-8.78 20.86,-15.54 36.61,-16.3 6.18,-0.3 -17.34,10.72 -26.12,22 -6.82,8.78 -13.81,23.31 -15.73,31.28 -0.46,-16.53 -1.06,-28.2 5.24,-36.98 z"
           style="fill:#f0f0f0"
           id="path1727" />
        <path
           d="m 403.34,198.31 c -4.17,-5.93 -13.11,-10.56 -22.43,-11.19 -3.67,-0.25 10.78,7.31 16.54,14.94 4.47,5.93 9.35,15.72 10.9,21.07 -0.59,-11.07 -0.84,-18.89 -5.01,-24.82 z"
           style="fill:#f0f0f0"
           id="path1729" />
        <path
           d="m 411.64,200.82 c 4.44,-6.19 14.7,-10.95 25.8,-11.48 4.36,-0.22 -12.22,7.55 -18.41,15.51 -4.8,6.18 -9.73,16.43 -11.09,22 -0.32,-11.61 -0.74,-19.85 3.7,-26.03 z"
           style="fill:#f0f0f0"
           id="path1731" />
        <path
           d="m 401.91,206 c -5.4,-6.76 -16.42,-11.57 -27.64,-11.54 -4.41,0 13.41,7.86 20.82,16.53 5.75,6.73 12.25,18.06 14.45,24.35 -1.43,-13.22 -2.24,-22.57 -7.63,-29.34 z"
           style="fill:#f0f0f0"
           id="path1733" />
        <path
           d="m 412.87,209.61 c 5.34,-7.44 17.66,-13.16 31,-13.8 5.23,-0.26 -14.69,9.08 -22.12,18.64 -5.77,7.43 -11.7,19.73 -13.32,26.48 -0.43,-14 -0.9,-23.93 4.44,-31.32 z"
           style="fill:#f0f0f0"
           id="path1735" />
        <path
           d="m 401.55,215.39 c -5.82,-7.3 -17.71,-12.48 -29.82,-12.46 -4.76,0 14.47,8.49 22.46,17.84 6.21,7.27 13.21,19.49 15.6,26.27 -1.54,-14.27 -2.42,-24.36 -8.24,-31.65 z"
           style="fill:#f0f0f0"
           id="path1737" />
        <path
           d="m 413.71,219.38 c 5.92,-8.25 19.61,-14.6 34.42,-15.32 5.81,-0.28 -16.31,10.08 -24.56,20.7 -6.41,8.25 -13,21.91 -14.8,29.4 -0.43,-15.54 -0.99,-26.52 4.94,-34.78 z"
           style="fill:#f0f0f0"
           id="path1739" />
        <path
           d="m 428.31,284.53 -1,8.28 a 3.5,3.5 0 0 1 -3.5,3.3 h -24.7 a 3.51,3.51 0 0 1 -3.5,-3.3 l -1,-8.28 a 3.51,3.51 0 0 1 3.5,-3.71 h 26.68 a 3.5,3.5 0 0 1 3.52,3.71 z"
           style="fill:#e6e6e6"
           id="path1741" />
        <path
           d="m 429.79,286.28 h -36.64 a 1.06,1.06 0 0 1 -1,-0.94 l -0.87,-7.88 a 1.05,1.05 0 0 1 1,-1.17 h 38.38 a 1.05,1.05 0 0 1 1,1.17 l -0.87,7.88 a 1.05,1.05 0 0 1 -1,0.94 z"
           style="fill:#f5f5f5"
           id="path1743" />
        <rect
           x="236.7"
           y="296.10999"
           width="15.91"
           height="86.290001"
           transform="rotate(180,244.655,339.255)"
           style="fill:#e6e6e6"
           id="rect1745" />
        <polygon
           points="241.47,382.4 236.7,382.4 236.7,365.89 246.47,365.89 "
           style="fill:#f0f0f0"
           id="polygon1747" />
        <rect
           x="434.94"
           y="296.10999"
           width="15.91"
           height="86.290001"
           transform="rotate(180,442.895,339.255)"
           style="fill:#e6e6e6"
           id="rect1749" />
        <rect
           x="236.7"
           y="296.10999"
           width="202.39999"
           height="76.150002"
           transform="rotate(180,337.9,334.19)"
           style="fill:#f0f0f0"
           id="rect1751" />
        <polygon
           points="434.33,382.4 439.1,382.4 439.1,365.89 429.33,365.89 "
           style="fill:#f0f0f0"
           id="polygon1753" />
        <rect
           x="240.39999"
           y="301.47"
           width="195"
           height="30.469999"
           transform="rotate(180,337.9,316.705)"
           style="fill:#e6e6e6"
           id="rect1755" />
        <path
           d="m 269,310.94 h 134.62 c 4.65,0 9.1,-3.76 12.3,-10.4 H 256.68 c 3.2,6.64 7.65,10.4 12.32,10.4 z"
           style="fill:#f0f0f0"
           id="path1757" />
        <rect
           x="240.39999"
           y="336.87"
           width="195"
           height="30.469999"
           transform="rotate(180,337.9,352.105)"
           style="fill:#e6e6e6"
           id="rect1759" />
        <path
           d="m 269,346.34 h 134.62 c 4.65,0 9.1,-3.76 12.3,-10.4 H 256.68 c 3.2,6.64 7.65,10.4 12.32,10.4 z"
           style="fill:#f0f0f0"
           id="path1761" />
        <path
           d="m 284.66,275.89 c 0,0 0.87,20.22 34.22,20.22 33.35,0 34.23,-20.22 34.23,-20.22 z"
           style="fill:#f5f5f5"
           id="path1763" />
        <path
           d="m 284.66,265.39 c 0,0 0.87,20.22 34.22,20.22 33.35,0 34.23,-20.22 34.23,-20.22 z"
           style="fill:#f5f5f5"
           id="path1765" />
        <rect
           x="158.11"
           y="316.78"
           width="33.279999"
           height="5.6999998"
           style="fill:#e6e6e6"
           id="rect1767" />
        <rect
           x="95.339996"
           y="251.33"
           width="6.1399999"
           height="131.07001"
           transform="rotate(180,98.405,316.865)"
           style="fill:#e6e6e6"
           id="rect1769" />
        <rect
           x="74.059998"
           y="316.78"
           width="84.050003"
           height="5.6999998"
           transform="rotate(180,116.085,319.63)"
           style="fill:#f5f5f5"
           id="rect1771" />
        <rect
           x="158.11"
           y="347.95001"
           width="33.279999"
           height="5.6999998"
           style="fill:#e6e6e6"
           id="rect1773" />
        <rect
           x="74.059998"
           y="347.95001"
           width="84.050003"
           height="5.6999998"
           transform="rotate(180,116.085,350.795)"
           style="fill:#f5f5f5"
           id="rect1775" />
        <rect
           x="158.11"
           y="254.45"
           width="33.279999"
           height="5.6999998"
           style="fill:#e6e6e6"
           id="rect1777" />
        <rect
           x="74.059998"
           y="254.45"
           width="84.050003"
           height="5.6999998"
           transform="rotate(180,116.085,257.295)"
           style="fill:#f5f5f5"
           id="rect1779" />
        <rect
           x="158.11"
           y="285.60999"
           width="33.279999"
           height="5.6999998"
           style="fill:#e6e6e6"
           id="rect1781" />
        <rect
           x="74.059998"
           y="285.60999"
           width="84.050003"
           height="5.6999998"
           transform="rotate(180,116.085,288.46)"
           style="fill:#f5f5f5"
           id="rect1783" />
        <rect
           x="179.39"
           y="251.33"
           width="6.1399999"
           height="131.07001"
           transform="rotate(180,182.46,316.865)"
           style="fill:#e6e6e6"
           id="rect1785" />
        <rect
           x="151.97"
           y="251.33"
           width="6.1399999"
           height="131.07001"
           transform="rotate(180,155.04,316.865)"
           style="fill:#f5f5f5"
           id="rect1787" />
        <rect
           x="74.059998"
           y="251.33"
           width="6.1399999"
           height="131.07001"
           transform="rotate(180,77.13,316.865)"
           style="fill:#f5f5f5"
           id="rect1789" />
      </g>
      <g
         id="freepik--Shadow--inject-1">
        <ellipse
           id="freepik--path--inject-1"
           cx="250"
           cy="416.23999"
           rx="193.89"
           ry="11.32"
           style="fill:#f5f5f5" />
      </g>
      <g
         id="freepik--Character--inject-1">
        <path
           d="m 208.41,140.39 c 1.05,-3.26 10.49,-11.46 22.15,-7.32 11.66,4.14 9,20.45 7.74,24.59 -1.26,4.14 -8.73,16.62 -17.41,14 -8.68,-2.62 -26.39,-21.56 -12.48,-31.27 z"
           style="fill:#263238"
           id="path1794" />
        <path
           d="m 233.92,153.11 c 0.77,-2.41 7.73,-8.45 16.32,-5.4 8.59,3.05 6.63,15.07 5.7,18.12 -0.93,3.05 -6.43,12.24 -12.83,10.32 -6.4,-1.92 -19.44,-15.89 -9.19,-23.04 z"
           style="fill:#263238"
           id="path1796" />
        <path
           d="m 244.3,143.51 -5.93,8.05 c 0,0 -2.93,-6.63 5.93,-8.05 z"
           style="fill:#263238"
           id="path1798" />
        <path
           d="m 228.19,166.68 c -1.62,-1.56 -9.64,-3.38 -15.11,2.64 -5.47,6.02 1.13,14.68 3.15,16.68 2.02,2 10.21,6.92 14.44,2.72 4.23,-4.2 8.59,-20.72 -2.48,-22.04 z"
           style="fill:#263238"
           id="path1800" />
        <path
           d="m 225.73,196 -0.22,0.57 -0.2,0.49 c -0.14,0.32 -0.27,0.64 -0.41,0.94 -0.28,0.62 -0.58,1.2 -0.88,1.79 -0.61,1.17 -1.24,2.31 -1.91,3.43 a 59.11,59.11 0 0 1 -4.48,6.36 c -0.79,1 -1.66,2 -2.5,3 -0.84,1 -1.76,1.89 -2.71,2.77 a 58.7,58.7 0 0 1 -5.9,5 c -0.29,0.21 -0.39,0.33 -1.09,0.79 a 6.62,6.62 0 0 1 -2.28,0.9 6.2,6.2 0 0 1 -2.75,-0.11 6.63,6.63 0 0 1 -2.05,-1 9.17,9.17 0 0 1 -2.18,-2.21 15.06,15.06 0 0 1 -1.23,-2 37.82,37.82 0 0 1 -2.71,-7.52 88.71,88.71 0 0 1 -2.39,-14.72 l 4.55,-0.81 c 1.38,4.51 2.86,9.08 4.55,13.35 a 36.4,36.4 0 0 0 2.82,5.83 8.64,8.64 0 0 0 0.75,1 c 0.22,0.24 0.44,0.39 0.39,0.31 a 0.93,0.93 0 0 0 -0.42,-0.21 2,2 0 0 0 -1,-0.06 2.3,2.3 0 0 0 -0.62,0.2 c -0.2,0.13 0.16,-0.16 0.34,-0.33 a 64.72,64.72 0 0 0 9.12,-9.82 61.06,61.06 0 0 0 3.71,-5.56 q 0.85,-1.42 1.62,-2.88 l 0.72,-1.45 0.34,-0.71 0.27,-0.61 z"
           style="fill:#ffb573"
           id="path1802" />
        <path
           d="m 225.23,182.15 c -7.83,3.57 -10.86,13.51 -11.13,14.06 l 9.71,17.65 c 0,0 9.45,-6.69 10.19,-12.86 0.7,-5.21 -3.62,-21.2 -8.77,-18.85 z"
           style="fill:#db2777"
           id="path1804" />
        <path
           d="m 194.68,194.71 2.46,-7.42 -9.32,2 c 0,0 -0.21,6.44 2.78,8.77 l 1.59,-0.66 a 4.36,4.36 0 0 0 2.49,-2.69 z"
           style="fill:#ffb573"
           id="path1806" />
        <polygon
           points="194.84,179.35 188.19,182.12 187.82,189.27 197.14,187.28 "
           style="fill:#ffb573"
           id="polygon1808" />
        <path
           d="m 265.78,120.25 -6.47,-7.41 -3,9 c 0,0 5.06,4.36 9.18,0.56 z"
           style="fill:#ffb573"
           id="path1810" />
        <polygon
           points="255.62,109.35 251.04,115.55 256.28,121.88 259.31,112.84 "
           style="fill:#ffb573"
           id="polygon1812" />
        <polygon
           points="345.72,387.72 339.14,393.74 320.62,381.44 327.2,375.42 "
           style="fill:#ffb573"
           id="polygon1814" />
        <polygon
           points="411.55,307.02 411.15,316.13 389.93,318.13 390.33,309.02 "
           style="fill:#ffb573"
           id="polygon1816" />
        <path
           d="m 408.93,316.53 -2.47,-9.94 a 0.71,0.71 0 0 1 0.43,-0.85 l 7.59,-3.09 a 1.46,1.46 0 0 1 1.92,1 c 0.8,3.48 1,5.2 2.1,9.57 0.67,2.69 2.54,8.54 3.47,12.25 0.93,3.71 -2.7,4.83 -3.42,3.36 -3.21,-6.56 -6.16,-9.14 -8.7,-11 a 2.46,2.46 0 0 1 -0.92,-1.3 z"
           style="fill:#263238"
           id="path1818" />
        <path
           d="m 336.12,393 4.45,-9.86 a 0.9,0.9 0 0 1 0.95,-0.51 l 8.77,1.37 a 1.35,1.35 0 0 1 1,1.91 c -1.62,3.42 -2.58,5 -4.53,9.35 -1.21,2.66 -4.85,11.48 -6.51,15.16 -1.66,3.68 -5.6,2.71 -5.26,1.08 1.53,-7.36 2,-13.92 1,-16.86 a 2.27,2.27 0 0 1 0.13,-1.64 z"
           style="fill:#263238"
           id="path1820" />
        <polygon
           points="320.63,381.44 330.43,387.96 336.79,381.79 327.21,375.42 "
           style="opacity:0.2"
           id="polygon1822" />
        <polygon
           points="390.33,309.01 389.93,318.13 400.87,317.1 401.27,307.98 "
           style="opacity:0.2"
           id="polygon1824" />
        <path
           d="m 219.75,187 c 0,0 4.09,20.2 24.53,38 2.58,2.24 2.07,8 5.62,7.52 12.43,-7.84 25.16,-15.56 31.2,-19.38 0.15,-6.88 -4.56,-5.77 -5.67,-9.47 -2.66,-8.81 -9.95,-18.74 -17.49,-40.43 a 108.11,108.11 0 0 0 -14.4,6.64 129.18,129.18 0 0 0 -14.22,9 119.38,119.38 0 0 0 -9.57,8.12 z"
           style="fill:#db2777"
           id="path1826" />
        <path
           d="m 232,154.75 c 2,5.14 6.39,14.08 11.52,15.11 0,0 3.1,14.82 -3,23 -9.59,-1.59 -11.21,-14.07 -11.21,-14.07 4.33,-4.44 1.81,-8.14 -1.32,-11.13 z"
           style="fill:#ffb573"
           id="path1828" />
        <path
           d="m 234.62,193.67 a 4,4 0 0 1 -2.84,-1.34 c -1.86,-1.91 -1.22,-4.82 -0.54,-7.91 0.68,-3.09 1.36,-6.19 0,-8.95 a 0.28398944,0.28398944 0 1 1 0.51,-0.25 c 1.47,2.93 0.73,6.33 0.07,9.32 -0.66,2.99 -1.25,5.71 0.4,7.39 a 3.21,3.21 0 0 0 4.63,0.34 c 3.28,-2.43 5.37,-9.28 3,-13.5 -2.17,-4 0,-7.46 1,-9.14 a 5.35,5.35 0 0 0 0.48,-0.85 0.27,0.27 0 0 1 0.21,-0.33 0.29,0.29 0 0 1 0.34,0.23 c 0.06,0.27 -0.14,0.6 -0.54,1.25 -1.07,1.71 -3.06,4.91 -1,8.57 2.45,4.45 0.25,11.66 -3.2,14.23 a 4.28,4.28 0 0 1 -2.52,0.94 z"
           style="fill:#263238"
           id="path1830" />
        <path
           d="m 230.38,160 -2.38,7.7 a 17.79,17.79 0 0 1 2,2.25 c 1.77,-1.51 3.6,-5.11 2.52,-7.29 A 9.84,9.84 0 0 0 230.38,160 Z"
           style="opacity:0.2"
           id="path1832" />
        <path
           d="m 231.57,144.4 c 2.77,8.62 4.13,12.2 1.57,18.18 -3.85,9 -15,10.51 -20.33,2.9 -4.76,-6.85 -8.49,-19.79 -1.56,-26.35 a 12.34,12.34 0 0 1 20.32,5.27 z"
           style="fill:#ffb573"
           id="path1834" />
        <path
           d="m 213.71,142.29 c 0.59,4.71 10.72,10.12 20.11,7.91 6.56,-1.55 1.46,-13.07 -6.34,-15.09 -7.8,-2.02 -14.74,-0.53 -13.77,7.18 z"
           style="fill:#263238"
           id="path1836" />
        <path
           d="m 218.05,142.26 -19.82,2.47 c 0,0 5.59,-13.37 19.82,-2.47 z"
           style="fill:#263238"
           id="path1838" />
        <path
           d="m 216.79,142 -16.13,7 c 0,0 1.46,-12.7 16.13,-7 z"
           style="fill:#263238"
           id="path1840" />
        <path
           d="m 215.13,142 -4.5,6.38 c 0,0 -2.4,-5.12 4.5,-6.38 z"
           style="fill:#263238"
           id="path1842" />
        <path
           d="M 217.59,142 201,138.14 c 0,0 8.45,-9.03 16.59,3.86 z"
           style="fill:#263238"
           id="path1844" />
        <path
           d="m 215.89,142.38 -7.77,-9.64 c 0,0 8.88,-1.42 7.77,9.64 z"
           style="fill:#263238"
           id="path1846" />
        <path
           d="m 235.85,151.48 a 6.63,6.63 0 0 1 -0.65,5 c -1.16,2 -3.36,1.35 -4.38,-0.59 -0.92,-1.75 -1.42,-4.91 0.4,-6.25 a 3,3 0 0 1 4.63,1.84 z"
           style="fill:#ffb573"
           id="path1848" />
        <path
           d="m 250.61,233.24 c 0,0 4,81.24 19.32,104.42 16,24.12 55.3,49.91 55.3,49.91 l 11,-9.32 c 0,0 -37,-35 -45.18,-55.35 -11.32,-28.08 -13.43,-106.73 -13.43,-106.73 z"
           style="fill:#263238"
           id="path1850" />
        <polygon
           points="337.24,377.47 324.94,388.77 318.72,385.39 331.74,372.26 "
           style="fill:#db2777"
           id="polygon1852" />
        <path
           d="m 268.87,234.89 c -0.13,9.59 5.35,22.51 12.34,30.77 -0.76,-7.62 -1.38,-15 -1.88,-21.63 -3.51,-3.9 -7.14,-7.31 -10.46,-9.14 z"
           style="opacity:0.2"
           id="path1854" />
        <path
           d="m 258.87,228 c 0,0 37.89,50.08 61.37,77 19,21.71 77.7,14.42 77.7,14.42 v -12.56 c 0,0 -42.14,1 -55.16,-13.64 -41.64,-47 -42,-72.1 -60.85,-79.74 z"
           style="fill:#263238"
           id="path1856" />
        <polygon
           points="398.21,304.78 398.24,322.1 390.06,324.38 390.44,304.86 "
           style="fill:#db2777"
           id="polygon1858" />
        <path
           d="m 281.22,211.34 3.18,1.91 c 0.25,0.14 0.13,0.53 -0.23,0.76 l -32.83,20.73 c -0.28,0.18 -0.61,0.19 -0.74,0 l -2,-2.63 c -0.14,-0.18 0,-0.5 0.31,-0.69 l 31.7,-20 a 0.68,0.68 0 0 1 0.61,-0.08 z"
           style="fill:#db2777"
           id="path1860" />
        <path
           d="m 281.22,211.34 3.18,1.91 c 0.25,0.14 0.13,0.53 -0.23,0.76 l -32.83,20.73 c -0.28,0.18 -0.61,0.19 -0.74,0 l -2,-2.63 c -0.14,-0.18 0,-0.5 0.31,-0.69 l 31.7,-20 a 0.68,0.68 0 0 1 0.61,-0.08 z"
           style="opacity:0.4"
           id="path1862" />
        <path
           d="m 279.2,217.57 0.85,-0.54 c 0.17,-0.1 0.24,-0.27 0.16,-0.37 l -2.69,-3.39 c -0.08,-0.1 -0.29,-0.09 -0.45,0 l -0.85,0.54 c -0.17,0.11 -0.25,0.28 -0.17,0.37 l 2.7,3.39 a 0.36,0.36 0 0 0 0.45,0 z"
           style="fill:#263238"
           id="path1864" />
        <path
           d="m 253.92,233.54 0.84,-0.54 c 0.17,-0.1 0.25,-0.27 0.17,-0.37 l -2.7,-3.39 c -0.08,-0.1 -0.28,-0.09 -0.45,0 l -0.85,0.54 c -0.17,0.11 -0.24,0.28 -0.16,0.38 l 2.69,3.38 a 0.37,0.37 0 0 0 0.46,0 z"
           style="fill:#263238"
           id="path1866" />
        <path
           d="m 266.56,225.56 0.85,-0.54 c 0.17,-0.11 0.24,-0.28 0.16,-0.38 l -2.7,-3.38 c -0.07,-0.1 -0.28,-0.1 -0.45,0 l -0.85,0.54 c -0.17,0.1 -0.24,0.27 -0.16,0.37 l 2.7,3.39 c 0.08,0.11 0.28,0.1 0.45,0 z"
           style="fill:#263238"
           id="path1868" />
        <path
           d="m 219.73,151.74 c 0.27,0.68 0.12,1.38 -0.32,1.56 -0.44,0.18 -1,-0.24 -1.3,-0.93 -0.3,-0.69 -0.12,-1.38 0.33,-1.55 0.45,-0.17 1.02,0.24 1.29,0.92 z"
           style="fill:#263238"
           id="path1870" />
        <path
           d="m 212,154.77 c 0.27,0.68 0.12,1.38 -0.33,1.55 -0.45,0.17 -1,-0.24 -1.29,-0.92 -0.29,-0.68 -0.12,-1.38 0.33,-1.56 0.45,-0.18 1.01,0.24 1.29,0.93 z"
           style="fill:#263238"
           id="path1872" />
        <path
           d="m 210.91,153.8 -1.83,0.17 c 0,0 1.34,0.96 1.83,-0.17 z"
           style="fill:#263238"
           id="path1874" />
        <path
           d="m 214.5,155.14 a 19.49,19.49 0 0 1 -0.74,5.33 3.15,3.15 0 0 0 2.62,-0.5 z"
           style="fill:#ed893e"
           id="path1876" />
        <path
           d="m 219.82,161.74 a 0.22,0.22 0 0 1 -0.25,-0.13 0.21,0.21 0 0 1 0.12,-0.28 5.88,5.88 0 0 0 3.6,-3.86 0.21,0.21 0 0 1 0.25,-0.16 0.21,0.21 0 0 1 0.17,0.25 6.16,6.16 0 0 1 -3.86,4.17 z"
           style="fill:#263238"
           id="path1878" />
        <path
           d="m 220.08,149 a 0.45,0.45 0 0 1 -0.3,0 3.45,3.45 0 0 0 -3.12,-0.05 0.43,0.43 0 0 1 -0.59,-0.16 0.44,0.44 0 0 1 0.15,-0.59 4.3,4.3 0 0 1 3.94,0 0.44,0.44 0 0 1 0.2,0.58 0.43,0.43 0 0 1 -0.28,0.22 z"
           style="fill:#263238"
           id="path1880" />
        <path
           d="m 207,152.59 a 0.45,0.45 0 0 1 -0.2,0 0.43,0.43 0 0 1 -0.33,-0.51 4.26,4.26 0 0 1 2.53,-3.08 0.42,0.42 0 0 1 0.55,0.25 0.41,0.41 0 0 1 -0.25,0.55 3.43,3.43 0 0 0 -1.9,2.47 0.45,0.45 0 0 1 -0.4,0.32 z"
           style="fill:#263238"
           id="path1882" />
        <path
           d="m 261.93,162 0.54,-0.26 0.72,-0.36 c 0.49,-0.25 1,-0.52 1.48,-0.81 1,-0.59 2,-1.23 2.92,-1.92 a 45.83,45.83 0 0 0 5.51,-4.65 66.51,66.51 0 0 0 4.92,-5.39 l 1.13,-1.46 0.56,-0.73 0.07,-0.09 v 0 0 c 0,0 0,-0.06 0.06,-0.09 a 1.82,1.82 0 0 0 0.15,-1.3 9.23,9.23 0 0 0 -0.91,-2.6 26.22,26.22 0 0 0 -1.76,-2.91 54.53,54.53 0 0 0 -4.68,-5.72 137.05,137.05 0 0 0 -11.17,-10.62 l 2.64,-3.79 a 92.51,92.51 0 0 1 13.23,9.55 53.68,53.68 0 0 1 5.95,6 28.39,28.39 0 0 1 2.71,3.65 16.77,16.77 0 0 1 2,4.73 11.14,11.14 0 0 1 0.31,3.08 9.62,9.62 0 0 1 -0.79,3.38 7.4,7.4 0 0 1 -0.39,0.8 l -0.22,0.38 -0.19,0.29 -0.57,0.89 -1.15,1.77 a 61.72,61.72 0 0 1 -5.38,6.64 54.86,54.86 0 0 1 -6.49,5.75 40.52,40.52 0 0 1 -3.69,2.43 c -0.65,0.38 -1.31,0.74 -2,1.09 l -1.07,0.5 c -0.4,0.17 -0.69,0.3 -1.28,0.51 z"
           style="fill:#ffb573"
           id="path1884" />
        <path
           d="m 248.36,167.34 c 4.4,-4.83 18.57,-9.37 18.57,-9.37 l 4.55,23.16 c 0,0 -4.91,4.89 -10.86,3.21 -5.06,-1.43 -18.53,-10.12 -12.26,-17 z"
           style="fill:#db2777"
           id="path1886" />
        <path
           d="m 411,321.27 a 1.36,1.36 0 0 1 -0.81,0.33 0.74,0.74 0 0 1 -0.69,-0.27 c -0.72,-0.91 0.35,-4 0.47,-4.38 a 0.21,0.21 0 0 1 0.19,-0.15 0.24,0.24 0 0 1 0.21,0.12 c 0.55,1.08 1.4,3 0.85,4.06 a 1.23,1.23 0 0 1 -0.22,0.29 z m -0.79,-3.68 c -0.39,1.26 -0.75,3 -0.37,3.47 a 0.31,0.31 0 0 0 0.31,0.11 0.78,0.78 0 0 0 0.69,-0.4 c 0.27,-0.55 0.03,-1.72 -0.66,-3.18 z"
           style="fill:#db2777"
           id="path1888" />
        <path
           d="m 408.74,319.49 a 2.15,2.15 0 0 1 -1.21,0.68 0.75,0.75 0 0 1 -0.76,-0.56 1.09,1.09 0 0 1 0.06,-1 c 0.61,-1.17 3.15,-1.81 3.26,-1.84 a 0.21,0.21 0 0 1 0.21,0.06 0.22,0.22 0 0 1 0.05,0.21 6.49,6.49 0 0 1 -1.61,2.45 z m -1.24,-1 a 1.31,1.31 0 0 0 -0.29,0.36 0.69,0.69 0 0 0 0,0.61 c 0.1,0.26 0.23,0.28 0.34,0.28 0.63,0 1.82,-1.39 2.28,-2.4 a 6.42,6.42 0 0 0 -2.33,1.15 z"
           style="fill:#db2777"
           id="path1890" />
        <path
           d="m 335.78,398.09 a 3.54,3.54 0 0 1 -1.33,1.72 1.34,1.34 0 0 1 -1.17,0.08 0.65,0.65 0 0 1 -0.43,-0.49 c -0.2,-1.17 2.84,-3.84 3.45,-4.36 a 0.23,0.23 0 0 1 0.25,0 0.21,0.21 0 0 1 0.1,0.23 14,14 0 0 1 -0.87,2.82 z m -2.41,0.81 a 0.72,0.72 0 0 0 -0.09,0.42 c 0,0.06 0,0.12 0.15,0.16 a 0.89,0.89 0 0 0 0.81,-0.05 c 0.7,-0.38 1.37,-1.71 1.84,-3.63 a 13.71,13.71 0 0 0 -2.71,3.1 z"
           style="fill:#db2777"
           id="path1892" />
        <path
           d="m 336.64,395.29 -0.05,0.07 c -1,0.9 -3.77,2.34 -4.64,1.79 -0.19,-0.12 -0.38,-0.37 -0.22,-0.91 0.65,-2.05 4.59,-1.29 4.76,-1.25 a 0.2,0.2 0 0 1 0.16,0.15 0.26,0.26 0 0 1 -0.01,0.15 z m -4.44,0.95 a 0.5,0.5 0 0 0 -0.05,0.13 q -0.11,0.33 0,0.42 c 0.5,0.31 2.63,-0.6 3.76,-1.45 -0.91,-0.13 -3.18,-0.28 -3.71,0.9 z"
           style="fill:#db2777"
           id="path1894" />
        <path
           d="m 218.65,150.78 -1.83,0.17 c 0,0 1.35,0.95 1.83,-0.17 z"
           style="fill:#263238"
           id="path1896" />
        <rect
           x="156.36"
           y="90.629997"
           width="166.39"
           height="325.60999"
           rx="61.034092"
           style="fill:#db2777"
           id="rect1898"
           ry="61.034092" />
        <rect
           x="156.36"
           y="90.629997"
           width="166.39"
           height="325.60999"
           rx="61.034092"
           style="opacity:0.2"
           id="rect1900"
           ry="61.034092" />
        <rect
           x="289.67001"
           y="143.13"
           width="35.27"
           height="43.400002"
           rx="16.874777"
           style="fill:#db2777"
           id="rect1902"
           ry="16.874777" />
        <rect
           x="289.67001"
           y="143.13"
           width="35.27"
           height="43.400002"
           rx="16.874777"
           style="opacity:0.2"
           id="rect1904"
           ry="16.874777" />
        <rect
           x="153.03999"
           y="143.13"
           width="35.27"
           height="57.299999"
           rx="16.874777"
           style="fill:#db2777"
           id="rect1906"
           ry="16.874777" />
        <rect
           x="153.03999"
           y="143.13"
           width="35.27"
           height="57.299999"
           rx="16.874777"
           style="opacity:0.2"
           id="rect1908"
           ry="16.874777" />
        <rect
           x="289.67001"
           y="189.66"
           width="35.27"
           height="43.400002"
           rx="16.874777"
           style="fill:#db2777"
           id="rect1910"
           ry="16.874777" />
        <rect
           x="289.67001"
           y="189.66"
           width="35.27"
           height="43.400002"
           rx="16.874777"
           style="opacity:0.2"
           id="rect1912"
           ry="16.874777" />
        <rect
           x="154.78999"
           y="90.629997"
           width="166.39"
           height="325.60999"
           rx="61.034092"
           style="fill:#db2777"
           id="rect1914"
           ry="61.034092" />
        <rect
           x="78.5"
           y="173.56"
           width="318.95999"
           height="159.75"
           rx="53.758213"
           transform="rotate(90,237.985,253.435)"
           style="fill:#ffffff"
           id="rect1916"
           ry="53.758213" />
        <rect
           x="290.39001"
           y="102.64"
           width="14.57"
           height="8.2600002"
           rx="3.7036848"
           style="fill:#db2777"
           id="rect1918"
           ry="3.7036848" />
        <rect
           x="170.67"
           y="102.64"
           width="18.799999"
           height="8.2600002"
           rx="4.1858211"
           style="opacity:0.2;fill:#db2777"
           id="rect1920"
           ry="4.1858211" />
        <rect
           x="288.60001"
           y="104.05"
           width="3"
           height="5.4400001"
           rx="1.3587481"
           style="fill:#db2777"
           id="rect1922"
           ry="1.3587481" />
        <rect
           x="300.56"
           y="104.05"
           width="3"
           height="5.4400001"
           rx="1.3587481"
           style="fill:#ffffff"
           id="rect1924"
           ry="1.3587481" />
        <rect
           x="296.76999"
           y="104.05"
           width="3"
           height="5.4400001"
           rx="1.3587481"
           style="fill:#ffffff"
           id="rect1926"
           ry="1.3587481" />
        <path
           d="M 175.37,119.69 H 300.6 a 4.36,4.36 0 0 1 4.36,4.36 v 152.76 a 4.36,4.36 0 0 1 -4.36,4.36 H 175.37 A 4.37,4.37 0 0 1 171,276.8 V 124.06 a 4.36,4.36 0 0 1 4.36,-4.36 z"
           style="opacity:0.2;fill:#db2777"
           id="path1928" />
        <g
           clip-path="url(#freepik--clip-path--inject-1)"
           id="g2042">
          <path
             d="m 271,137.18 c 3.48,-4.46 8,-7.64 11.4,-7.64 a 3.53,3.53 0 0 1 3.71,3.29 8,8 0 0 1 4.43,-1.86 c 2.3,0 3.12,2.15 2.31,5.18 a 10,10 0 0 1 3.85,-1.16 c 2.34,-0.13 3.66,1.1 3.79,3.11 a 3.78,3.78 0 0 1 1.65,-0.58 c 1.36,-0.08 1.71,1.17 0.81,2.78 l -0.18,0.3 h -37.18 c 0.54,-1.6 3.76,-3.35 5.41,-3.42 z"
             style="opacity:0.6;fill:#ffffff"
             id="path1930" />
          <path
             d="m 200.21,221.46 c 8.74,-11.19 20.17,-19.16 28.63,-19.16 5.31,0 8.46,3.14 9.3,8.24 3.9,-2.91 7.84,-4.65 11.12,-4.65 5.77,0 7.85,5.39 5.79,13 a 25.34,25.34 0 0 1 9.67,-2.9 c 5.9,-0.34 9.21,2.76 9.53,7.8 a 9.54,9.54 0 0 1 4.14,-1.46 c 3.4,-0.19 4.3,2.94 2,7 -0.14,0.26 -0.29,0.5 -0.44,0.75 h -93.4 c 1.37,-4 9.45,-8.42 13.66,-8.62 z"
             style="opacity:0.6;fill:#ffffff"
             id="path1932" />
          <path
             d="m 259.73,181.61 a 7.86,7.86 0 0 1 0.93,-0.07 c 4.55,-4.41 9.15,-7.23 12.41,-7.23 2.36,0 3.64,1.47 3.88,4 8.5,-8.57 17.27,-14.14 23.38,-14.14 4.93,0 7.23,3.62 6.95,9.53 4.21,-3.36 8.22,-5.37 11.27,-5.37 5.37,0 6.2,6.22 2.73,15 v 0 a 23.61,23.61 0 0 1 9.57,-3.36 c 5.54,-0.4 8,3.18 7.25,9 a 9.15,9.15 0 0 1 4.14,-1.68 c 3,-0.21 3.37,3 0.92,7.31 H 241.1 c 4.72,-6.55 12.9,-12.25 18.63,-12.99 z"
             style="opacity:0.6;fill:#ffffff"
             id="path1934" />
          <path
             d="m 168.33,155 a 3,3 0 0 1 0.5,0 c 2.42,-2.35 4.87,-3.85 6.61,-3.85 1.26,0 1.94,0.78 2.07,2.11 4.53,-4.57 9.2,-7.54 12.46,-7.54 2.63,0 3.85,1.93 3.7,5.08 2.25,-1.79 4.38,-2.86 6,-2.86 2.86,0 3.3,3.31 1.45,8 v 0 a 12.66,12.66 0 0 1 5.1,-1.8 c 2.95,-0.21 4.25,1.7 3.86,4.81 a 5,5 0 0 1 2.21,-0.9 c 1.62,-0.11 1.8,1.6 0.49,3.9 h -54.37 c 2.51,-3.51 6.84,-6.55 9.92,-6.95 z"
             style="opacity:0.6;fill:#ffffff"
             id="path1936" />
          <path
             d="m 208.41,140.39 c 1.05,-3.26 10.49,-11.46 22.15,-7.32 11.66,4.14 9,20.45 7.74,24.59 -1.26,4.14 -8.73,16.62 -17.41,14 -8.68,-2.62 -26.39,-21.56 -12.48,-31.27 z"
             style="fill:#263238"
             id="path1938" />
          <path
             d="m 233.92,153.11 c 0.77,-2.41 7.73,-8.45 16.32,-5.4 8.59,3.05 6.63,15.07 5.7,18.12 -0.93,3.05 -6.43,12.24 -12.83,10.32 -6.4,-1.92 -19.44,-15.89 -9.19,-23.04 z"
             style="fill:#263238"
             id="path1940" />
          <path
             d="m 244.3,143.51 -5.93,8.05 c 0,0 -2.93,-6.63 5.93,-8.05 z"
             style="fill:#263238"
             id="path1942" />
          <path
             d="m 228.19,166.68 c -1.62,-1.56 -9.64,-3.38 -15.11,2.64 -5.47,6.02 1.13,14.68 3.15,16.68 2.02,2 10.21,6.92 14.44,2.72 4.23,-4.2 8.59,-20.72 -2.48,-22.04 z"
             style="fill:#263238"
             id="path1944" />
          <path
             d="m 225.73,196 -0.22,0.57 -0.2,0.49 c -0.14,0.32 -0.27,0.64 -0.41,0.94 -0.28,0.62 -0.58,1.2 -0.88,1.79 -0.61,1.17 -1.24,2.31 -1.91,3.43 a 59.11,59.11 0 0 1 -4.48,6.36 c -0.79,1 -1.66,2 -2.5,3 -0.84,1 -1.76,1.89 -2.71,2.77 a 58.7,58.7 0 0 1 -5.9,5 c -0.29,0.21 -0.39,0.33 -1.09,0.79 a 6.62,6.62 0 0 1 -2.28,0.9 6.2,6.2 0 0 1 -2.75,-0.11 6.63,6.63 0 0 1 -2.05,-1 9.17,9.17 0 0 1 -2.18,-2.21 15.06,15.06 0 0 1 -1.23,-2 37.82,37.82 0 0 1 -2.71,-7.52 88.71,88.71 0 0 1 -2.39,-14.72 l 4.55,-0.81 c 1.38,4.51 2.86,9.08 4.55,13.35 a 36.4,36.4 0 0 0 2.82,5.83 8.64,8.64 0 0 0 0.75,1 c 0.22,0.24 0.44,0.39 0.39,0.31 a 0.93,0.93 0 0 0 -0.42,-0.21 2,2 0 0 0 -1,-0.06 2.3,2.3 0 0 0 -0.62,0.2 c -0.2,0.13 0.16,-0.16 0.34,-0.33 a 64.72,64.72 0 0 0 9.12,-9.82 61.06,61.06 0 0 0 3.71,-5.56 q 0.85,-1.42 1.62,-2.88 l 0.72,-1.45 0.34,-0.71 0.27,-0.61 z"
             style="fill:#ffb573"
             id="path1946" />
          <path
             d="m 225.23,182.15 c -7.83,3.57 -10.86,13.51 -11.13,14.06 l 9.71,17.65 c 0,0 9.45,-6.69 10.19,-12.86 0.7,-5.21 -3.62,-21.2 -8.77,-18.85 z"
             style="fill:#db2777"
             id="path1948" />
          <path
             d="m 194.68,194.71 2.46,-7.42 -9.32,2 c 0,0 -0.21,6.44 2.78,8.77 l 1.59,-0.66 a 4.36,4.36 0 0 0 2.49,-2.69 z"
             style="fill:#ffb573"
             id="path1950" />
          <polygon
             points="187.82,189.27 197.14,187.28 194.84,179.35 188.19,182.12 "
             style="fill:#ffb573"
             id="polygon1952" />
          <path
             d="m 265.78,120.25 -6.47,-7.41 -3,9 c 0,0 5.06,4.36 9.18,0.56 z"
             style="fill:#ffb573"
             id="path1954" />
          <polygon
             points="256.28,121.88 259.31,112.84 255.62,109.35 251.04,115.55 "
             style="fill:#ffb573"
             id="polygon1956" />
          <polygon
             points="320.62,381.44 327.2,375.42 345.72,387.72 339.14,393.74 "
             style="fill:#ffb573"
             id="polygon1958" />
          <polygon
             points="389.93,318.13 390.33,309.02 411.55,307.02 411.15,316.13 "
             style="fill:#ffb573"
             id="polygon1960" />
          <path
             d="m 408.93,316.53 -2.47,-9.94 a 0.71,0.71 0 0 1 0.43,-0.85 l 7.59,-3.09 a 1.46,1.46 0 0 1 1.92,1 c 0.8,3.48 1,5.2 2.1,9.57 0.67,2.69 2.54,8.54 3.47,12.25 0.93,3.71 -2.7,4.83 -3.42,3.36 -3.21,-6.56 -6.16,-9.14 -8.7,-11 a 2.46,2.46 0 0 1 -0.92,-1.3 z"
             style="fill:#263238"
             id="path1962" />
          <path
             d="m 336.12,393 4.45,-9.86 a 0.9,0.9 0 0 1 0.95,-0.51 l 8.77,1.37 a 1.35,1.35 0 0 1 1,1.91 c -1.62,3.42 -2.58,5 -4.53,9.35 -1.21,2.66 -4.85,11.48 -6.51,15.16 -1.66,3.68 -5.6,2.71 -5.26,1.08 1.53,-7.36 2,-13.92 1,-16.86 a 2.27,2.27 0 0 1 0.13,-1.64 z"
             style="fill:#263238"
             id="path1964" />
          <polygon
             points="336.79,381.79 327.21,375.42 320.63,381.44 330.43,387.96 "
             style="opacity:0.2"
             id="polygon1966" />
          <polygon
             points="400.87,317.1 401.27,307.98 390.33,309.01 389.93,318.13 "
             style="opacity:0.2"
             id="polygon1968" />
          <path
             d="m 219.75,187 c 0,0 4.09,20.2 24.53,38 2.58,2.24 2.07,8 5.62,7.52 12.43,-7.84 25.16,-15.56 31.2,-19.38 0.15,-6.88 -4.56,-5.77 -5.67,-9.47 -2.66,-8.81 -9.95,-18.74 -17.49,-40.43 a 108.11,108.11 0 0 0 -14.4,6.64 129.18,129.18 0 0 0 -14.22,9 119.38,119.38 0 0 0 -9.57,8.12 z"
             style="fill:#db2777"
             id="path1970" />
          <path
             d="m 232,154.75 c 2,5.14 6.39,14.08 11.52,15.11 0,0 3.1,14.82 -3,23 -9.59,-1.59 -11.21,-14.07 -11.21,-14.07 4.33,-4.44 1.81,-8.14 -1.32,-11.13 z"
             style="fill:#ffb573"
             id="path1972" />
          <path
             d="m 234.62,193.67 a 4,4 0 0 1 -2.84,-1.34 c -1.86,-1.91 -1.22,-4.82 -0.54,-7.91 0.68,-3.09 1.36,-6.19 0,-8.95 a 0.28398944,0.28398944 0 1 1 0.51,-0.25 c 1.47,2.93 0.73,6.33 0.07,9.32 -0.66,2.99 -1.25,5.71 0.4,7.39 a 3.21,3.21 0 0 0 4.63,0.34 c 3.28,-2.43 5.37,-9.28 3,-13.5 -2.17,-4 0,-7.46 1,-9.14 a 5.35,5.35 0 0 0 0.48,-0.85 0.27,0.27 0 0 1 0.21,-0.33 0.29,0.29 0 0 1 0.34,0.23 c 0.06,0.27 -0.14,0.6 -0.54,1.25 -1.07,1.71 -3.06,4.91 -1,8.57 2.45,4.45 0.25,11.66 -3.2,14.23 a 4.28,4.28 0 0 1 -2.52,0.94 z"
             style="fill:#263238"
             id="path1974" />
          <path
             d="m 230.38,160 -2.38,7.7 a 17.79,17.79 0 0 1 2,2.25 c 1.77,-1.51 3.6,-5.11 2.52,-7.29 A 9.84,9.84 0 0 0 230.38,160 Z"
             style="opacity:0.2"
             id="path1976" />
          <path
             d="m 231.57,144.4 c 2.77,8.62 4.13,12.2 1.57,18.18 -3.85,9 -15,10.51 -20.33,2.9 -4.76,-6.85 -8.49,-19.79 -1.56,-26.35 a 12.34,12.34 0 0 1 20.32,5.27 z"
             style="fill:#ffb573"
             id="path1978" />
          <path
             d="m 213.71,142.29 c 0.59,4.71 10.72,10.12 20.11,7.91 6.56,-1.55 1.46,-13.07 -6.34,-15.09 -7.8,-2.02 -14.74,-0.53 -13.77,7.18 z"
             style="fill:#263238"
             id="path1980" />
          <path
             d="m 218.05,142.26 -19.82,2.47 c 0,0 5.59,-13.37 19.82,-2.47 z"
             style="fill:#263238"
             id="path1982" />
          <path
             d="m 216.79,142 -16.13,7 c 0,0 1.46,-12.7 16.13,-7 z"
             style="fill:#263238"
             id="path1984" />
          <path
             d="m 215.13,142 -4.5,6.38 c 0,0 -2.4,-5.12 4.5,-6.38 z"
             style="fill:#263238"
             id="path1986" />
          <path
             d="M 217.59,142 201,138.14 c 0,0 8.45,-9.03 16.59,3.86 z"
             style="fill:#263238"
             id="path1988" />
          <path
             d="m 215.89,142.38 -7.77,-9.64 c 0,0 8.88,-1.42 7.77,9.64 z"
             style="fill:#263238"
             id="path1990" />
          <path
             d="m 235.85,151.48 a 6.63,6.63 0 0 1 -0.65,5 c -1.16,2 -3.36,1.35 -4.38,-0.59 -0.92,-1.75 -1.42,-4.91 0.4,-6.25 a 3,3 0 0 1 4.63,1.84 z"
             style="fill:#ffb573"
             id="path1992" />
          <path
             d="m 250.61,233.24 c 0,0 4,81.24 19.32,104.42 16,24.12 55.3,49.91 55.3,49.91 l 11,-9.32 c 0,0 -37,-35 -45.18,-55.35 -11.32,-28.08 -13.43,-106.73 -13.43,-106.73 z"
             style="fill:#263238"
             id="path1994" />
          <polygon
             points="318.72,385.39 331.74,372.26 337.24,377.47 324.94,388.77 "
             style="fill:#db2777"
             id="polygon1996" />
          <path
             d="m 268.87,234.89 c -0.13,9.59 5.35,22.51 12.34,30.77 -0.76,-7.62 -1.38,-15 -1.88,-21.63 -3.51,-3.9 -7.14,-7.31 -10.46,-9.14 z"
             style="opacity:0.2"
             id="path1998" />
          <path
             d="m 258.87,228 c 0,0 37.89,50.08 61.37,77 19,21.71 77.7,14.42 77.7,14.42 v -12.56 c 0,0 -42.14,1 -55.16,-13.64 -41.64,-47 -42,-72.1 -60.85,-79.74 z"
             style="fill:#263238"
             id="path2000" />
          <polygon
             points="390.06,324.38 390.44,304.86 398.21,304.78 398.24,322.1 "
             style="fill:#db2777"
             id="polygon2002" />
          <path
             d="m 281.22,211.34 3.18,1.91 c 0.25,0.14 0.13,0.53 -0.23,0.76 l -32.83,20.73 c -0.28,0.18 -0.61,0.19 -0.74,0 l -2,-2.63 c -0.14,-0.18 0,-0.5 0.31,-0.69 l 31.7,-20 a 0.68,0.68 0 0 1 0.61,-0.08 z"
             style="fill:#db2777"
             id="path2004" />
          <path
             d="m 281.22,211.34 3.18,1.91 c 0.25,0.14 0.13,0.53 -0.23,0.76 l -32.83,20.73 c -0.28,0.18 -0.61,0.19 -0.74,0 l -2,-2.63 c -0.14,-0.18 0,-0.5 0.31,-0.69 l 31.7,-20 a 0.68,0.68 0 0 1 0.61,-0.08 z"
             style="opacity:0.4"
             id="path2006" />
          <path
             d="m 279.2,217.57 0.85,-0.54 c 0.17,-0.1 0.24,-0.27 0.16,-0.37 l -2.69,-3.39 c -0.08,-0.1 -0.29,-0.09 -0.45,0 l -0.85,0.54 c -0.17,0.11 -0.25,0.28 -0.17,0.37 l 2.7,3.39 a 0.36,0.36 0 0 0 0.45,0 z"
             style="fill:#263238"
             id="path2008" />
          <path
             d="m 253.92,233.54 0.84,-0.54 c 0.17,-0.1 0.25,-0.27 0.17,-0.37 l -2.7,-3.39 c -0.08,-0.1 -0.28,-0.09 -0.45,0 l -0.85,0.54 c -0.17,0.11 -0.24,0.28 -0.16,0.38 l 2.69,3.38 a 0.37,0.37 0 0 0 0.46,0 z"
             style="fill:#263238"
             id="path2010" />
          <path
             d="m 266.56,225.56 0.85,-0.54 c 0.17,-0.11 0.24,-0.28 0.16,-0.38 l -2.7,-3.38 c -0.07,-0.1 -0.28,-0.1 -0.45,0 l -0.85,0.54 c -0.17,0.1 -0.24,0.27 -0.16,0.37 l 2.7,3.39 c 0.08,0.11 0.28,0.1 0.45,0 z"
             style="fill:#263238"
             id="path2012" />
          <path
             d="m 219.73,151.74 c 0.27,0.68 0.12,1.38 -0.32,1.56 -0.44,0.18 -1,-0.24 -1.3,-0.93 -0.3,-0.69 -0.12,-1.38 0.33,-1.55 0.45,-0.17 1.02,0.24 1.29,0.92 z"
             style="fill:#263238"
             id="path2014" />
          <path
             d="m 212,154.77 c 0.27,0.68 0.12,1.38 -0.33,1.55 -0.45,0.17 -1,-0.24 -1.29,-0.92 -0.29,-0.68 -0.12,-1.38 0.33,-1.56 0.45,-0.18 1.01,0.24 1.29,0.93 z"
             style="fill:#263238"
             id="path2016" />
          <path
             d="m 210.91,153.8 -1.83,0.17 c 0,0 1.34,0.96 1.83,-0.17 z"
             style="fill:#263238"
             id="path2018" />
          <path
             d="m 214.5,155.14 a 19.49,19.49 0 0 1 -0.74,5.33 3.15,3.15 0 0 0 2.62,-0.5 z"
             style="fill:#ed893e"
             id="path2020" />
          <path
             d="m 219.82,161.74 a 0.22,0.22 0 0 1 -0.25,-0.13 0.21,0.21 0 0 1 0.12,-0.28 5.88,5.88 0 0 0 3.6,-3.86 0.21,0.21 0 0 1 0.25,-0.16 0.21,0.21 0 0 1 0.17,0.25 6.16,6.16 0 0 1 -3.86,4.17 z"
             style="fill:#263238"
             id="path2022" />
          <path
             d="m 220.08,149 a 0.45,0.45 0 0 1 -0.3,0 3.45,3.45 0 0 0 -3.12,-0.05 0.43,0.43 0 0 1 -0.59,-0.16 0.44,0.44 0 0 1 0.15,-0.59 4.3,4.3 0 0 1 3.94,0 0.44,0.44 0 0 1 0.2,0.58 0.43,0.43 0 0 1 -0.28,0.22 z"
             style="fill:#263238"
             id="path2024" />
          <path
             d="m 207,152.59 a 0.45,0.45 0 0 1 -0.2,0 0.43,0.43 0 0 1 -0.33,-0.51 4.26,4.26 0 0 1 2.53,-3.08 0.42,0.42 0 0 1 0.55,0.25 0.41,0.41 0 0 1 -0.25,0.55 3.43,3.43 0 0 0 -1.9,2.47 0.45,0.45 0 0 1 -0.4,0.32 z"
             style="fill:#263238"
             id="path2026" />
          <path
             d="m 261.3,162.25 0.66,-0.41 0.74,-0.47 c 0.51,-0.32 1,-0.65 1.52,-1 1,-0.68 2,-1.42 3,-2.15 a 66,66 0 0 0 5.7,-4.74 c 1.82,-1.67 3.57,-3.42 5.23,-5.26 l 1.93,-2.21 c 0.1,-0.12 0.22,-0.43 0.12,-1.17 a 9.37,9.37 0 0 0 -0.94,-2.59 25.62,25.62 0 0 0 -1.79,-2.9 57.35,57.35 0 0 0 -4.73,-5.7 144.16,144.16 0 0 0 -11.2,-10.59 l 2.64,-3.79 a 94.4,94.4 0 0 1 13.23,9.51 54.14,54.14 0 0 1 6,5.95 29.16,29.16 0 0 1 2.66,3.64 17.06,17.06 0 0 1 2.06,4.7 10.61,10.61 0 0 1 0.33,3.11 9.42,9.42 0 0 1 -0.83,3.46 9.59,9.59 0 0 1 -0.92,1.55 l -0.64,0.87 -1.25,1.7 a 74,74 0 0 1 -5.56,6.31 77.86,77.86 0 0 1 -6.3,5.59 c -1.11,0.86 -2.25,1.69 -3.43,2.48 -0.59,0.4 -1.19,0.79 -1.8,1.18 l -0.94,0.56 c -0.33,0.19 -0.61,0.35 -1.05,0.58 z"
             style="fill:#ffb573"
             id="path2028" />
          <path
             d="m 248.36,167.34 c 4.4,-4.83 18.57,-9.37 18.57,-9.37 l 4.55,23.16 c 0,0 -4.91,4.89 -10.86,3.21 -5.06,-1.43 -18.53,-10.12 -12.26,-17 z"
             style="fill:#db2777"
             id="path2030" />
          <path
             d="m 411,321.27 a 1.36,1.36 0 0 1 -0.81,0.33 0.74,0.74 0 0 1 -0.69,-0.27 c -0.72,-0.91 0.35,-4 0.47,-4.38 a 0.21,0.21 0 0 1 0.19,-0.15 0.24,0.24 0 0 1 0.21,0.12 c 0.55,1.08 1.4,3 0.85,4.06 a 1.23,1.23 0 0 1 -0.22,0.29 z m -0.79,-3.68 c -0.39,1.26 -0.75,3 -0.37,3.47 a 0.31,0.31 0 0 0 0.31,0.11 0.78,0.78 0 0 0 0.69,-0.4 c 0.27,-0.55 0.03,-1.72 -0.66,-3.18 z"
             style="fill:#db2777"
             id="path2032" />
          <path
             d="m 408.74,319.49 a 2.15,2.15 0 0 1 -1.21,0.68 0.75,0.75 0 0 1 -0.76,-0.56 1.09,1.09 0 0 1 0.06,-1 c 0.61,-1.17 3.15,-1.81 3.26,-1.84 a 0.21,0.21 0 0 1 0.21,0.06 0.22,0.22 0 0 1 0.05,0.21 6.49,6.49 0 0 1 -1.61,2.45 z m -1.24,-1 a 1.31,1.31 0 0 0 -0.29,0.36 0.69,0.69 0 0 0 0,0.61 c 0.1,0.26 0.23,0.28 0.34,0.28 0.63,0 1.82,-1.39 2.28,-2.4 a 6.42,6.42 0 0 0 -2.33,1.15 z"
             style="fill:#db2777"
             id="path2034" />
          <path
             d="m 335.78,398.09 a 3.54,3.54 0 0 1 -1.33,1.72 1.34,1.34 0 0 1 -1.17,0.08 0.65,0.65 0 0 1 -0.43,-0.49 c -0.2,-1.17 2.84,-3.84 3.45,-4.36 a 0.23,0.23 0 0 1 0.25,0 0.21,0.21 0 0 1 0.1,0.23 14,14 0 0 1 -0.87,2.82 z m -2.41,0.81 a 0.72,0.72 0 0 0 -0.09,0.42 c 0,0.06 0,0.12 0.15,0.16 a 0.89,0.89 0 0 0 0.81,-0.05 c 0.7,-0.38 1.37,-1.71 1.84,-3.63 a 13.71,13.71 0 0 0 -2.71,3.1 z"
             style="fill:#db2777"
             id="path2036" />
          <path
             d="m 336.64,395.29 -0.05,0.07 c -1,0.9 -3.77,2.34 -4.64,1.79 -0.19,-0.12 -0.38,-0.37 -0.22,-0.91 0.65,-2.05 4.59,-1.29 4.76,-1.25 a 0.2,0.2 0 0 1 0.16,0.15 0.26,0.26 0 0 1 -0.01,0.15 z m -4.44,0.95 a 0.5,0.5 0 0 0 -0.05,0.13 q -0.11,0.33 0,0.42 c 0.5,0.31 2.63,-0.6 3.76,-1.45 -0.91,-0.13 -3.18,-0.28 -3.71,0.9 z"
             style="fill:#db2777"
             id="path2038" />
          <path
             d="m 218.65,150.78 -1.83,0.17 c 0,0 1.35,0.95 1.83,-0.17 z"
             style="fill:#263238"
             id="path2040" />
        </g>
        <rect
           x="171"
           y="292.10001"
           width="87.68"
           height="8.6499996"
           style="fill:#db2777"
           id="rect2044" />
        <rect
           x="171"
           y="308.60999"
           width="58.130001"
           height="8.6499996"
           style="fill:#db2777"
           id="rect2046" />
        <rect
           x="173.60001"
           y="377.82001"
           width="32.150002"
           height="3.75"
           style="fill:#e0e0e0"
           id="rect2048" />
        <rect
           x="179.00999"
           y="384.95999"
           width="21.32"
           height="3.75"
           style="fill:#e0e0e0"
           id="rect2050" />
        <rect
           x="221.17"
           y="377.82001"
           width="32.150002"
           height="3.75"
           style="fill:#e0e0e0"
           id="rect2052" />
        <rect
           x="226.59"
           y="384.95999"
           width="21.32"
           height="3.75"
           style="fill:#e0e0e0"
           id="rect2054" />
        <rect
           x="270.22"
           y="377.82001"
           width="32.150002"
           height="3.75"
           style="fill:#e0e0e0"
           id="rect2056" />
        <rect
           x="275.64001"
           y="384.95999"
           width="21.32"
           height="3.75"
           style="fill:#e0e0e0"
           id="rect2058" />
        <path
           d="m 205.47,93.16 a 7.89,7.89 0 0 0 7.86,7.86 h 49.31 a 7.89,7.89 0 0 0 7.86,-7.86 z"
           style="fill:#db2777"
           id="path2060" />
        <circle
           cx="189.67"
           cy="351.29001"
           r="18.67"
           transform="rotate(-76.72,189.65929,351.28636)"
           style="fill:#db2777"
           id="circle2062" />
        <path
           d="m 192.28,348.57 c -4.53,-1.38 -7.35,-6.32 -7.35,-6.32 0,0 -1.43,-0.08 -1.5,1.22 a 6.39,6.39 0 0 0 1.88,4.71 l -2.18,-0.13 a 7.22,7.22 0 0 0 -2.31,0.25 l -0.72,0.2 a 2.38,2.38 0 0 0 -1.69,2.87 l 1,4.24 a 5.29,5.29 0 0 0 5.89,4 c 2.22,-0.33 5.67,-0.83 6.27,-0.94 v 0 l 1.58,-0.13 0.54,-9.51 z"
           style="fill:#ffffff"
           id="path2064" />
        <rect
           x="192.41"
           y="347.26001"
           width="7.8299999"
           height="12.53"
           rx="1.8847152"
           style="fill:#263238"
           id="rect2066"
           ry="1.8847152" />
        <circle
           cx="286.29999"
           cy="351.29001"
           r="18.67"
           transform="rotate(-76.72,286.27892,351.29164)"
           style="fill:#db2777"
           id="circle2068" />
        <path
           d="m 286.3,341.55 a 9.2,9.2 0 0 0 -2.1,18.15 l 2.1,2.67 2.1,-2.67 v 0 a 9.2,9.2 0 0 0 -2.1,-18.15 z m 0,13 a 3.83,3.83 0 1 1 3.83,-3.83 3.83,3.83 0 0 1 -3.83,3.86 z"
           style="fill:#ffffff"
           id="path2070" />
        <circle
           cx="237.98"
           cy="351.29001"
           r="18.67"
           transform="rotate(-45,237.98115,351.29498)"
           style="fill:#db2777"
           id="circle2072" />
        <path
           d="m 242.31,347 a 0.44,0.44 0 0 0 -0.25,-0.47 7.46,7.46 0 0 0 -3,-0.6 6.73,6.73 0 0 0 -6.72,6.72 c 0,2.48 1.66,3.78 3.3,3.78 a 4.35,4.35 0 0 0 3.53,-1.7 2.45,2.45 0 0 0 0.55,1 2.37,2.37 0 0 0 1.73,0.7 c 2.56,0 5.16,-2.32 5.16,-6.75 a 7.78,7.78 0 0 0 -8.16,-8.1 c -5.76,0 -10.11,4.57 -10.11,10.62 0,5.05 3.56,8.71 8.47,8.71 a 10,10 0 0 0 4.92,-1.11 0.43,0.43 0 0 0 0.2,-0.53 l -0.42,-1.14 a 0.4,0.4 0 0 0 -0.26,-0.25 0.39,0.39 0 0 0 -0.35,0 7.87,7.87 0 0 1 -3.8,0.88 c -3.82,0 -6.39,-2.71 -6.39,-6.74 0,-4.85 3.17,-8.38 7.53,-8.38 3.7,0 6,2.37 6,6.18 a 5.51,5.51 0 0 1 -1.28,3.89 1.72,1.72 0 0 1 -1.14,0.54 0.43,0.43 0 0 1 -0.34,-0.15 c -0.15,-0.19 -0.36,-0.74 0,-2.32 z m -3.59,1.2 a 4.41,4.41 0 0 1 0.83,0.08 l -0.48,2.6 c -0.27,1.51 -1.55,3.25 -2.81,3.25 -1.26,0 -1.32,-1 -1.32,-1.58 0,-2.39 1.73,-4.38 3.78,-4.38 z"
           style="fill:#ffffff"
           id="path2074" />
      </g>
    </g>
  </g>
</svg>
