<?xml version="1.0" encoding="UTF-8" standalone="no"?>
<svg
   xmlns:dc="http://purl.org/dc/elements/1.1/"
   xmlns:cc="http://creativecommons.org/ns#"
   xmlns:rdf="http://www.w3.org/1999/02/22-rdf-syntax-ns#"
   xmlns:svg="http://www.w3.org/2000/svg"
   xmlns="http://www.w3.org/2000/svg"
   xmlns:sodipodi="http://sodipodi.sourceforge.net/DTD/sodipodi-0.dtd"
   xmlns:inkscape="http://www.inkscape.org/namespaces/inkscape"
   width="230"
   height="170"
   viewBox="0 0 230 170"
   version="1.1"
   id="svg4353"
   inkscape:version="1.0.1 (3bc2e813f5, 2020-09-07)"
   sodipodi:docname="chat.svg"
   inkscape:export-filename="C:\Users\jakub\git\at8_online\static\img\chat.png"
   inkscape:export-xdpi="96"
   inkscape:export-ydpi="96">
  <defs
     id="defs4347">
    <clipPath
       id="freepik--clip-path--inject-1">
      <path
         d="M 175.37,119.69 H 300.6 a 4.36,4.36 0 0 1 4.36,4.36 v 152.76 a 4.36,4.36 0 0 1 -4.36,4.36 H 175.37 A 4.37,4.37 0 0 1 171,276.8 V 124.06 a 4.36,4.36 0 0 1 4.36,-4.36 z"
         style="fill:none"
         id="path1678" />
    </clipPath>
    <clipPath
       id="freepik--clip-path--inject-2">
      <circle
         cx="290.57001"
         cy="161.89"
         r="23.559999"
         transform="rotate(-45,290.56816,161.89273)"
         style="fill:#ffffff;stroke:#263238;stroke-miterlimit:10"
         id="circle3688" />
    </clipPath>
    <clipPath
       id="freepik--clip-path-2--inject-2">
      <path
         d="m 202.86,208.81 c 0,0 -14.9,5.58 -19,6.7 -4.1,1.12 -9.32,6 -10.81,12.67 -1.49,6.67 -2.23,35.4 -2.23,35.4 0,0 -13.79,4.1 -16.77,4.85 -2.98,0.75 -3.36,7.45 -3.36,7.45 a 11,11 0 0 1 -1.11,3.35 l -0.75,1.12 c 0,0 -2.61,-1.12 14.91,2.61 17.52,3.73 45.83,1.49 45.83,1.49 0,0 4.1,0.37 5.22,-4.84 1.12,-5.21 2.23,-12.67 3.72,-14.91 1.49,-2.24 3,-4.47 3,-11.18 0,-6.71 4.1,-25.71 3.73,-32.42 -0.37,-6.71 -6.33,-11.18 -13,-12.29 -6.67,-1.11 -9.38,0 -9.38,0 z"
         style="fill:#ffffff;stroke:#263238;stroke-linecap:round;stroke-linejoin:round"
         id="path3691" />
    </clipPath>
    <clipPath
       id="freepik--clip-path-3--inject-2">
      <path
         d="m 202.86,208.81 c 0,0 -14.9,5.58 -19,6.7 -4.1,1.12 -9.32,6 -10.81,12.67 -1.49,6.67 -2.23,35.4 -2.23,35.4 0,0 -13.79,4.1 -16.77,4.85 -2.98,0.75 -3.36,7.45 -3.36,7.45 a 11,11 0 0 1 -1.11,3.35 l -0.75,1.12 c 0,0 -2.61,-1.12 14.91,2.61 17.52,3.73 45.83,1.49 45.83,1.49 0,0 4.1,0.37 5.22,-4.84 1.12,-5.21 2.23,-12.67 3.72,-14.91 1.49,-2.24 3,-4.47 3,-11.18 0,-6.71 4.1,-25.71 3.73,-32.42 -0.37,-6.71 -6.33,-11.18 -13,-12.29 -6.67,-1.11 -9.38,0 -9.38,0 z"
         style="fill:none"
         id="path3694" />
    </clipPath>
    <clipPath
       id="freepik--clip-path-4--inject-2">
      <path
         d="m 213.3,194.27 c 0,0 -1.87,4.47 -3.73,9.69 -1.86,5.22 -4.47,8.94 -4.47,14.16 0,5.22 0,15.65 2.61,15.28 2.61,-0.37 11.55,-18.26 12.67,-19 1.12,-0.74 -3.73,-9.68 -3.73,-14.16 a 6.39,6.39 0 0 0 -3.35,-5.97 z"
         style="fill:#ffffff;stroke:#263238;stroke-linecap:round;stroke-linejoin:round"
         id="path3697" />
    </clipPath>
    <clipPath
       id="freepik--clip-path-5--inject-2">
      <path
         d="m 218.14,191.29 c 0,0 0,-7.45 -3.73,-6 -3.73,1.45 -2.6,11.18 -1.86,12.67 a 3.66,3.66 0 0 0 1.86,1.86 c 0,0 1.87,12.3 6.34,17.14 4.47,4.84 10.81,2.24 15.65,-1.11 4.84,-3.35 10.81,-20.85 10.81,-20.85 l -8.57,-10 -3.36,-11.18 c 0,0 -2.61,-0.38 -1.49,1.49 1.12,1.87 2.21,9.69 2.21,9.69 0,0 -5.56,7.78 -17.86,6.29 z"
         style="fill:#ffffff;stroke:#263238;stroke-linecap:round;stroke-linejoin:round"
         id="path3700" />
    </clipPath>
    <clipPath
       id="freepik--clip-path-6--inject-2">
      <path
         d="m 183.86,217 c 0,0 -7.83,1.87 -10.81,5.59 -2.98,3.72 -2.23,16 -0.37,21.24 1.86,5.24 10.06,28.32 10.06,28.32 l 11.55,-8.94 -5.21,-29.07"
         style="fill:#ffffff;stroke:#263238;stroke-linecap:round;stroke-linejoin:round"
         id="path3703" />
    </clipPath>
    <clipPath
       id="freepik--clip-path-7--inject-2">
      <path
         d="m 183.86,217 c 0,0 -7.83,1.87 -10.81,5.59 -2.98,3.72 -2.23,16 -0.37,21.24 1.86,5.24 10.06,28.32 10.06,28.32 l 11.55,-8.94 -5.21,-29.07"
         style="fill:none"
         id="path3706" />
    </clipPath>
    <clipPath
       id="freepik--clip-path-8--inject-2">
      <path
         d="m 254.29,246.07 a 15,15 0 0 1 -4.48,5.22 c -3.35,2.6 -7.33,2.76 -10.31,6.11 -2.98,3.35 -10.18,16.24 -16.89,19.22 -6.71,2.98 -12.67,0.38 -11.18,-6 1.49,-6.38 20.5,-16.39 25.34,-19.75 4.84,-3.36 11.93,-7.82 14.54,-7.45 a 3.38,3.38 0 0 1 2.98,2.65 z"
         style="fill:#ec4899;stroke:#263238;stroke-linecap:round;stroke-linejoin:round"
         id="path3709" />
    </clipPath>
    <clipPath
       id="freepik--clip-path-9--inject-2">
      <path
         d="m 249.06,240.12 c -2.42,1.2 -7.36,0.12 -7.36,0.12 0,0 -2.3,0.11 -4.65,0.43 a 6.34,6.34 0 0 1 1.38,-0.94 c 0,0 2.41,-0.86 3.44,-1.38 1.03,-0.52 0.86,-1.55 0.86,-2.41 0,-0.86 -2.93,0.52 -4,0.52 -1.07,0 -4.82,1 -5.85,3.27 a 12.39,12.39 0 0 0 -1,2.7 4.13,4.13 0 0 0 -0.86,1.62 c -0.3,2.67 -1,6.86 -1,6.86 0,0 -18.26,8.2 -26.83,10.81 0,0 -11.93,1.12 -14.16,4.47 -2.23,3.35 -3,8.94 0.37,11.92 3.37,2.98 6.33,1.12 9.69,0.38 3.36,-0.74 37.26,-23.85 37.26,-23.85 0,0 6,0 8.57,-3 2.57,-3 5.22,-8.2 5.59,-10.44 0.28,-1.35 -0.51,-1.32 -1.45,-1.08 z"
         style="fill:#ffffff;stroke:#263238;stroke-linecap:round;stroke-linejoin:round"
         id="path3712" />
    </clipPath>
  </defs>
  <sodipodi:namedview
     id="base"
     pagecolor="#ffffff"
     bordercolor="#666666"
     borderopacity="1.0"
     inkscape:pageopacity="0.0"
     inkscape:pageshadow="2"
     inkscape:zoom="1.914786"
     inkscape:cx="111.27241"
     inkscape:cy="81.248059"
     inkscape:document-units="px"
     inkscape:current-layer="layer1"
     inkscape:document-rotation="0"
     showgrid="false"
     units="px"
     inkscape:pagecheckerboard="true"
     inkscape:window-width="1267"
     inkscape:window-height="1198"
     inkscape:window-x="2601"
     inkscape:window-y="495"
     inkscape:window-maximized="0" />
  <metadata
     id="metadata4350">
    <rdf:RDF>
      <cc:Work
         rdf:about="">
        <dc:format>image/svg+xml</dc:format>
        <dc:type
           rdf:resource="http://purl.org/dc/dcmitype/StillImage" />
        <dc:title></dc:title>
      </cc:Work>
    </rdf:RDF>
  </metadata>
  <g
     inkscape:label="Layer 1"
     inkscape:groupmode="layer"
     id="layer1">
    <g
       id="g4345"
       transform="matrix(0.50894606,0,0,0.50894606,-11.200119,-39.89444)">
      <g
         id="freepik--background-simple--inject-2">
        <path
           d="m 421.94,312.55 c 22.55,-39.54 24.07,-92.21 8.5,-134.44 C 417,141.75 387.22,114 352.77,97.5 312.77,78.34 265.17,72.64 222.29,84.73 211,87.92 200,90.83 189.38,96.05 c -43.6,21.42 -35.19,74.21 -50.49,92.57 -12.87,15.44 -37.48,10.89 -53,22.73 C 44,243.29 43.92,324 92.23,349.27 143.48,376 366.09,410.47 421.94,312.55 Z"
           style="fill:#ec4899"
           id="path3717" />
        <path
           d="m 421.94,312.55 c 22.55,-39.54 24.07,-92.21 8.5,-134.44 C 417,141.75 387.22,114 352.77,97.5 312.77,78.34 265.17,72.64 222.29,84.73 211,87.92 200,90.83 189.38,96.05 c -43.6,21.42 -35.19,74.21 -50.49,92.57 -12.87,15.44 -37.48,10.89 -53,22.73 C 44,243.29 43.92,324 92.23,349.27 143.48,376 366.09,410.47 421.94,312.55 Z"
           style="opacity:0.7;fill:#ffffff"
           id="path3719" />
      </g>
      <g
         id="freepik--Floor--inject-2">
        <ellipse
           cx="246.17"
           cy="387.73999"
           rx="175"
           ry="24.67"
           style="fill:#ec4899"
           id="ellipse3722" />
        <ellipse
           cx="246.17"
           cy="387.73999"
           rx="175"
           ry="24.67"
           style="opacity:0.5;fill:#ffffff"
           id="ellipse3724" />
      </g>
      <g
         id="freepik--Couch--inject-2">
        <path
           d="m 368.64,280.09 c 0,0 -1.87,-72.51 -27.51,-80.64 -26.15,-8.29 -54.08,-7.59 -81.16,-6.36 -25.54,1.16 -51.28,0.45 -76.76,2.14 -28.05,1.85 -38.44,14.73 -44.62,40.66 a 215.69,215.69 0 0 0 -5.61,44.2 l -6.25,18.76 h 248.16 z"
           style="fill:#ffffff;stroke:#263238;stroke-linecap:round;stroke-linejoin:round"
           id="path3727" />
        <path
           d="m 154.23,288.84 v -16.25 c 0,0 -0.62,-11.88 -14.38,-13.13 -13.76,-1.25 -51.26,28.13 -50.63,34.39 0.63,6.26 7.5,50.63 11.88,52.5 4.38,1.87 15.62,10.65 25.63,5.65 10.01,-5 27.5,-63.16 27.5,-63.16 z"
           style="fill:#ffffff;stroke:#263238;stroke-linecap:round;stroke-linejoin:round"
           id="path3729" />
        <path
           d="m 342.39,288.84 v -16.25 c 0,0 0.62,-11.88 14.38,-13.13 13.76,-1.25 51.23,28.13 50.63,34.39 -0.6,6.26 -7.5,50.63 -11.88,52.5 -4.38,1.87 -15.62,10.65 -25.63,5.65 -10.01,-5 -27.5,-63.16 -27.5,-63.16 z"
           style="fill:#ffffff;stroke:#263238;stroke-linecap:round;stroke-linejoin:round"
           id="path3731" />
        <path
           d="m 154.23,288.84 a 28.24,28.24 0 0 1 -3.29,2.93 c -8.41,6.94 -29.84,23.33 -29.84,23.33 H 376.77 L 342.39,287 Z"
           style="fill:#ffffff;stroke:#263238;stroke-linecap:round;stroke-linejoin:round"
           id="path3733" />
        <polygon
           points="121.1,340.94 376.6,340.94 376.77,315.1 121.1,315.1 "
           style="fill:#263238;stroke:#263238;stroke-linecap:round;stroke-linejoin:round"
           id="polygon3735" />
        <path
           d="m 113,366.36 -8,25.07 a 3.31,3.31 0 0 0 3.15,4.31 v 0 a 3.29,3.29 0 0 0 2.71,-1.42 l 19,-27.34 z"
           style="fill:#263238;stroke:#263238;stroke-linecap:round;stroke-linejoin:round"
           id="path3737" />
        <path
           d="m 384.86,366.36 8,25.07 a 3.31,3.31 0 0 1 -3.15,4.31 v 0 A 3.3,3.3 0 0 1 387,394.32 L 368,367 Z"
           style="fill:#263238;stroke:#263238;stroke-linecap:round;stroke-linejoin:round"
           id="path3739" />
        <path
           d="m 401.05,286.5 c -4.14,-2 -8.83,-2.34 -14.45,0.47 -11.26,5.62 -10,28.13 -10,28.13 v 25 H 121.1 v -25 c 0,0 1.25,-22.51 -10,-28.13 -5.63,-2.81 -10.32,-2.5 -14.46,-0.47 -7.19,3.53 -11,11.59 -9.92,19.53 1.76,13 5.09,35.61 8.13,44.7 4.37,13.13 4.37,15.63 13.75,18.75 8.13,2.71 112.67,0.72 140.25,0.15 27.58,0.57 132.11,2.56 140.25,-0.15 9.37,-3.12 9.37,-5.62 13.75,-18.75 3,-9.09 6.36,-31.67 8.12,-44.7 1.03,-7.94 -2.73,-16.03 -9.92,-19.53 z"
           style="fill:#263238;stroke:#263238;stroke-linecap:round;stroke-linejoin:round"
           id="path3741" />
        <line
           x1="365.84"
           y1="340.10001"
           x2="373.17001"
           y2="340.10001"
           style="fill:none;stroke:#ffffff;stroke-linecap:round;stroke-linejoin:round"
           id="line3743" />
        <line
           x1="121.1"
           y1="340.10001"
           x2="359.17001"
           y2="340.10001"
           style="fill:none;stroke:#ffffff;stroke-linecap:round;stroke-linejoin:round"
           id="line3745" />
      </g>
      <g
         id="freepik--Chat--inject-2">
        <circle
           cx="290.57001"
           cy="161.89"
           r="23.559999"
           transform="rotate(-45,290.56816,161.89273)"
           style="fill:#ffffff"
           id="circle3748" />
        <g
           clip-path="url(#freepik--clip-path--inject-2)"
           id="g3772">
          <path
             d="m 266.62,182.63 c 0,0 7.66,-7.45 11.92,-9.58 4.26,-2.13 9.57,0.21 12.34,2.77 2.77,2.56 9.79,11.49 9.79,11.49 h -36 z"
             style="fill:#ffffff;stroke:#263238;stroke-linecap:round;stroke-linejoin:round"
             id="path3750" />
          <path
             d="m 283.22,168.58 c 0,0 -5.53,1.07 -5.75,2.34 -0.22,1.27 3.83,14.69 3.83,14.69 l 4.9,-5.11 5.32,3.4 c 0,0 1.06,-8.93 -1.49,-13 a 5.64,5.64 0 0 0 -6.81,-2.32 z"
             style="fill:#ffffff;stroke:#263238;stroke-linecap:round;stroke-linejoin:round"
             id="path3752" />
          <path
             d="m 283,163.05 c 0,0 -1.07,8.3 0,10.43 1.07,2.13 3.19,10.64 3.61,8.3 0.42,-2.34 2.13,-12.35 2.13,-12.35 0,0 -1.26,-7.02 -5.74,-6.38 z"
             style="fill:#ffffff;stroke:#263238;stroke-linecap:round;stroke-linejoin:round"
             id="path3754" />
          <path
             d="m 302.58,154.54 c 0,0 -2.12,10 -4.25,14.25 -2.13,4.25 -4.47,6.81 -7.66,5.75 -3.19,-1.06 -6,-8.51 -6,-8.51 0,0 -2.77,-1.28 -3.62,-3.19 -0.85,-1.91 0.21,-3.2 2.56,-4.05 2.35,-0.85 0,-4.68 1.06,-7.66 1.06,-2.98 8.3,-0.64 10.43,-0.21 2.13,0.43 7.48,3.62 7.48,3.62 z"
             style="fill:#ffffff;stroke:#263238;stroke-linecap:round;stroke-linejoin:round"
             id="path3756" />
          <path
             d="m 294,161.74 c -0.07,0.76 -0.41,1.34 -0.76,1.31 -0.35,-0.03 -0.56,-0.68 -0.48,-1.43 0.08,-0.75 0.42,-1.34 0.76,-1.31 0.34,0.03 0.55,0.69 0.48,1.43 z"
             style="fill:#263238"
             id="path3758" />
          <path
             d="m 298.56,162.17 c -0.07,0.75 -0.41,1.34 -0.76,1.3 -0.35,-0.04 -0.56,-0.67 -0.48,-1.43 0.08,-0.76 0.42,-1.34 0.76,-1.3 0.34,0.04 0.56,0.67 0.48,1.43 z"
             style="fill:#263238"
             id="path3760" />
          <path
             d="m 296.82,160.34 c 0,0 -0.48,2.41 0,3.37 0.48,0.96 1.28,2.41 0,2.41 a 3.15,3.15 0 0 1 -2.09,-0.8"
             style="fill:none;stroke:#263238;stroke-linecap:round;stroke-linejoin:round"
             id="path3762" />
          <path
             d="m 295.53,168.37 c 0,0 -2.57,1 -3.85,-1"
             style="fill:none;stroke:#263238;stroke-linecap:round;stroke-linejoin:round"
             id="path3764" />
          <path
             d="m 291.84,158.57 a 1.92,1.92 0 0 1 2.41,-0.64"
             style="fill:none;stroke:#263238;stroke-linecap:round;stroke-linejoin:round"
             id="path3766" />
          <path
             d="m 297.3,158.89 a 1.4,1.4 0 0 1 2.25,0.65"
             style="fill:none;stroke:#263238;stroke-linecap:round;stroke-linejoin:round"
             id="path3768" />
          <path
             d="m 287.05,152.41 0.43,5.74 -3.62,3.62 c -0.85,0.85 -2.34,-3.19 -2.34,-3.19 0,0 -1.92,-8.09 -1.92,-11.49 0,-3.4 5.53,-3 5.53,-3 a 14.71,14.71 0 0 1 8.73,-2.77 c 4.89,0.22 14,6.39 14.68,10.22 0.68,3.83 -4.68,4.68 -9.79,3.83 a 100.34,100.34 0 0 1 -11.7,-2.96 z"
             style="fill:#263238;stroke:#263238;stroke-linecap:round;stroke-linejoin:round"
             id="path3770" />
        </g>
        <circle
           cx="290.57001"
           cy="161.89"
           r="23.559999"
           transform="rotate(-45,290.56816,161.89273)"
           style="fill:none;stroke:#263238;stroke-miterlimit:10"
           id="circle3774" />
        <path
           d="m 326.34,97.07 h -9.5 l 9.5,5.09 v 25.91 a 5,5 0 0 0 5,5 h 79 a 5,5 0 0 0 5,-5 v -26 a 5,5 0 0 0 -5,-5 z"
           style="fill:#ec4899;stroke:#263238;stroke-miterlimit:10"
           id="path3776" />
        <path
           d="m 354.5,113.4 a 3.67,3.67 0 1 0 -3.66,3.67 3.66,3.66 0 0 0 3.66,-3.67 z"
           style="fill:#263238"
           id="path3778" />
        <path
           d="m 374.17,113.4 a 3.67,3.67 0 1 0 -3.67,3.67 3.66,3.66 0 0 0 3.67,-3.67 z"
           style="fill:#263238"
           id="path3780" />
        <circle
           cx="390.17001"
           cy="113.4"
           r="3.6700001"
           style="fill:#263238"
           id="circle3782" />
        <path
           d="m 326.34,191.74 h -9.5 l 9.5,5.09 v 25.91 a 5,5 0 0 0 5,5 h 79 a 5,5 0 0 0 5,-5 v -26 a 5,5 0 0 0 -5,-5 z"
           style="fill:#ec4899;stroke:#263238;stroke-miterlimit:10"
           id="path3784" />
        <path
           d="m 354.5,208.07 a 3.67,3.67 0 1 0 -3.66,3.67 3.67,3.67 0 0 0 3.66,-3.67 z"
           style="fill:#263238"
           id="path3786" />
        <path
           d="m 374.17,208.07 a 3.67,3.67 0 1 0 -3.67,3.67 3.67,3.67 0 0 0 3.67,-3.67 z"
           style="fill:#263238"
           id="path3788" />
        <path
           d="m 393.84,208.07 a 3.67,3.67 0 1 0 -3.67,3.67 3.68,3.68 0 0 0 3.67,-3.67 z"
           style="fill:#263238"
           id="path3790" />
        <path
           d="m 326.34,145.74 h -9.5 l 9.5,5.09 v 25.91 a 5,5 0 0 0 5,5 h 79 a 5,5 0 0 0 5,-5 v -26 a 5,5 0 0 0 -5,-5 z"
           style="fill:#263238;stroke:#263238;stroke-miterlimit:10"
           id="path3792" />
        <path
           d="m 354.5,162.07 a 3.67,3.67 0 1 0 -3.66,3.67 3.67,3.67 0 0 0 3.66,-3.67 z"
           style="fill:#ec4899"
           id="path3794" />
        <path
           d="m 374.17,162.07 a 3.67,3.67 0 1 0 -3.67,3.67 3.67,3.67 0 0 0 3.67,-3.67 z"
           style="fill:#ec4899"
           id="path3796" />
        <path
           d="m 393.84,162.07 a 3.67,3.67 0 1 0 -3.67,3.67 3.68,3.68 0 0 0 3.67,-3.67 z"
           style="fill:#ec4899"
           id="path3798" />
      </g>
      <g
         id="freepik--Character--inject-2">
        <path
           d="m 204.84,276.74 c 0,0 13,-1.67 21.66,1.33 8.66,3 9.34,16.33 9,27.67 -0.34,11.34 -4.66,58.33 -4.66,65 0,6.67 0,13.33 -2.67,18.66 -2.67,5.33 -10.33,7.67 -13.67,8.34 -3.34,0.67 -4.33,-0.67 -4.33,-0.67 0,0 -4,0.33 -4,-1.67 0,-2 3.67,-2 5.67,-4 2,-2 6.66,-10.66 7.66,-15.66 a 119.28,119.28 0 0 0 1.67,-15.34 c 0.33,-5 -3,-26.66 -5.33,-38 -2.33,-11.34 -2.34,-13 -4.34,-21 -2,-8 -7,-18.33 -6.66,-24.66 z"
           style="fill:#ec4899;stroke:#263238;stroke-linecap:round;stroke-linejoin:round"
           id="path3801" />
        <path
           d="m 230.84,371.28 a 15.88,15.88 0 0 1 -10.41,-1.76 c -0.23,2.1 -0.52,4.19 -0.93,6.22 -1,5 -5.66,13.66 -7.66,15.66 -2,2 -5.67,2 -5.67,4 0,2 4,1.67 4,1.67 0,0 1,1.33 4.33,0.67 3.33,-0.66 11,-3 13.67,-8.34 2.59,-5.18 2.66,-11.64 2.67,-18.12 z"
           style="fill:#ffffff;stroke:#263238;stroke-linecap:round;stroke-linejoin:round"
           id="path3803" />
        <path
           d="m 210.17,397.07 a 2.82,2.82 0 0 1 1.34,-2.38 3.67,3.67 0 0 0 1.68,-1.47"
           style="fill:none;stroke:#263238;stroke-linecap:round;stroke-linejoin:round"
           id="path3805" />
        <path
           d="m 212.77,397.73 a 7.56,7.56 0 0 1 1.15,-1.89 c 0.74,-0.84 2,-2.1 2,-2.1"
           style="fill:none;stroke:#263238;stroke-linecap:round;stroke-linejoin:round"
           id="path3807" />
        <path
           d="m 216.86,397.1 c 0,0 -0.84,-1.57 0.1,-2.1 a 13.66,13.66 0 0 0 2.1,-1.57"
           style="fill:none;stroke:#263238;stroke-linecap:round;stroke-linejoin:round"
           id="path3809" />
        <path
           d="m 220,396.07 a 5.87,5.87 0 0 1 1.17,-2.5 15.4,15.4 0 0 0 1.33,-1.5"
           style="fill:none;stroke:#263238;stroke-linecap:round;stroke-linejoin:round"
           id="path3811" />
        <path
           d="m 169.84,311.74 c 0,0 15.66,-1.67 27,-5.67 11.34,-4 17.33,-6 19.33,-14 2,-8 -2,-14.67 -14.33,-15.33 -12.33,-0.66 -30,0.66 -35.34,12.33 -5.34,11.67 -4.33,18.67 3.34,22.67 z"
           style="fill:#ec4899;stroke:#263238;stroke-linecap:round;stroke-linejoin:round"
           id="path3813" />
        <path
           d="m 202.86,208.81 c 0,0 -14.9,5.58 -19,6.7 -4.1,1.12 -9.32,6 -10.81,12.67 -1.49,6.67 -2.23,35.4 -2.23,35.4 0,0 -13.79,4.1 -16.77,4.85 -2.98,0.75 -3.36,7.45 -3.36,7.45 a 11,11 0 0 1 -1.11,3.35 l -0.75,1.12 c 0,0 -2.61,-1.12 14.91,2.61 17.52,3.73 45.83,1.49 45.83,1.49 0,0 4.1,0.37 5.22,-4.84 1.12,-5.21 2.23,-12.67 3.72,-14.91 1.49,-2.24 3,-4.47 3,-11.18 0,-6.71 4.1,-25.71 3.73,-32.42 -0.37,-6.71 -6.33,-11.18 -13,-12.29 -6.67,-1.11 -9.38,0 -9.38,0 z"
           style="fill:#ffffff"
           id="path3815" />
        <g
           clip-path="url(#freepik--clip-path-2--inject-2)"
           id="g3947">
          <g
             clip-path="url(#freepik--clip-path-3--inject-2)"
             id="g3945">
            <rect
               x="216.25"
               y="200.74001"
               width="29.25"
               height="23.75"
               style="fill:none"
               id="rect3817" />
            <rect
               x="216.25"
               y="200.74001"
               width="29.25"
               height="23.75"
               style="fill:#ffffff"
               id="rect3819" />
            <path
               d="m 223.5,216 c 0,0 -1.25,-3 -3.51,-3 -2.26,0 -3.52,3 -2.52,4.52 1,1.52 5,0.5 5,0.5 0,0 -2.26,2.52 -1.51,4 a 3.46,3.46 0 0 0 5.53,1 c 2.51,-2 -0.76,-4.27 -0.76,-4.27 0,0 3.27,0.25 4.27,-1.51 1,-1.76 -1,-5 -3,-4.52 -2,0.48 -3.5,3.28 -3.5,3.28 z"
               style="fill:#ec4899"
               id="path3821" />
            <path
               d="m 237.76,205.21 c 0,0 -1.25,-3 -3.51,-3 -2.26,0 -3.52,3 -2.51,4.52 1.01,1.52 5,0.5 5,0.5 0,0 -2.26,2.51 -1.51,4 a 3.47,3.47 0 0 0 5.53,1 c 2.51,-2 -0.76,-4.27 -0.76,-4.27 0,0 3.27,0.25 4.27,-1.51 1,-1.76 -1,-5 -3,-4.52 -2,0.48 -3.51,3.28 -3.51,3.28 z"
               style="fill:#ec4899"
               id="path3823" />
            <rect
               x="216.25"
               y="224.49001"
               width="29.25"
               height="23.75"
               style="fill:none"
               id="rect3825" />
            <rect
               x="216.25"
               y="224.49001"
               width="29.25"
               height="23.75"
               style="fill:#ffffff"
               id="rect3827" />
            <path
               d="m 223.5,239.79 c 0,0 -1.25,-3 -3.51,-3 -2.26,0 -3.52,3 -2.52,4.52 1,1.52 5,0.5 5,0.5 0,0 -2.26,2.52 -1.51,4 a 3.46,3.46 0 0 0 5.53,1 c 2.51,-2 -0.76,-4.27 -0.76,-4.27 0,0 3.27,0.26 4.27,-1.54 1,-1.8 -1,-5 -3,-4.52 -2,0.48 -3.5,3.31 -3.5,3.31 z"
               style="fill:#ec4899"
               id="path3829" />
            <path
               d="m 237.76,229 c 0,0 -1.25,-3 -3.51,-3 -2.26,0 -3.52,3 -2.51,4.52 1.01,1.52 5,0.5 5,0.5 0,0 -2.26,2.51 -1.51,4 a 3.47,3.47 0 0 0 5.53,1 c 2.51,-2 -0.76,-4.27 -0.76,-4.27 0,0 3.27,0.25 4.27,-1.51 1,-1.76 -1,-5 -3,-4.52 -2,0.48 -3.51,3.28 -3.51,3.28 z"
               style="fill:#ec4899"
               id="path3831" />
            <rect
               x="216.25"
               y="248.24001"
               width="29.25"
               height="23.75"
               style="fill:none"
               id="rect3833" />
            <rect
               x="216.25"
               y="248.24001"
               width="29.25"
               height="23.75"
               style="fill:#ffffff"
               id="rect3835" />
            <path
               d="m 223.5,263.54 c 0,0 -1.25,-3 -3.51,-3 -2.26,0 -3.52,3 -2.52,4.52 1,1.52 5,0.5 5,0.5 0,0 -2.26,2.52 -1.51,4 a 3.46,3.46 0 0 0 5.53,1 c 2.51,-2 -0.76,-4.27 -0.76,-4.27 0,0 3.27,0.25 4.27,-1.51 1,-1.76 -1,-5 -3,-4.52 -2,0.48 -3.5,3.28 -3.5,3.28 z"
               style="fill:#ec4899"
               id="path3837" />
            <path
               d="m 237.76,252.71 c 0,0 -1.25,-3 -3.51,-3 -2.26,0 -3.52,3 -2.51,4.52 1.01,1.52 5,0.5 5,0.5 0,0 -2.26,2.51 -1.51,4 a 3.47,3.47 0 0 0 5.53,1 c 2.51,-2 -0.76,-4.27 -0.76,-4.27 0,0 3.27,0.25 4.27,-1.51 1,-1.76 -1,-5 -3,-4.52 -2,0.48 -3.51,3.28 -3.51,3.28 z"
               style="fill:#ec4899"
               id="path3839" />
            <rect
               x="216.25"
               y="271.98999"
               width="29.25"
               height="23.75"
               style="fill:none"
               id="rect3841" />
            <rect
               x="216.25"
               y="271.98999"
               width="29.25"
               height="23.75"
               style="fill:#ffffff"
               id="rect3843" />
            <path
               d="m 223.5,287.29 c 0,0 -1.25,-3 -3.51,-3 -2.26,0 -3.52,3 -2.52,4.52 1,1.52 5,0.5 5,0.5 0,0 -2.26,2.52 -1.51,4 a 3.46,3.46 0 0 0 5.53,1 c 2.51,-2 -0.76,-4.27 -0.76,-4.27 0,0 3.27,0.25 4.27,-1.51 1,-1.76 -1,-5 -3,-4.52 -2,0.48 -3.5,3.28 -3.5,3.28 z"
               style="fill:#ec4899"
               id="path3845" />
            <path
               d="m 237.76,276.46 c 0,0 -1.25,-3 -3.51,-3 -2.26,0 -3.52,3 -2.51,4.52 1.01,1.52 5,0.5 5,0.5 0,0 -2.26,2.51 -1.51,4 a 3.47,3.47 0 0 0 5.53,1 c 2.51,-2 -0.76,-4.27 -0.76,-4.27 0,0 3.27,0.25 4.27,-1.51 1,-1.76 -1,-5 -3,-4.52 -2,0.48 -3.51,3.28 -3.51,3.28 z"
               style="fill:#ec4899"
               id="path3847" />
            <rect
               x="187"
               y="200.74001"
               width="29.25"
               height="23.75"
               style="fill:none"
               id="rect3849" />
            <rect
               x="187"
               y="200.74001"
               width="29.25"
               height="23.75"
               style="fill:#ffffff"
               id="rect3851" />
            <path
               d="m 194.25,216 c 0,0 -1.25,-3 -3.51,-3 -2.26,0 -3.52,3 -2.52,4.52 1,1.52 5,0.5 5,0.5 0,0 -2.26,2.52 -1.51,4 a 3.46,3.46 0 0 0 5.53,1 c 2.51,-2 -0.76,-4.27 -0.76,-4.27 0,0 3.27,0.25 4.27,-1.51 1,-1.76 -1,-5 -3,-4.52 -2,0.48 -3.5,3.28 -3.5,3.28 z"
               style="fill:#ec4899"
               id="path3853" />
            <path
               d="m 208.51,205.21 c 0,0 -1.25,-3 -3.51,-3 -2.26,0 -3.52,3 -2.51,4.52 1.01,1.52 5,0.5 5,0.5 0,0 -2.26,2.51 -1.51,4 a 3.47,3.47 0 0 0 5.53,1 c 2.51,-2 -0.76,-4.27 -0.76,-4.27 0,0 3.27,0.25 4.27,-1.51 1,-1.76 -1,-5 -3,-4.52 -2,0.48 -3.51,3.28 -3.51,3.28 z"
               style="fill:#ec4899"
               id="path3855" />
            <rect
               x="187"
               y="224.49001"
               width="29.25"
               height="23.75"
               style="fill:none"
               id="rect3857" />
            <rect
               x="187"
               y="224.49001"
               width="29.25"
               height="23.75"
               style="fill:#ffffff"
               id="rect3859" />
            <path
               d="m 194.25,239.79 c 0,0 -1.25,-3 -3.51,-3 -2.26,0 -3.52,3 -2.52,4.52 1,1.52 5,0.5 5,0.5 0,0 -2.26,2.52 -1.51,4 a 3.46,3.46 0 0 0 5.53,1 c 2.51,-2 -0.76,-4.27 -0.76,-4.27 0,0 3.27,0.25 4.27,-1.51 1,-1.76 -1,-5 -3,-4.52 -2,0.48 -3.5,3.28 -3.5,3.28 z"
               style="fill:#ec4899"
               id="path3861" />
            <path
               d="m 208.51,229 c 0,0 -1.25,-3 -3.51,-3 -2.26,0 -3.52,3 -2.51,4.52 1.01,1.52 5,0.5 5,0.5 0,0 -2.26,2.51 -1.51,4 a 3.47,3.47 0 0 0 5.53,1 c 2.51,-2 -0.76,-4.27 -0.76,-4.27 0,0 3.27,0.25 4.27,-1.51 1,-1.76 -1,-5 -3,-4.52 -2,0.48 -3.51,3.28 -3.51,3.28 z"
               style="fill:#ec4899"
               id="path3863" />
            <rect
               x="187"
               y="248.24001"
               width="29.25"
               height="23.75"
               style="fill:none"
               id="rect3865" />
            <rect
               x="187"
               y="248.24001"
               width="29.25"
               height="23.75"
               style="fill:#ffffff"
               id="rect3867" />
            <path
               d="m 194.25,263.54 c 0,0 -1.25,-3 -3.51,-3 -2.26,0 -3.52,3 -2.52,4.52 1,1.52 5,0.5 5,0.5 0,0 -2.26,2.52 -1.51,4 a 3.46,3.46 0 0 0 5.53,1 c 2.51,-2 -0.76,-4.27 -0.76,-4.27 0,0 3.27,0.25 4.27,-1.51 1,-1.76 -1,-5 -3,-4.52 -2,0.48 -3.5,3.28 -3.5,3.28 z"
               style="fill:#ec4899"
               id="path3869" />
            <path
               d="m 208.51,252.71 c 0,0 -1.25,-3 -3.51,-3 -2.26,0 -3.52,3 -2.51,4.52 1.01,1.52 5,0.5 5,0.5 0,0 -2.26,2.51 -1.51,4 a 3.47,3.47 0 0 0 5.53,1 c 2.51,-2 -0.76,-4.27 -0.76,-4.27 0,0 3.27,0.25 4.27,-1.51 1,-1.76 -1,-5 -3,-4.52 -2,0.48 -3.51,3.28 -3.51,3.28 z"
               style="fill:#ec4899"
               id="path3871" />
            <rect
               x="187"
               y="271.98999"
               width="29.25"
               height="23.75"
               style="fill:none"
               id="rect3873" />
            <rect
               x="187"
               y="271.98999"
               width="29.25"
               height="23.75"
               style="fill:#ffffff"
               id="rect3875" />
            <path
               d="m 194.25,287.29 c 0,0 -1.25,-3 -3.51,-3 -2.26,0 -3.52,3 -2.52,4.52 1,1.52 5,0.5 5,0.5 0,0 -2.26,2.52 -1.51,4 a 3.46,3.46 0 0 0 5.53,1 c 2.51,-2 -0.76,-4.27 -0.76,-4.27 0,0 3.27,0.25 4.27,-1.51 1,-1.76 -1,-5 -3,-4.52 -2,0.48 -3.5,3.28 -3.5,3.28 z"
               style="fill:#ec4899"
               id="path3877" />
            <path
               d="m 208.51,276.46 c 0,0 -1.25,-3 -3.51,-3 -2.26,0 -3.52,3 -2.51,4.52 1.01,1.52 5,0.5 5,0.5 0,0 -2.26,2.51 -1.51,4 a 3.47,3.47 0 0 0 5.53,1 c 2.51,-2 -0.76,-4.27 -0.76,-4.27 0,0 3.27,0.25 4.27,-1.51 1,-1.76 -1,-5 -3,-4.52 -2,0.48 -3.51,3.28 -3.51,3.28 z"
               style="fill:#ec4899"
               id="path3879" />
            <rect
               x="157.75"
               y="200.74001"
               width="29.25"
               height="23.75"
               style="fill:none"
               id="rect3881" />
            <rect
               x="157.75"
               y="200.74001"
               width="29.25"
               height="23.75"
               style="fill:#ffffff"
               id="rect3883" />
            <path
               d="m 165,216 c 0,0 -1.25,-3 -3.51,-3 -2.26,0 -3.52,3 -2.52,4.52 1,1.52 5,0.5 5,0.5 0,0 -2.26,2.52 -1.51,4 a 3.46,3.46 0 0 0 5.53,1 c 2.51,-2 -0.76,-4.27 -0.76,-4.27 0,0 3.27,0.25 4.27,-1.51 1,-1.76 -1,-5 -3,-4.52 -2,0.48 -3.5,3.28 -3.5,3.28 z"
               style="fill:#ec4899"
               id="path3885" />
            <path
               d="m 179.26,205.21 c 0,0 -1.25,-3 -3.51,-3 -2.26,0 -3.52,3 -2.51,4.52 1.01,1.52 5,0.5 5,0.5 0,0 -2.26,2.51 -1.51,4 a 3.47,3.47 0 0 0 5.53,1 c 2.51,-2 -0.76,-4.27 -0.76,-4.27 0,0 3.27,0.25 4.27,-1.51 1,-1.76 -1,-5 -3,-4.52 -2,0.48 -3.51,3.28 -3.51,3.28 z"
               style="fill:#ec4899"
               id="path3887" />
            <rect
               x="157.75"
               y="224.49001"
               width="29.25"
               height="23.75"
               style="fill:none"
               id="rect3889" />
            <rect
               x="157.75"
               y="224.49001"
               width="29.25"
               height="23.75"
               style="fill:#ffffff"
               id="rect3891" />
            <path
               d="m 165,239.79 c 0,0 -1.25,-3 -3.51,-3 -2.26,0 -3.52,3 -2.52,4.52 1,1.52 5,0.5 5,0.5 0,0 -2.26,2.52 -1.51,4 a 3.46,3.46 0 0 0 5.53,1 c 2.51,-2 -0.76,-4.27 -0.76,-4.27 0,0 3.27,0.25 4.27,-1.51 1,-1.76 -1,-5 -3,-4.52 -2,0.48 -3.5,3.28 -3.5,3.28 z"
               style="fill:#ec4899"
               id="path3893" />
            <path
               d="m 179.26,229 c 0,0 -1.25,-3 -3.51,-3 -2.26,0 -3.52,3 -2.51,4.52 1.01,1.52 5,0.5 5,0.5 0,0 -2.26,2.51 -1.51,4 a 3.47,3.47 0 0 0 5.53,1 c 2.51,-2 -0.76,-4.27 -0.76,-4.27 0,0 3.27,0.25 4.27,-1.51 1,-1.76 -1,-5 -3,-4.52 -2,0.48 -3.51,3.28 -3.51,3.28 z"
               style="fill:#ec4899"
               id="path3895" />
            <rect
               x="157.75"
               y="248.24001"
               width="29.25"
               height="23.75"
               style="fill:none"
               id="rect3897" />
            <rect
               x="157.75"
               y="248.24001"
               width="29.25"
               height="23.75"
               style="fill:#ffffff"
               id="rect3899" />
            <path
               d="m 165,263.54 c 0,0 -1.25,-3 -3.51,-3 -2.26,0 -3.52,3 -2.52,4.52 1,1.52 5,0.5 5,0.5 0,0 -2.26,2.52 -1.51,4 a 3.46,3.46 0 0 0 5.53,1 c 2.51,-2 -0.76,-4.27 -0.76,-4.27 0,0 3.27,0.25 4.27,-1.51 1,-1.76 -1,-5 -3,-4.52 -2,0.48 -3.5,3.28 -3.5,3.28 z"
               style="fill:#ec4899"
               id="path3901" />
            <path
               d="m 179.26,252.71 c 0,0 -1.25,-3 -3.51,-3 -2.26,0 -3.52,3 -2.51,4.52 1.01,1.52 5,0.5 5,0.5 0,0 -2.26,2.51 -1.51,4 a 3.47,3.47 0 0 0 5.53,1 c 2.51,-2 -0.76,-4.27 -0.76,-4.27 0,0 3.27,0.25 4.27,-1.51 1,-1.76 -1,-5 -3,-4.52 -2,0.48 -3.51,3.28 -3.51,3.28 z"
               style="fill:#ec4899"
               id="path3903" />
            <rect
               x="157.75"
               y="271.98999"
               width="29.25"
               height="23.75"
               style="fill:none"
               id="rect3905" />
            <rect
               x="157.75"
               y="271.98999"
               width="29.25"
               height="23.75"
               style="fill:#ffffff"
               id="rect3907" />
            <path
               d="m 165,287.29 c 0,0 -1.25,-3 -3.51,-3 -2.26,0 -3.52,3 -2.52,4.52 1,1.52 5,0.5 5,0.5 0,0 -2.26,2.52 -1.51,4 a 3.46,3.46 0 0 0 5.53,1 c 2.51,-2 -0.76,-4.27 -0.76,-4.27 0,0 3.27,0.25 4.27,-1.51 1,-1.76 -1,-5 -3,-4.52 -2,0.48 -3.5,3.28 -3.5,3.28 z"
               style="fill:#ec4899"
               id="path3909" />
            <path
               d="m 179.26,276.46 c 0,0 -1.25,-3 -3.51,-3 -2.26,0 -3.52,3 -2.51,4.52 1.01,1.52 5,0.5 5,0.5 0,0 -2.26,2.51 -1.51,4 a 3.47,3.47 0 0 0 5.53,1 c 2.51,-2 -0.76,-4.27 -0.76,-4.27 0,0 3.27,0.25 4.27,-1.51 1,-1.76 -1,-5 -3,-4.52 -2,0.48 -3.51,3.28 -3.51,3.28 z"
               style="fill:#ec4899"
               id="path3911" />
            <rect
               x="128.5"
               y="200.74001"
               width="29.25"
               height="23.75"
               style="fill:none"
               id="rect3913" />
            <rect
               x="128.5"
               y="200.74001"
               width="29.25"
               height="23.75"
               style="fill:#ffffff"
               id="rect3915" />
            <path
               d="m 135.75,216 c 0,0 -1.25,-3 -3.51,-3 -2.26,0 -3.52,3 -2.52,4.52 1,1.52 5,0.5 5,0.5 0,0 -2.26,2.52 -1.51,4 a 3.46,3.46 0 0 0 5.53,1 c 2.51,-2 -0.76,-4.27 -0.76,-4.27 0,0 3.27,0.25 4.27,-1.51 1,-1.76 -1,-5 -3,-4.52 -2,0.48 -3.5,3.28 -3.5,3.28 z"
               style="fill:#ec4899"
               id="path3917" />
            <path
               d="m 150,205.21 c 0,0 -1.25,-3 -3.51,-3 -2.26,0 -3.52,3 -2.51,4.52 1.01,1.52 5,0.5 5,0.5 0,0 -2.26,2.51 -1.51,4 a 3.47,3.47 0 0 0 5.53,1 c 2.51,-2 -0.76,-4.27 -0.76,-4.27 0,0 3.27,0.25 4.27,-1.51 1,-1.76 -1,-5 -3,-4.52 -2,0.48 -3.51,3.28 -3.51,3.28 z"
               style="fill:#ec4899"
               id="path3919" />
            <rect
               x="128.5"
               y="224.49001"
               width="29.25"
               height="23.75"
               style="fill:none"
               id="rect3921" />
            <rect
               x="128.5"
               y="224.49001"
               width="29.25"
               height="23.75"
               style="fill:#ffffff"
               id="rect3923" />
            <path
               d="m 135.75,239.79 c 0,0 -1.25,-3 -3.51,-3 -2.26,0 -3.52,3 -2.52,4.52 1,1.52 5,0.5 5,0.5 0,0 -2.26,2.52 -1.51,4 a 3.46,3.46 0 0 0 5.53,1 c 2.51,-2 -0.76,-4.27 -0.76,-4.27 0,0 3.27,0.25 4.27,-1.51 1,-1.76 -1,-5 -3,-4.52 -2,0.48 -3.5,3.28 -3.5,3.28 z"
               style="fill:#ec4899"
               id="path3925" />
            <path
               d="m 150,229 c 0,0 -1.25,-3 -3.51,-3 -2.26,0 -3.52,3 -2.51,4.52 1.01,1.52 5,0.5 5,0.5 0,0 -2.26,2.51 -1.51,4 a 3.47,3.47 0 0 0 5.53,1 c 2.51,-2 -0.76,-4.27 -0.76,-4.27 0,0 3.27,0.25 4.27,-1.51 1,-1.76 -1,-5 -3,-4.52 -2,0.48 -3.51,3.28 -3.51,3.28 z"
               style="fill:#ec4899"
               id="path3927" />
            <rect
               x="128.5"
               y="248.24001"
               width="29.25"
               height="23.75"
               style="fill:none"
               id="rect3929" />
            <rect
               x="128.5"
               y="248.24001"
               width="29.25"
               height="23.75"
               style="fill:#ffffff"
               id="rect3931" />
            <path
               d="m 135.75,263.54 c 0,0 -1.25,-3 -3.51,-3 -2.26,0 -3.52,3 -2.52,4.52 1,1.52 5,0.5 5,0.5 0,0 -2.26,2.52 -1.51,4 a 3.46,3.46 0 0 0 5.53,1 c 2.51,-2 -0.76,-4.27 -0.76,-4.27 0,0 3.27,0.25 4.27,-1.51 1,-1.76 -1,-5 -3,-4.52 -2,0.48 -3.5,3.28 -3.5,3.28 z"
               style="fill:#ec4899"
               id="path3933" />
            <path
               d="m 150,252.71 c 0,0 -1.25,-3 -3.51,-3 -2.26,0 -3.52,3 -2.51,4.52 1.01,1.52 5,0.5 5,0.5 0,0 -2.26,2.51 -1.51,4 a 3.47,3.47 0 0 0 5.53,1 c 2.51,-2 -0.76,-4.27 -0.76,-4.27 0,0 3.27,0.25 4.27,-1.51 1,-1.76 -1,-5 -3,-4.52 -2,0.48 -3.51,3.28 -3.51,3.28 z"
               style="fill:#ec4899"
               id="path3935" />
            <rect
               x="128.5"
               y="271.98999"
               width="29.25"
               height="23.75"
               style="fill:none"
               id="rect3937" />
            <rect
               x="128.5"
               y="271.98999"
               width="29.25"
               height="23.75"
               style="fill:#ffffff"
               id="rect3939" />
            <path
               d="m 135.75,287.29 c 0,0 -1.25,-3 -3.51,-3 -2.26,0 -3.52,3 -2.52,4.52 1,1.52 5,0.5 5,0.5 0,0 -2.26,2.52 -1.51,4 a 3.46,3.46 0 0 0 5.53,1 c 2.51,-2 -0.76,-4.27 -0.76,-4.27 0,0 3.27,0.25 4.27,-1.51 1,-1.76 -1,-5 -3,-4.52 -2,0.48 -3.5,3.28 -3.5,3.28 z"
               style="fill:#ec4899"
               id="path3941" />
            <path
               d="m 150,276.46 c 0,0 -1.25,-3 -3.51,-3 -2.26,0 -3.52,3 -2.51,4.52 1.01,1.52 5,0.5 5,0.5 0,0 -2.26,2.51 -1.51,4 a 3.47,3.47 0 0 0 5.53,1 c 2.51,-2 -0.76,-4.27 -0.76,-4.27 0,0 3.27,0.25 4.27,-1.51 1,-1.76 -1,-5 -3,-4.52 -2,0.48 -3.51,3.28 -3.51,3.28 z"
               style="fill:#ec4899"
               id="path3943" />
          </g>
        </g>
        <path
           d="m 202.86,208.81 c 0,0 -14.9,5.58 -19,6.7 -4.1,1.12 -9.32,6 -10.81,12.67 -1.49,6.67 -2.23,35.4 -2.23,35.4 0,0 -13.79,4.1 -16.77,4.85 -2.98,0.75 -3.36,7.45 -3.36,7.45 a 11,11 0 0 1 -1.11,3.35 l -0.75,1.12 c 0,0 -2.61,-1.12 14.91,2.61 17.52,3.73 45.83,1.49 45.83,1.49 0,0 4.1,0.37 5.22,-4.84 1.12,-5.21 2.23,-12.67 3.72,-14.91 1.49,-2.24 3,-4.47 3,-11.18 0,-6.71 4.1,-25.71 3.73,-32.42 -0.37,-6.71 -6.33,-11.18 -13,-12.29 -6.67,-1.11 -9.38,0 -9.38,0 z"
           style="fill:none;stroke:#263238;stroke-linecap:round;stroke-linejoin:round"
           id="path3949" />
        <path
           d="m 174.24,274.13 c 0,0 -11.08,-0.88 -16,-4.38"
           style="fill:none;stroke:#263238;stroke-linecap:round;stroke-linejoin:round"
           id="path3951" />
        <path
           d="m 209.57,204 c 0,0 -6.33,-0.74 -8.2,2.61 a 25,25 0 0 0 -3.72,11.92 c -0.38,5.59 -0.75,14.91 -0.75,14.91 l 11.55,-5.59 12.67,6 c 0,0 -3.35,-13 -4.1,-19.75 -0.75,-6.75 -3.35,-10.88 -7.45,-10.1 z"
           style="fill:#ffffff;stroke:#263238;stroke-linecap:round;stroke-linejoin:round"
           id="path3953" />
        <path
           d="m 212.55,205.08 a 35,35 0 0 1 -7.08,-16.77 c -1.12,-9.69 2.61,-16.77 9.32,-20.49 6.71,-3.72 22.36,-7.46 28.32,-5.59 5.96,1.87 14.16,16.77 16.39,24.59 2.23,7.82 -0.74,23.85 -1.49,28.69 -0.75,4.84 0.75,25 2.61,36.15 1.86,11.15 -4.1,25.34 -15.62,28.69 -11.52,3.35 -23.48,0 -26.46,-8.2 -2.19,-6 -1.49,-20.49 1.12,-30.55 2.61,-10.06 2.61,-25.34 2.61,-29.81 0,-4.47 -9.72,-6.71 -9.72,-6.71 z"
           style="fill:#263238;stroke:#263238;stroke-linecap:round;stroke-linejoin:round"
           id="path3955" />
        <path
           d="m 233.5,181.32 c 0,0 3,4 -8,2.66 -11,-1.34 -15.92,-4 -17.25,0.33"
           style="fill:none;stroke:#ffffff;stroke-linecap:round;stroke-linejoin:round"
           id="path3957" />
        <path
           d="m 208,181 c 0,0 0,-8 7.63,-8 7.63,0 14.15,3.24 16.92,2"
           style="fill:none;stroke:#ffffff;stroke-linecap:round;stroke-linejoin:round"
           id="path3959" />
        <path
           d="m 240.47,181 a 21.58,21.58 0 0 0 8,9.29 c 6,4 10.32,13.91 9.95,19.57"
           style="fill:none;stroke:#ffffff;stroke-linecap:round;stroke-linejoin:round"
           id="path3961" />
        <path
           d="m 248.43,197.91 a 191.47,191.47 0 0 0 3,22.89 c 2.65,14.92 5,38.81 -1.66,49.09 -6.66,10.28 -13.27,11.28 -19.24,7.63"
           style="fill:none;stroke:#ffffff;stroke-linecap:round;stroke-linejoin:round"
           id="path3963" />
        <path
           d="m 247.77,204.54 c 0,0 0.33,49.1 -7.3,56.39 -7.63,7.29 -20.57,3.65 -18.91,-18.57"
           style="fill:none;stroke:#ffffff;stroke-linecap:round;stroke-linejoin:round"
           id="path3965" />
        <path
           d="m 213.3,194.27 c 0,0 -1.87,4.47 -3.73,9.69 -1.86,5.22 -4.47,8.94 -4.47,14.16 0,5.22 0,15.65 2.61,15.28 2.61,-0.37 11.55,-18.26 12.67,-19 1.12,-0.74 -3.73,-9.68 -3.73,-14.16 a 6.39,6.39 0 0 0 -3.35,-5.97 z"
           style="fill:#ffffff"
           id="path3967" />
        <g
           clip-path="url(#freepik--clip-path-4--inject-2)"
           id="g3973">
          <path
             d="m 216.65,200.23 a 6.39,6.39 0 0 0 -3.35,-6 c 0,0 -1.87,4.47 -3.73,9.69 -0.26,0.72 -0.53,1.4 -0.8,2.07 a 26.67,26.67 0 0 0 2.58,4.34 l 4.26,5.9 c 0,0 -4.36,9.33 -7.1,12.69 a 9.23,9.23 0 0 1 -2.56,2.11 c 0.38,1.5 0.94,2.45 1.76,2.33 2.61,-0.37 11.55,-18.26 12.67,-19 1.12,-0.74 -3.73,-9.65 -3.73,-14.13 z"
             style="fill:#ec4899"
             id="path3969" />
          <path
             d="m 216.65,200.23 a 6.39,6.39 0 0 0 -3.35,-6 c 0,0 -1.87,4.47 -3.73,9.69 -0.26,0.72 -0.53,1.4 -0.8,2.07 a 26.67,26.67 0 0 0 2.58,4.34 l 4.26,5.9 c 0,0 -4.36,9.33 -7.1,12.69 a 9.23,9.23 0 0 1 -2.56,2.11 c 0.38,1.5 0.94,2.45 1.76,2.33 2.61,-0.37 11.55,-18.26 12.67,-19 1.12,-0.74 -3.73,-9.65 -3.73,-14.13 z"
             style="opacity:0.5;fill:#ffffff"
             id="path3971" />
        </g>
        <path
           d="m 213.3,194.27 c 0,0 -1.87,4.47 -3.73,9.69 -1.86,5.22 -4.47,8.94 -4.47,14.16 0,5.22 0,15.65 2.61,15.28 2.61,-0.37 11.55,-18.26 12.67,-19 1.12,-0.74 -3.73,-9.68 -3.73,-14.16 a 6.39,6.39 0 0 0 -3.35,-5.97 z"
           style="fill:none;stroke:#263238;stroke-linecap:round;stroke-linejoin:round"
           id="path3975" />
        <path
           d="m 176.5,273.74 c 0,0 -22.34,0.89 -27.67,6.61 -5.33,5.72 -9.33,20 -1.33,28.39 8,8.39 20,6 28.67,2.33 8.67,-3.67 17.67,-13 17.67,-13 0,0 -7.67,19.33 -9,29.67 -1.33,10.34 -4.34,62.33 -4.34,65.33 0,3 5,4.33 8.34,3.33 3.34,-1 13.33,-6.33 15,-6.33 1.67,0 7,-3.33 7.66,-4.33 0.66,-1 -0.66,-2.34 -0.66,-2.34 0,0 2.33,-0.66 2.33,-2.66 0,-2 -3,-1 -4.67,-0.67 -1.67,0.33 -11.66,0.33 -14,0.33 -2.34,0 -4.66,-1.33 -4.66,-2.66 0,-1.33 -0.34,-9 5.66,-22 6,-13 21.67,-51.67 22.34,-65 0.67,-13.33 -8.67,-14.67 -19,-15.67 -10.33,-1 -14,-1.33 -22.34,-1.33 z"
           style="fill:#ec4899;stroke:#263238;stroke-linecap:round;stroke-linejoin:round"
           id="path3977" />
        <path
           d="m 184.87,364.46 -0.53,5.48"
           style="fill:none;stroke:#263238;stroke-linecap:round;stroke-linejoin:round"
           id="path3979" />
        <path
           d="m 151.9,298.75 a 24.43,24.43 0 0 0 6.19,-2.08 c 8.37,-4 41.25,-13 44.43,-12.12 3.18,0.88 -3.46,5.77 -3.46,5.77 0,0 4.9,-3.17 4,-0.58 a 35.26,35.26 0 0 1 -1.73,4.33 c 0,0 -12.4,32.6 -13.56,42.12 -0.62,5.15 -1.58,14.61 -2.33,22.21"
           style="fill:none;stroke:#263238;stroke-linecap:round;stroke-linejoin:round"
           id="path3981" />
        <path
           d="m 144.53,298.4 a 10.06,10.06 0 0 0 2.91,0.61"
           style="fill:none;stroke:#263238;stroke-linecap:round;stroke-linejoin:round"
           id="path3983" />
        <path
           d="m 211.5,385.74 c 0.67,-1 -0.66,-2.34 -0.66,-2.34 0,0 2.33,-0.66 2.33,-2.66 0,-2 -3,-1 -4.67,-0.67 -1.67,0.33 -11.66,0.33 -14,0.33 -2.34,0 -4.66,-1.33 -4.66,-2.66 a 31.69,31.69 0 0 1 0.43,-5.72 14.83,14.83 0 0 1 -8.64,-0.09 c -0.65,11 -1.13,19.95 -1.13,21.14 0,3 5,4.33 8.34,3.33 3.34,-1 13.33,-6.33 15,-6.33 1.67,0 7,-3.33 7.66,-4.33 z"
           style="fill:#ffffff;stroke:#263238;stroke-linecap:round;stroke-linejoin:round"
           id="path3985" />
        <path
           d="m 210.84,383.4 a 7.93,7.93 0 0 0 -5.5,-0.33"
           style="fill:none;stroke:#263238;stroke-linecap:round;stroke-linejoin:round"
           id="path3987" />
        <path
           d="m 204.5,384.74 c 0,0 4.82,-1.56 6.53,1.28"
           style="fill:none;stroke:#263238;stroke-linecap:round;stroke-linejoin:round"
           id="path3989" />
        <path
           d="m 203.5,386.74 c 0,0 3.55,-1.43 5,0.7"
           style="fill:none;stroke:#263238;stroke-linecap:round;stroke-linejoin:round"
           id="path3991" />
        <path
           d="m 201.17,388.74 c 0,0 2.67,-0.34 2.67,1.33"
           style="fill:none;stroke:#263238;stroke-linecap:round;stroke-linejoin:round"
           id="path3993" />
        <path
           d="m 218.14,191.29 c 0,0 0,-7.45 -3.73,-6 -3.73,1.45 -2.6,11.18 -1.86,12.67 a 3.66,3.66 0 0 0 1.86,1.86 c 0,0 1.87,12.3 6.34,17.14 4.47,4.84 10.81,2.24 15.65,-1.11 4.84,-3.35 10.81,-20.85 10.81,-20.85 l -8.57,-10 -3.36,-11.18 c 0,0 -2.61,-0.38 -1.49,1.49 1.12,1.87 2.21,9.69 2.21,9.69 0,0 -5.56,7.78 -17.86,6.29 z"
           style="fill:#ffffff"
           id="path3995" />
        <g
           clip-path="url(#freepik--clip-path-5--inject-2)"
           id="g4001">
          <path
             d="m 238.64,185 -1.32,-4.4 -0.08,1 c 0,0 1.64,10.16 3.61,12.46 1.97,2.3 3,4.59 2,7.21 -1,2.62 -4.26,10.49 -9.5,13.44 -5.24,2.95 -7.87,3.93 -11.15,0.65 a 72.07,72.07 0 0 1 -5.7,-6.79 c 1,3.18 2.43,6.49 4.29,8.51 4.47,4.85 10.81,2.24 15.65,-1.11 4.84,-3.35 10.77,-20.97 10.77,-20.97 z"
             style="fill:#ec4899"
             id="path3997" />
          <path
             d="m 238.64,185 -1.32,-4.4 -0.08,1 c 0,0 1.64,10.16 3.61,12.46 1.97,2.3 3,4.59 2,7.21 -1,2.62 -4.26,10.49 -9.5,13.44 -5.24,2.95 -7.87,3.93 -11.15,0.65 a 72.07,72.07 0 0 1 -5.7,-6.79 c 1,3.18 2.43,6.49 4.29,8.51 4.47,4.85 10.81,2.24 15.65,-1.11 4.84,-3.35 10.77,-20.97 10.77,-20.97 z"
             style="opacity:0.5;fill:#ffffff"
             id="path3999" />
        </g>
        <path
           d="m 218.14,191.29 c 0,0 0,-7.45 -3.73,-6 -3.73,1.45 -2.6,11.18 -1.86,12.67 a 3.66,3.66 0 0 0 1.86,1.86 c 0,0 1.87,12.3 6.34,17.14 4.47,4.84 10.81,2.24 15.65,-1.11 4.84,-3.35 10.81,-20.85 10.81,-20.85 l -8.57,-10 -3.36,-11.18 c 0,0 -2.61,-0.38 -1.49,1.49 1.12,1.87 2.21,9.69 2.21,9.69 0,0 -5.56,7.78 -17.86,6.29 z"
           style="fill:none;stroke:#263238;stroke-linecap:round;stroke-linejoin:round"
           id="path4003" />
        <path
           d="m 231.63,201.4 c -0.28,1.06 -0.89,1.8 -1.37,1.68 -0.48,-0.12 -0.64,-1.09 -0.36,-2.14 0.28,-1.05 0.9,-1.8 1.38,-1.67 0.48,0.13 0.63,1.08 0.35,2.13 z"
           style="fill:#263238"
           id="path4005" />
        <path
           d="m 240.05,203 c -0.28,1 -0.9,1.8 -1.37,1.67 -0.47,-0.13 -0.64,-1.09 -0.36,-2.14 0.28,-1.05 0.9,-1.8 1.37,-1.67 0.47,0.13 0.64,1.14 0.36,2.14 z"
           style="fill:#263238"
           id="path4007" />
        <path
           d="m 228.62,196.52 c 0,0 2.69,-2.15 4.66,-0.18"
           style="fill:none;stroke:#263238;stroke-linecap:round;stroke-linejoin:round"
           id="path4009" />
        <path
           d="m 239.18,198 c 0,0 2.69,-1.79 3.23,1.61"
           style="fill:none;stroke:#263238;stroke-linecap:round;stroke-linejoin:round"
           id="path4011" />
        <path
           d="m 237.57,202.43 a 4.36,4.36 0 0 0 -1.43,2.86 4.94,4.94 0 0 0 1.07,2.87 c 0,0 -2.5,2 -4.65,0.71"
           style="fill:none;stroke:#263238;stroke-linecap:round;stroke-linejoin:round"
           id="path4013" />
        <path
           d="m 225.93,209.41 a 3.69,3.69 0 0 0 2.51,2.87"
           style="fill:none;stroke:#263238;stroke-linecap:round;stroke-linejoin:round"
           id="path4015" />
        <path
           d="m 213.22,190.43 c 0,0 0.36,-2.69 1.61,-2.51 1.25,0.18 1.08,2.87 1.08,2.87 0,0 -2.51,-0.36 -1.62,1.07 0.89,1.43 2,0.9 2,0.9"
           style="fill:none;stroke:#263238;stroke-linecap:round;stroke-linejoin:round"
           id="path4017" />
        <path
           d="m 183.86,217 c 0,0 -7.83,1.87 -10.81,5.59 -2.98,3.72 -2.23,16 -0.37,21.24 1.86,5.24 10.06,28.32 10.06,28.32 l 11.55,-8.94 -5.21,-29.07"
           style="fill:#ffffff"
           id="path4019" />
        <g
           clip-path="url(#freepik--clip-path-6--inject-2)"
           id="g4087">
          <g
             clip-path="url(#freepik--clip-path-7--inject-2)"
             id="g4085">
            <rect
               x="187"
               y="200.74001"
               width="29.25"
               height="23.75"
               style="fill:none"
               id="rect4021" />
            <rect
               x="187"
               y="200.74001"
               width="29.25"
               height="23.75"
               style="fill:#ffffff"
               id="rect4023" />
            <path
               d="m 194.25,216 c 0,0 -1.25,-3 -3.51,-3 -2.26,0 -3.52,3 -2.52,4.52 1,1.52 5,0.5 5,0.5 0,0 -2.26,2.52 -1.51,4 a 3.46,3.46 0 0 0 5.53,1 c 2.51,-2 -0.76,-4.27 -0.76,-4.27 0,0 3.27,0.25 4.27,-1.51 1,-1.76 -1,-5 -3,-4.52 -2,0.48 -3.5,3.28 -3.5,3.28 z"
               style="fill:#ec4899"
               id="path4025" />
            <path
               d="m 208.51,205.21 c 0,0 -1.25,-3 -3.51,-3 -2.26,0 -3.52,3 -2.51,4.52 1.01,1.52 5,0.5 5,0.5 0,0 -2.26,2.51 -1.51,4 a 3.47,3.47 0 0 0 5.53,1 c 2.51,-2 -0.76,-4.27 -0.76,-4.27 0,0 3.27,0.25 4.27,-1.51 1,-1.76 -1,-5 -3,-4.52 -2,0.48 -3.51,3.28 -3.51,3.28 z"
               style="fill:#ec4899"
               id="path4027" />
            <rect
               x="187"
               y="224.49001"
               width="29.25"
               height="23.75"
               style="fill:none"
               id="rect4029" />
            <rect
               x="187"
               y="224.49001"
               width="29.25"
               height="23.75"
               style="fill:#ffffff"
               id="rect4031" />
            <path
               d="m 194.25,239.79 c 0,0 -1.25,-3 -3.51,-3 -2.26,0 -3.52,3 -2.52,4.52 1,1.52 5,0.5 5,0.5 0,0 -2.26,2.52 -1.51,4 a 3.46,3.46 0 0 0 5.53,1 c 2.51,-2 -0.76,-4.27 -0.76,-4.27 0,0 3.27,0.25 4.27,-1.51 1,-1.76 -1,-5 -3,-4.52 -2,0.48 -3.5,3.28 -3.5,3.28 z"
               style="fill:#ec4899"
               id="path4033" />
            <path
               d="m 208.51,229 c 0,0 -1.25,-3 -3.51,-3 -2.26,0 -3.52,3 -2.51,4.52 1.01,1.52 5,0.5 5,0.5 0,0 -2.26,2.51 -1.51,4 a 3.47,3.47 0 0 0 5.53,1 c 2.51,-2 -0.76,-4.27 -0.76,-4.27 0,0 3.27,0.25 4.27,-1.51 1,-1.76 -1,-5 -3,-4.52 -2,0.48 -3.51,3.28 -3.51,3.28 z"
               style="fill:#ec4899"
               id="path4035" />
            <rect
               x="187"
               y="248.24001"
               width="29.25"
               height="23.75"
               style="fill:none"
               id="rect4037" />
            <rect
               x="187"
               y="248.24001"
               width="29.25"
               height="23.75"
               style="fill:#ffffff"
               id="rect4039" />
            <path
               d="m 194.25,263.54 c 0,0 -1.25,-3 -3.51,-3 -2.26,0 -3.52,3 -2.52,4.52 1,1.52 5,0.5 5,0.5 0,0 -2.26,2.52 -1.51,4 a 3.46,3.46 0 0 0 5.53,1 c 2.51,-2 -0.76,-4.27 -0.76,-4.27 0,0 3.27,0.25 4.27,-1.51 1,-1.76 -1,-5 -3,-4.52 -2,0.48 -3.5,3.28 -3.5,3.28 z"
               style="fill:#ec4899"
               id="path4041" />
            <path
               d="m 208.51,252.71 c 0,0 -1.25,-3 -3.51,-3 -2.26,0 -3.52,3 -2.51,4.52 1.01,1.52 5,0.5 5,0.5 0,0 -2.26,2.51 -1.51,4 a 3.47,3.47 0 0 0 5.53,1 c 2.51,-2 -0.76,-4.27 -0.76,-4.27 0,0 3.27,0.25 4.27,-1.51 1,-1.76 -1,-5 -3,-4.52 -2,0.48 -3.51,3.28 -3.51,3.28 z"
               style="fill:#ec4899"
               id="path4043" />
            <rect
               x="187"
               y="271.98999"
               width="29.25"
               height="23.75"
               style="fill:none"
               id="rect4045" />
            <rect
               x="187"
               y="271.98999"
               width="29.25"
               height="23.75"
               style="fill:#ffffff"
               id="rect4047" />
            <path
               d="m 194.25,287.29 c 0,0 -1.25,-3 -3.51,-3 -2.26,0 -3.52,3 -2.52,4.52 1,1.52 5,0.5 5,0.5 0,0 -2.26,2.52 -1.51,4 a 3.46,3.46 0 0 0 5.53,1 c 2.51,-2 -0.76,-4.27 -0.76,-4.27 0,0 3.27,0.25 4.27,-1.51 1,-1.76 -1,-5 -3,-4.52 -2,0.48 -3.5,3.28 -3.5,3.28 z"
               style="fill:#ec4899"
               id="path4049" />
            <path
               d="m 208.51,276.46 c 0,0 -1.25,-3 -3.51,-3 -2.26,0 -3.52,3 -2.51,4.52 1.01,1.52 5,0.5 5,0.5 0,0 -2.26,2.51 -1.51,4 a 3.47,3.47 0 0 0 5.53,1 c 2.51,-2 -0.76,-4.27 -0.76,-4.27 0,0 3.27,0.25 4.27,-1.51 1,-1.76 -1,-5 -3,-4.52 -2,0.48 -3.51,3.28 -3.51,3.28 z"
               style="fill:#ec4899"
               id="path4051" />
            <rect
               x="157.75"
               y="200.74001"
               width="29.25"
               height="23.75"
               style="fill:none"
               id="rect4053" />
            <rect
               x="157.75"
               y="200.74001"
               width="29.25"
               height="23.75"
               style="fill:#ffffff"
               id="rect4055" />
            <path
               d="m 165,216 c 0,0 -1.25,-3 -3.51,-3 -2.26,0 -3.52,3 -2.52,4.52 1,1.52 5,0.5 5,0.5 0,0 -2.26,2.52 -1.51,4 a 3.46,3.46 0 0 0 5.53,1 c 2.51,-2 -0.76,-4.27 -0.76,-4.27 0,0 3.27,0.25 4.27,-1.51 1,-1.76 -1,-5 -3,-4.52 -2,0.48 -3.5,3.28 -3.5,3.28 z"
               style="fill:#ec4899"
               id="path4057" />
            <path
               d="m 179.26,205.21 c 0,0 -1.25,-3 -3.51,-3 -2.26,0 -3.52,3 -2.51,4.52 1.01,1.52 5,0.5 5,0.5 0,0 -2.26,2.51 -1.51,4 a 3.47,3.47 0 0 0 5.53,1 c 2.51,-2 -0.76,-4.27 -0.76,-4.27 0,0 3.27,0.25 4.27,-1.51 1,-1.76 -1,-5 -3,-4.52 -2,0.48 -3.51,3.28 -3.51,3.28 z"
               style="fill:#ec4899"
               id="path4059" />
            <rect
               x="157.75"
               y="224.49001"
               width="29.25"
               height="23.75"
               style="fill:none"
               id="rect4061" />
            <rect
               x="157.75"
               y="224.49001"
               width="29.25"
               height="23.75"
               style="fill:#ffffff"
               id="rect4063" />
            <path
               d="m 165,239.79 c 0,0 -1.25,-3 -3.51,-3 -2.26,0 -3.52,3 -2.52,4.52 1,1.52 5,0.5 5,0.5 0,0 -2.26,2.52 -1.51,4 a 3.46,3.46 0 0 0 5.53,1 c 2.51,-2 -0.76,-4.27 -0.76,-4.27 0,0 3.27,0.25 4.27,-1.51 1,-1.76 -1,-5 -3,-4.52 -2,0.48 -3.5,3.28 -3.5,3.28 z"
               style="fill:#ec4899"
               id="path4065" />
            <path
               d="m 179.26,229 c 0,0 -1.25,-3 -3.51,-3 -2.26,0 -3.52,3 -2.51,4.52 1.01,1.52 5,0.5 5,0.5 0,0 -2.26,2.51 -1.51,4 a 3.47,3.47 0 0 0 5.53,1 c 2.51,-2 -0.76,-4.27 -0.76,-4.27 0,0 3.27,0.25 4.27,-1.51 1,-1.76 -1,-5 -3,-4.52 -2,0.48 -3.51,3.28 -3.51,3.28 z"
               style="fill:#ec4899"
               id="path4067" />
            <rect
               x="157.75"
               y="248.24001"
               width="29.25"
               height="23.75"
               style="fill:none"
               id="rect4069" />
            <rect
               x="157.75"
               y="248.24001"
               width="29.25"
               height="23.75"
               style="fill:#ffffff"
               id="rect4071" />
            <path
               d="m 165,263.54 c 0,0 -1.25,-3 -3.51,-3 -2.26,0 -3.52,3 -2.52,4.52 1,1.52 5,0.5 5,0.5 0,0 -2.26,2.52 -1.51,4 a 3.46,3.46 0 0 0 5.53,1 c 2.51,-2 -0.76,-4.27 -0.76,-4.27 0,0 3.27,0.25 4.27,-1.51 1,-1.76 -1,-5 -3,-4.52 -2,0.48 -3.5,3.28 -3.5,3.28 z"
               style="fill:#ec4899"
               id="path4073" />
            <path
               d="m 179.26,252.71 c 0,0 -1.25,-3 -3.51,-3 -2.26,0 -3.52,3 -2.51,4.52 1.01,1.52 5,0.5 5,0.5 0,0 -2.26,2.51 -1.51,4 a 3.47,3.47 0 0 0 5.53,1 c 2.51,-2 -0.76,-4.27 -0.76,-4.27 0,0 3.27,0.25 4.27,-1.51 1,-1.76 -1,-5 -3,-4.52 -2,0.48 -3.51,3.28 -3.51,3.28 z"
               style="fill:#ec4899"
               id="path4075" />
            <rect
               x="157.75"
               y="271.98999"
               width="29.25"
               height="23.75"
               style="fill:none"
               id="rect4077" />
            <rect
               x="157.75"
               y="271.98999"
               width="29.25"
               height="23.75"
               style="fill:#ffffff"
               id="rect4079" />
            <path
               d="m 165,287.29 c 0,0 -1.25,-3 -3.51,-3 -2.26,0 -3.52,3 -2.52,4.52 1,1.52 5,0.5 5,0.5 0,0 -2.26,2.52 -1.51,4 a 3.46,3.46 0 0 0 5.53,1 c 2.51,-2 -0.76,-4.27 -0.76,-4.27 0,0 3.27,0.25 4.27,-1.51 1,-1.76 -1,-5 -3,-4.52 -2,0.48 -3.5,3.28 -3.5,3.28 z"
               style="fill:#ec4899"
               id="path4081" />
            <path
               d="m 179.26,276.46 c 0,0 -1.25,-3 -3.51,-3 -2.26,0 -3.52,3 -2.51,4.52 1.01,1.52 5,0.5 5,0.5 0,0 -2.26,2.51 -1.51,4 a 3.47,3.47 0 0 0 5.53,1 c 2.51,-2 -0.76,-4.27 -0.76,-4.27 0,0 3.27,0.25 4.27,-1.51 1,-1.76 -1,-5 -3,-4.52 -2,0.48 -3.51,3.28 -3.51,3.28 z"
               style="fill:#ec4899"
               id="path4083" />
          </g>
        </g>
        <path
           d="m 183.86,217 c 0,0 -7.83,1.87 -10.81,5.59 -2.98,3.72 -2.23,16 -0.37,21.24 1.86,5.24 10.06,28.32 10.06,28.32 l 11.55,-8.94 -5.21,-29.07"
           style="fill:none;stroke:#263238;stroke-linecap:round;stroke-linejoin:round"
           id="path4089" />
        <path
           d="m 199.14,263.21 a 9.31,9.31 0 0 0 -6.71,-3.35 c -4.1,0 -9.32,4.84 -10.43,8.94 -1.11,4.1 2.23,9.69 5.58,11.92 3.35,2.23 11.93,-2.23 13.79,-7.08 1.86,-4.85 -2.23,-10.43 -2.23,-10.43 z"
           style="fill:#ffffff;stroke:#263238;stroke-linecap:round;stroke-linejoin:round"
           id="path4091" />
        <path
           d="m 254.29,246.07 a 15,15 0 0 1 -4.48,5.22 c -3.35,2.6 -7.33,2.76 -10.31,6.11 -2.98,3.35 -10.18,16.24 -16.89,19.22 -6.71,2.98 -12.67,0.38 -11.18,-6 1.49,-6.38 20.5,-16.39 25.34,-19.75 4.84,-3.36 11.93,-7.82 14.54,-7.45 a 3.38,3.38 0 0 1 2.98,2.65 z"
           style="fill:#ec4899"
           id="path4093" />
        <g
           clip-path="url(#freepik--clip-path-8--inject-2)"
           id="g4097">
          <path
             d="m 254.29,246.07 a 15,15 0 0 1 -4.48,5.22 c -3.35,2.6 -7.33,2.76 -10.31,6.11 -2.98,3.35 -10.18,16.24 -16.89,19.22 -6.71,2.98 -12.67,0.38 -11.18,-6 1.49,-6.38 20.5,-16.39 25.34,-19.75 4.84,-3.36 11.93,-7.82 14.54,-7.45 a 3.38,3.38 0 0 1 2.98,2.65 z"
             style="opacity:0.5;fill:#ffffff"
             id="path4095" />
        </g>
        <path
           d="m 254.29,246.07 a 15,15 0 0 1 -4.48,5.22 c -3.35,2.6 -7.33,2.76 -10.31,6.11 -2.98,3.35 -10.18,16.24 -16.89,19.22 -6.71,2.98 -12.67,0.38 -11.18,-6 1.49,-6.38 20.5,-16.39 25.34,-19.75 4.84,-3.36 11.93,-7.82 14.54,-7.45 a 3.38,3.38 0 0 1 2.98,2.65 z"
           style="fill:none;stroke:#263238;stroke-linecap:round;stroke-linejoin:round"
           id="path4099" />
        <path
           d="m 255,239.36 c 0,0 -0.63,-2.65 -2.73,-3.41 -2.1,-0.76 -4.18,0.38 -3.8,1.71 0.38,1.33 3.23,1 3.8,2.28 a 6,6 0 0 1 0.57,2.09 1.9,1.9 0 0 0 2.16,-2.67 z"
           style="fill:#ffffff;stroke:#263238;stroke-linecap:round;stroke-linejoin:round"
           id="path4101" />
        <polygon
           points="246.09,226.32 257.64,226.32 247.95,246.81 234.54,249.05 "
           style="fill:#ec4899;stroke:#263238;stroke-linecap:round;stroke-linejoin:round"
           id="polygon4103" />
        <path
           d="m 255,239.36 c 0,0 -6,-1 -7.82,1.12 a 11.37,11.37 0 0 0 -1.75,4.21 c 0,0 8.08,5.85 9.57,2.87 1.49,-2.98 1.52,-5.96 0,-8.2 z"
           style="fill:#ffffff;stroke:#263238;stroke-linecap:round;stroke-linejoin:round"
           id="path4105" />
        <path
           d="m 249.06,240.12 c -2.42,1.2 -7.36,0.12 -7.36,0.12 0,0 -2.3,0.11 -4.65,0.43 a 6.34,6.34 0 0 1 1.38,-0.94 c 0,0 2.41,-0.86 3.44,-1.38 1.03,-0.52 0.86,-1.55 0.86,-2.41 0,-0.86 -2.93,0.52 -4,0.52 -1.07,0 -4.82,1 -5.85,3.27 a 12.39,12.39 0 0 0 -1,2.7 4.13,4.13 0 0 0 -0.86,1.62 c -0.3,2.67 -1,6.86 -1,6.86 0,0 -18.26,8.2 -26.83,10.81 0,0 -11.93,1.12 -14.16,4.47 -2.23,3.35 -3,8.94 0.37,11.92 3.37,2.98 6.33,1.12 9.69,0.38 3.36,-0.74 37.26,-23.85 37.26,-23.85 0,0 6,0 8.57,-3 2.57,-3 5.22,-8.2 5.59,-10.44 0.28,-1.35 -0.51,-1.32 -1.45,-1.08 z"
           style="fill:#ffffff"
           id="path4107" />
        <g
           clip-path="url(#freepik--clip-path-9--inject-2)"
           id="g4113">
          <path
             d="m 240.19,247.4 a 36.24,36.24 0 0 0 -5.57,4.59 c 0,0 -31.14,18.69 -38.68,20.32 a 18.42,18.42 0 0 1 -8.77,-0.05 7.31,7.31 0 0 0 2.28,5.85 c 3.35,3 6.33,1.12 9.69,0.38 3.36,-0.74 37.26,-23.85 37.26,-23.85 0,0 6,0 8.57,-3 a 29.29,29.29 0 0 0 3.54,-5.32 c -2.84,1.17 -6.7,0.16 -8.32,1.08 z"
             style="fill:#ec4899"
             id="path4109" />
          <path
             d="m 240.19,247.4 a 36.24,36.24 0 0 0 -5.57,4.59 c 0,0 -31.14,18.69 -38.68,20.32 a 18.42,18.42 0 0 1 -8.77,-0.05 7.31,7.31 0 0 0 2.28,5.85 c 3.35,3 6.33,1.12 9.69,0.38 3.36,-0.74 37.26,-23.85 37.26,-23.85 0,0 6,0 8.57,-3 a 29.29,29.29 0 0 0 3.54,-5.32 c -2.84,1.17 -6.7,0.16 -8.32,1.08 z"
             style="opacity:0.5;fill:#ffffff"
             id="path4111" />
        </g>
        <path
           d="m 249.06,240.12 c -2.42,1.2 -7.36,0.12 -7.36,0.12 0,0 -2.3,0.11 -4.65,0.43 a 6.34,6.34 0 0 1 1.38,-0.94 c 0,0 2.41,-0.86 3.44,-1.38 1.03,-0.52 0.86,-1.55 0.86,-2.41 0,-0.86 -2.93,0.52 -4,0.52 -1.07,0 -4.82,1 -5.85,3.27 a 12.39,12.39 0 0 0 -1,2.7 4.13,4.13 0 0 0 -0.86,1.62 c -0.3,2.67 -1,6.86 -1,6.86 0,0 -18.26,8.2 -26.83,10.81 0,0 -11.93,1.12 -14.16,4.47 -2.23,3.35 -3,8.94 0.37,11.92 3.37,2.98 6.33,1.12 9.69,0.38 3.36,-0.74 37.26,-23.85 37.26,-23.85 0,0 6,0 8.57,-3 2.57,-3 5.22,-8.2 5.59,-10.44 0.28,-1.35 -0.51,-1.32 -1.45,-1.08 z"
           style="fill:none;stroke:#263238;stroke-linecap:round;stroke-linejoin:round"
           id="path4115" />
      </g>
    </g>
  </g>
</svg>
