<?xml version="1.0" encoding="UTF-8" standalone="no"?>
<svg
   xmlns:dc="http://purl.org/dc/elements/1.1/"
   xmlns:cc="http://creativecommons.org/ns#"
   xmlns:rdf="http://www.w3.org/1999/02/22-rdf-syntax-ns#"
   xmlns:svg="http://www.w3.org/2000/svg"
   xmlns="http://www.w3.org/2000/svg"
   xmlns:sodipodi="http://sodipodi.sourceforge.net/DTD/sodipodi-0.dtd"
   xmlns:inkscape="http://www.inkscape.org/namespaces/inkscape"
   width="230"
   height="170"
   viewBox="0 0 230 170"
   version="1.1"
   id="svg4353"
   inkscape:version="1.0.1 (3bc2e813f5, 2020-09-07)"
   sodipodi:docname="reg.svg">
  <defs
     id="defs4347" />
  <sodipodi:namedview
     id="base"
     pagecolor="#ffffff"
     bordercolor="#666666"
     borderopacity="1.0"
     inkscape:pageopacity="0.0"
     inkscape:pageshadow="2"
     inkscape:zoom="1.914786"
     inkscape:cx="111.27241"
     inkscape:cy="81.248059"
     inkscape:document-units="px"
     inkscape:current-layer="layer1"
     inkscape:document-rotation="0"
     showgrid="false"
     units="px"
     inkscape:pagecheckerboard="true"
     inkscape:window-width="1267"
     inkscape:window-height="1198"
     inkscape:window-x="2654"
     inkscape:window-y="494"
     inkscape:window-maximized="0" />
  <metadata
     id="metadata4350">
    <rdf:RDF>
      <cc:Work
         rdf:about="">
        <dc:format>image/svg+xml</dc:format>
        <dc:type
           rdf:resource="http://purl.org/dc/dcmitype/StillImage" />
        <dc:title></dc:title>
      </cc:Work>
    </rdf:RDF>
  </metadata>
  <g
     inkscape:label="Layer 1"
     inkscape:groupmode="layer"
     id="layer1">
    <g
       id="g3219"
       transform="matrix(0.45630235,0,0,0.45630235,0.9244125,-25.096629)">
      <g
         id="freepik--background-complete--inject-1-7">
        <rect
           y="382.39999"
           width="500"
           height="0.25"
           style="fill:#e6e6e6"
           id="rect2688"
           x="0" />
        <rect
           x="91.699997"
           y="397.53"
           width="33.119999"
           height="0.25"
           style="fill:#e6e6e6"
           id="rect2690" />
        <rect
           x="62.029999"
           y="397.53"
           width="19.190001"
           height="0.25"
           style="fill:#e6e6e6"
           id="rect2692" />
        <rect
           x="191.36"
           y="401.20999"
           width="19.190001"
           height="0.25"
           style="fill:#e6e6e6"
           id="rect2694" />
        <rect
           x="267.42001"
           y="406.79001"
           width="43.189999"
           height="0.25"
           style="fill:#e6e6e6"
           id="rect2696" />
        <rect
           x="252.19"
           y="406.79001"
           width="6.3299999"
           height="0.25"
           style="fill:#e6e6e6"
           id="rect2698" />
        <rect
           x="359.67001"
           y="401.20999"
           width="93.68"
           height="0.25"
           style="fill:#e6e6e6"
           id="rect2700" />
        <path
           d="M 237,337.8 H 43.91 a 5.71,5.71 0 0 1 -5.7,-5.71 V 60.66 A 5.71,5.71 0 0 1 43.91,55 H 237 a 5.71,5.71 0 0 1 5.71,5.71 V 332.09 A 5.71,5.71 0 0 1 237,337.8 Z M 43.91,55.2 a 5.46,5.46 0 0 0 -5.45,5.46 v 271.43 a 5.46,5.46 0 0 0 5.45,5.46 H 237 a 5.47,5.47 0 0 0 5.46,-5.46 V 60.66 A 5.47,5.47 0 0 0 237,55.2 Z"
           style="fill:#e6e6e6"
           id="path2702" />
        <path
           d="m 453.31,337.8 h -193.1 a 5.72,5.72 0 0 1 -5.71,-5.71 V 60.66 A 5.72,5.72 0 0 1 260.21,55 h 193.1 a 5.71,5.71 0 0 1 5.69,5.66 v 271.43 a 5.71,5.71 0 0 1 -5.69,5.71 z M 260.21,55.2 a 5.47,5.47 0 0 0 -5.46,5.46 v 271.43 a 5.47,5.47 0 0 0 5.46,5.46 h 193.1 a 5.47,5.47 0 0 0 5.46,-5.46 V 60.66 a 5.47,5.47 0 0 0 -5.46,-5.46 z"
           style="fill:#e6e6e6"
           id="path2704" />
        <rect
           x="245.41"
           y="296.98001"
           width="21.99"
           height="87.230003"
           style="fill:#e0e0e0"
           id="rect2706" />
        <polygon
           points="258.84,372.33 263.22,384.21 267.4,384.21 267.4,372.33 "
           style="fill:#fafafa"
           id="polygon2708" />
        <rect
           x="149.05"
           y="296.98001"
           width="21.99"
           height="87.230003"
           style="fill:#e0e0e0"
           id="rect2710" />
        <rect
           x="167.39999"
           y="296.98001"
           width="100"
           height="79.940002"
           style="fill:#fafafa"
           id="rect2712" />
        <path
           d="m 263.77,300.91 v 21.15 H 171 v -21.15 h 92.74 m 0.39,-0.39 h -93.49 v 21.92 h 93.52 v -21.92 z"
           style="fill:#e0e0e0"
           id="path2714" />
        <polygon
           points="175.95,372.33 171.57,384.21 167.4,384.21 167.4,372.33 "
           style="fill:#fafafa"
           id="polygon2716" />
        <path
           d="m 215.19,311.48 a 2.21,2.21 0 1 0 2.21,-2.21 2.21,2.21 0 0 0 -2.21,2.21 z"
           style="fill:#e6e6e6"
           id="path2718" />
        <path
           d="m 263.77,326.37 v 21.15 H 171 v -21.15 h 92.74 m 0.39,-0.38 h -93.49 v 21.92 h 93.52 V 326 Z"
           style="fill:#e0e0e0"
           id="path2720" />
        <path
           d="m 215.19,337 a 2.21,2.21 0 1 0 2.21,-2.21 2.21,2.21 0 0 0 -2.21,2.21 z"
           style="fill:#e6e6e6"
           id="path2722" />
        <path
           d="M 263.77,351.84 V 373 H 171 v -21.16 h 92.74 m 0.39,-0.39 h -93.49 v 21.93 h 93.52 v -21.93 z"
           style="fill:#e0e0e0"
           id="path2724" />
        <path
           d="m 215.19,362.42 a 2.21,2.21 0 1 0 2.21,-2.22 2.21,2.21 0 0 0 -2.21,2.22 z"
           style="fill:#e6e6e6"
           id="path2726" />
        <rect
           x="135.62"
           y="246.32001"
           width="21.99"
           height="137.89999"
           style="fill:#e0e0e0"
           id="rect2728" />
        <polygon
           points="149.06,372.33 153.43,384.21 157.61,384.21 157.61,372.33 "
           style="fill:#fafafa"
           id="polygon2730" />
        <rect
           x="53.439999"
           y="246.32001"
           width="21.99"
           height="137.89999"
           style="fill:#e0e0e0"
           id="rect2732" />
        <rect
           x="71.779999"
           y="246.32001"
           width="85.830002"
           height="130.61"
           style="fill:#fafafa"
           id="rect2734" />
        <path
           d="m 153.91,250 v 29.57 H 75.48 V 250 h 78.43 m 0.46,-0.45 H 75 V 280 h 79.35 v -30.44 z"
           style="fill:#e0e0e0"
           id="path2736" />
        <path
           d="m 153.91,283.18 v 78.43 h -37.36 v -78.43 h 37.36 m 0.46,-0.46 H 116.1 v 79.35 h 38.27 z"
           style="fill:#e0e0e0"
           id="path2738" />
        <path
           d="m 112.84,283.18 v 78.43 H 75.48 v -78.43 h 37.36 m 0.45,-0.46 H 75 v 79.35 h 38.27 v -79.35 z"
           style="fill:#e0e0e0"
           id="path2740" />
        <polygon
           points="80.34,372.33 75.96,384.21 71.78,384.21 71.78,372.33 "
           style="fill:#fafafa"
           id="polygon2742" />
        <path
           d="m 112.48,264.8 a 2.22,2.22 0 1 0 2.22,-2.21 2.22,2.22 0 0 0 -2.22,2.21 z"
           style="fill:#e6e6e6"
           id="path2744" />
        <path
           d="m 120.4,320.53 a 2.22,2.22 0 1 0 2.21,-2.22 2.21,2.21 0 0 0 -2.21,2.22 z"
           style="fill:#e6e6e6"
           id="path2746" />
        <path
           d="m 104.57,320.53 a 2.21,2.21 0 1 0 2.21,-2.22 2.21,2.21 0 0 0 -2.21,2.22 z"
           style="fill:#e6e6e6"
           id="path2748" />
        <path
           d="M 102.07,207.87 H 92.8 a 97.94,97.94 0 0 1 1.61,13.62 c 0,5 -7.06,24.83 3,24.83 10.06,0 3,-19.78 3,-24.83 a 97.94,97.94 0 0 1 1.66,-13.62 z"
           style="fill:#e0e0e0"
           id="path2750" />
        <path
           d="m 66.8,228.15 v 6 a 12.18,12.18 0 0 0 12.14,12.14 h 6 a 12.18,12.18 0 0 0 12.14,-12.14 v -6 z"
           style="fill:#f5f5f5"
           id="path2752" />
        <path
           d="m 195.67,284.26 c 0,7 7.83,12.72 17.4,12.72 h 8.64 c 9.57,0 17.4,-5.72 17.4,-12.72 z"
           style="fill:#e0e0e0"
           id="path2754" />
        <path
           d="m 424.61,274 c -5.24,4.28 -12.48,12.11 -19.1,23.13 -4.42,7.34 -7.08,15 -8.25,25.18 0,-11.5 0.07,-23.85 0.11,-35.51 1.33,-3 4.37,-9.92 6.55,-15.38 7.27,-18.23 10,-22.72 16.53,-38.44 8.73,-21 17.67,-45.86 15.11,-43.87 -5.22,4.05 -25.22,41.5 -27.38,46.86 a 150,150 0 0 0 -10.79,44.85 c 0,-11 0.08,-21 0.12,-28.76 0.14,-25.31 0.57,-33.48 0.78,-36 0.81,-1.28 1.76,-2.77 2.32,-3.57 4.7,-6.8 6.51,-12.58 10.93,-22.72 6.28,-14.35 11.68,-39.84 10.1,-38.56 -6.58,5.36 -11.76,16.86 -18.58,31.53 -6.82,14.67 -4.87,23.1 -6.22,35.62 -0.28,2.46 -0.5,11.74 -0.66,24.59 -1.76,-13.7 -5.08,-22.72 -11.13,-30.92 -7.44,-10.09 -14.64,-16.9 -19.92,-20.46 -5.28,-3.56 9.12,21.22 16,32 6.13,9.64 11.78,18.13 15,26.5 -0.17,17.43 -0.25,39.49 -0.25,60 -1.58,-9.34 -4.16,-19.41 -7.6,-27.2 -4.14,-9.36 -10.5,-23.72 -15.57,-28.59 -1.21,-1.17 5.3,26.76 9.48,34.18 4.18,7.42 7.25,14.43 9.88,18.64 0.61,1 2.65,4.77 3.81,6.95 0,25.07 0.14,47.19 0.36,54.72 h 1.08 c -0.07,-1.94 -0.09,-14.7 -0.06,-31.58 2.61,-9.16 8.57,-19.62 13.49,-29.16 5.36,-10.33 19.1,-38.28 13.86,-34.03 z"
           style="fill:#e0e0e0"
           id="path2756" />
        <polygon
           points="414.81,353.49 412.44,384.21 381.1,384.21 378.73,353.49 "
           style="fill:#f0f0f0"
           id="polygon2758" />
        <polygon
           points="418.31,346.7 417.14,357.07 376.39,357.07 375.23,346.7 "
           style="fill:#f5f5f5"
           id="polygon2760" />
        <rect
           x="68.209999"
           y="75.5"
           width="56.049999"
           height="61.549999"
           style="fill:#e0e0e0"
           id="rect2762" />
        <rect
           x="72.43"
           y="75.5"
           width="57.900002"
           height="61.549999"
           style="fill:#f5f5f5"
           id="rect2764" />
        <rect
           x="75.459999"
           y="82.169998"
           width="51.849998"
           height="48.200001"
           transform="rotate(90,101.38,106.27)"
           style="fill:#ffffff"
           id="rect2766" />
        <rect
           x="88.019997"
           y="93.860001"
           width="26.709999"
           height="24.83"
           transform="rotate(90,101.38,106.27)"
           style="fill:#f5f5f5"
           id="rect2768" />
        <rect
           x="357.98001"
           y="82.669998"
           width="52.07"
           height="57.18"
           style="fill:#e0e0e0"
           id="rect2770" />
        <rect
           x="361.91"
           y="82.669998"
           width="53.779999"
           height="57.18"
           style="fill:#f5f5f5"
           id="rect2772" />
        <rect
           x="364.72"
           y="88.870003"
           width="48.16"
           height="44.77"
           transform="rotate(90,388.8,111.26)"
           style="fill:#ffffff"
           id="rect2774" />
        <circle
           cx="388.79999"
           cy="111.26"
           r="13.97"
           style="fill:#f5f5f5"
           id="circle2776" />
        <rect
           x="140.91"
           y="112.2"
           width="41.580002"
           height="45.66"
           style="fill:#e0e0e0"
           id="rect2778" />
        <rect
           x="144.03999"
           y="112.2"
           width="42.950001"
           height="45.66"
           style="fill:#f5f5f5"
           id="rect2780" />
        <rect
           x="146.28999"
           y="117.15"
           width="38.459999"
           height="35.75"
           transform="rotate(90,165.515,135.025)"
           style="fill:#ffffff"
           id="rect2782" />
        <polygon
           points="175.3,142.24 165.52,125.3 155.74,142.24 "
           style="fill:#f5f5f5"
           id="polygon2784" />
      </g>
      <g
         id="freepik--Shadow--inject-1-2">
        <ellipse
           cx="250"
           cy="416.23999"
           rx="193.89"
           ry="11.32"
           style="fill:#f5f5f5"
           id="ellipse2787" />
      </g>
      <g
         id="freepik--character-2--inject-1">
        <path
           d="m 349.25,163.43 -9.92,-4 c 0,0 -13.09,23.87 -16.84,25.08 -5.1,1.64 -15.66,6.2 -21.92,7 -0.85,1 -2.24,4.11 -2.11,5.24 8.41,2.81 26.89,-0.92 30.85,-3.86 9.01,-6.67 19.94,-29.46 19.94,-29.46 z"
           style="fill:#e58a7b"
           id="path2790" />
        <path
           d="m 352.3,158 c 1.85,6.83 -8.17,20.57 -8.17,20.57 L 331,171.21 c 0,0 2.46,-5.65 5.46,-11.4 4.81,-9.29 13.73,-9.6 15.84,-1.81 z"
           style="fill:#ec4899"
           id="path2792" />
        <path
           d="m 352.3,158 c 1.85,6.83 -8.17,20.57 -8.17,20.57 L 331,171.21 c 0,0 2.46,-5.65 5.46,-11.4 4.81,-9.29 13.73,-9.6 15.84,-1.81 z"
           style="opacity:0.2"
           id="path2794" />
        <path
           d="m 336.21,174.15 5.17,2.9 0.91,-15.87 c -3.01,2.31 -5.13,9.27 -6.08,12.97 z"
           style="opacity:0.2"
           id="path2796" />
        <path
           d="m 343.66,152.86 c 0,0 -10.22,22.74 -4.26,65.08 h 40.27 c 0.64,-6.18 -1.48,-36.34 6.19,-65.46 a 102.44,102.44 0 0 0 -13.38,-1.71 147.88,147.88 0 0 0 -17.11,0 78.93,78.93 0 0 0 -11.71,2.09 z"
           style="fill:#ec4899"
           id="path2798" />
        <path
           d="m 343.66,152.86 c 0,0 -10.22,22.74 -4.26,65.08 h 40.27 c 0.64,-6.18 -1.48,-36.34 6.19,-65.46 a 102.44,102.44 0 0 0 -13.38,-1.71 147.88,147.88 0 0 0 -17.11,0 78.93,78.93 0 0 0 -11.71,2.09 z"
           style="opacity:0.2"
           id="path2800" />
        <path
           d="m 334.32,417.14 c -0.06,1.08 15.21,1.95 34.1,1.95 18.89,0 34.27,-0.87 34.33,-1.95 0.06,-1.08 -15.2,-1.94 -34.1,-1.94 -18.9,0 -34.26,0.87 -34.33,1.94 z"
           style="mix-blend-mode:multiply;fill:#e8ecf1"
           id="path2802" />
        <rect
           x="357.82001"
           y="390.95999"
           width="7.6799998"
           height="17.09"
           transform="matrix(0.93,-0.36,0.36,0.93,-119.46,156.75)"
           style="fill:#e58a7b"
           id="rect2804" />
        <polygon
           points="390.29,392.02 393.05,409.45 385.52,409.45 382.76,392.02 "
           style="fill:#e58a7b"
           id="polygon2806" />
        <path
           d="m 385,408.58 h 8.46 a 0.62,0.62 0 0 1 0.61,0.52 l 1.09,6.69 a 1.18,1.18 0 0 1 -1.18,1.34 c -2.95,-0.05 -4.37,-0.23 -8.09,-0.23 -2.29,0 -7,0.24 -10.18,0.24 -3.18,0 -3.39,-3.12 -2.08,-3.41 5.88,-1.27 8.16,-3 10.12,-4.68 a 1.89,1.89 0 0 1 1.25,-0.47 z"
           style="fill:#263238"
           id="path2808" />
        <path
           d="m 360,406 8,-2.34 a 0.65,0.65 0 0 1 0.75,0.32 l 3,6 a 1.15,1.15 0 0 1 -0.75,1.59 c -2.91,0.8 -4.86,1.29 -8.5,2.35 -2.51,0.73 -5.07,1.92 -7.55,2.71 -1.72,0.55 -5.76,0.57 -7.85,0.57 -3.09,0 -3.78,-3.26 -2.45,-3.41 3.35,-0.37 3.8,-0.2 5.65,-1.13 a 25.69,25.69 0 0 0 8.08,-5.58 A 3.75,3.75 0 0 1 360,406 Z"
           style="fill:#263238"
           id="path2810" />
        <path
           d="m 301.83,191.47 -8.28,-3.47 -3.41,9.18 a 34,34 0 0 0 10.24,0 z"
           style="fill:#e58a7b"
           id="path2812" />
        <polygon
           points="293.55,187.98 287.39,187.76 287.17,193.86 290.14,197.16 "
           style="fill:#e58a7b"
           id="polygon2814" />
        <rect
           x="356.32999"
           y="391.23999"
           width="7.6799998"
           height="8.8100004"
           transform="rotate(-21.11,360.06954,395.58575)"
           style="fill:#cf6f64"
           id="rect2816" />
        <polygon
           points="391.72,401.01 390.29,392.02 382.76,392.02 384.19,401.01 "
           style="fill:#cf6f64"
           id="polygon2818" />
        <path
           d="m 338.12,206.49 c 0.15,1.81 0.32,3.66 0.54,5.56 l 29.94,-9.72 A 21.44,21.44 0 0 0 380.12,194 c 0.12,-2.67 0.27,-5.48 0.5,-8.41 0.1,-1.42 0.22,-2.88 0.35,-4.36 0.13,-1.48 0.31,-3.12 0.5,-4.7 z"
           style="opacity:0.2"
           id="path2820" />
        <path
           d="m 347.9,173.69 -1,-0.12 c 0.59,-5 4.32,-8.94 8.25,-8.84 v 1 c -3.44,-0.07 -6.72,3.48 -7.25,7.96 z"
           style="fill:#ffffff"
           id="path2822" />
        <path
           d="m 353.23,182.92 h -0.17 v -1 c 3.44,0.13 6.67,-3.46 7.2,-7.93 l 1,0.12 c -0.53,4.89 -4.14,8.81 -8.03,8.81 z"
           style="fill:#ffffff"
           id="path2824" />
        <path
           d="m 371.92,131.5 c -1.41,5.51 -3.07,15.6 0.56,19.27 0,0 -2.54,5.59 -12.77,5.59 -9.35,0 -4.34,-5.59 -4.34,-5.59 6.22,-1.46 6.33,-6 5.51,-10.3 z"
           style="fill:#e58a7b"
           id="path2826" />
        <path
           d="m 367.42,135.16 -6.53,5.31 a 17.6,17.6 0 0 1 0.35,3 c 1.91,1.9 5.74,-2.91 6.13,-5.37 a 8,8 0 0 0 0.05,-2.94 z"
           style="fill:#cf6f64"
           id="path2828" />
        <path
           d="m 349.66,131.43 a 6.61,6.61 0 0 0 4.25,3.14 c 2.4,0.53 3.6,-1.68 2.94,-3.9 -0.59,-2 -2.56,-4.69 -5,-4.23 a 3.34,3.34 0 0 0 -2.19,4.99 z"
           style="fill:#cf6f64"
           id="path2830" />
        <path
           d="m 353.63,113.8 c -3.74,1.71 -5.06,16.57 -0.36,18.77 4.7,2.2 7.44,-22.02 0.36,-18.77 z"
           style="fill:#263238"
           id="path2832" />
        <path
           d="m 373.06,123.21 c -0.9,7.46 -1,11.85 -5,15.67 a 9.62,9.62 0 0 1 -16.36,-5.1 c -1.21,-6.7 0.46,-17.77 7.94,-20.74 a 9.63,9.63 0 0 1 13.42,10.17 z"
           style="fill:#e58a7b"
           id="path2834" />
        <path
           d="m 360.77,117.66 c 5.54,-1.41 9.61,-2.37 8.15,2.24 -1.93,6.16 -4.25,12.12 -1.14,12.39 1.9,0.17 10.3,-3.39 9.23,-7 -0.93,-3.14 3,-4 3.7,-5.59 2.59,-5.76 -4.82,-5 -3.5,-8.5 1.32,-3.5 -6,-9.14 -10,-6.33 -6.51,4.54 -17.68,4.47 -11.81,-3 4.21,-5.33 -3.3,-4.24 -3.3,-4.24 0,0 4.54,2.69 -3.1,6.85 -8.08,4.44 -0.67,16.37 11.77,13.18 z"
           style="fill:#263238"
           id="path2836" />
        <path
           d="m 376,131.43 a 7.75,7.75 0 0 1 -4.61,3.14 c -2.47,0.53 -3.42,-1.68 -2.49,-3.9 0.83,-2 3.11,-4.69 5.47,-4.23 2.36,0.46 2.9,3.03 1.63,4.99 z"
           style="fill:#e58a7b"
           id="path2838" />
        <path
           d="m 339.4,217.94 c 0,0 -6.76,60.5 -7.29,83.46 -0.54,23.88 22.91,98.39 22.91,98.39 l 12,-5 c 0,0 -14,-68.08 -12,-91.53 2.12,-25.57 10.88,-85.28 10.88,-85.28 z"
           style="fill:#ec4899"
           id="path2840" />
        <path
           d="m 356.2,234.55 c -5.39,11.18 -1.76,33.29 1.16,46.39 1.11,-9.25 2.43,-19.29 3.68,-28.58 -0.12,-14.28 -1.23,-25.31 -4.84,-17.81 z"
           style="opacity:0.2"
           id="path2842" />
        <path
           d="m 366.49,390.83 c 0.06,0 1.42,3.82 1.42,3.82 l -13.84,5.82 -2.18,-4.06 z"
           style="fill:#ec4899"
           id="path2844" />
        <path
           d="m 353.69,217.94 c 0,0 5.17,57.54 8.59,79.09 3.76,23.61 18.5,102.24 18.5,102.24 h 13.79 c 0,0 -8.26,-76.72 -9.82,-100.1 -1.7,-25.36 -5.08,-81.23 -5.08,-81.23 z"
           style="fill:#ec4899"
           id="path2846" />
        <path
           d="m 394.78,395.68 c 0.06,0 0.46,3.85 0.46,3.85 H 380.08 L 379,395.11 Z"
           style="fill:#ec4899"
           id="path2848" />
        <path
           d="m 389.5,391.12 a 0.13,0.13 0 0 1 -0.13,-0.11 c -0.08,-0.7 -7.53,-70 -8.93,-91 -1.52,-22.78 -4.58,-73.31 -4.61,-73.82 a 0.12,0.12 0 0 1 0.12,-0.13 v 0 a 0.13,0.13 0 0 1 0.13,0.12 c 0,0.51 3.09,51 4.61,73.82 1.4,21 8.85,90.25 8.92,91 a 0.12,0.12 0 0 1 -0.11,0.14 z"
           style="opacity:0.2"
           id="path2850" />
        <path
           d="m 361.62,125.29 c 0,0.61 -0.38,1.1 -0.78,1.1 -0.4,0 -0.69,-0.49 -0.65,-1.1 0.04,-0.61 0.38,-1.1 0.78,-1.1 0.4,0 0.69,0.5 0.65,1.1 z"
           style="fill:#263238"
           id="path2852" />
        <path
           d="m 354.76,125.29 c 0,0.61 -0.39,1.1 -0.78,1.1 -0.39,0 -0.69,-0.49 -0.66,-1.1 0.03,-0.61 0.39,-1.1 0.79,-1.1 0.4,0 0.69,0.5 0.65,1.1 z"
           style="fill:#263238"
           id="path2854" />
        <path
           d="m 356.92,125.6 a 23.3,23.3 0 0 1 -3.2,5.19 c 1,1 2.87,0.54 2.87,0.54 z"
           style="fill:#df5753"
           id="path2856" />
        <path
           d="m 357.1,133.88 a 0.17,0.17 0 0 1 -0.17,-0.18 0.19,0.19 0 0 1 0.19,-0.18 5.12,5.12 0 0 0 4,-1.88 0.19,0.19 0 0 1 0.25,0 0.18,0.18 0 0 1 0,0.25 5.46,5.46 0 0 1 -4.27,1.99 z"
           style="fill:#263238"
           id="path2858" />
        <path
           d="m 362.84,123.45 a 0.34,0.34 0 0 1 -0.31,0 2.84,2.84 0 0 0 -2.55,-0.27 0.34,0.34 0 0 1 -0.46,-0.16 0.37,0.37 0 0 1 0.19,-0.48 3.51,3.51 0 0 1 3.23,0.3 0.35,0.35 0 0 1 0.09,0.49 0.4,0.4 0 0 1 -0.19,0.12 z"
           style="fill:#263238"
           id="path2860" />
        <path
           d="m 352.11,121.45 a 0.29,0.29 0 0 1 -0.14,-0.08 0.35,0.35 0 0 1 0,-0.5 3.74,3.74 0 0 1 3.08,-1.24 0.34,0.34 0 0 1 0.28,0.41 0.39,0.39 0 0 1 -0.42,0.3 v 0 a 3,3 0 0 0 -2.43,1 0.37,0.37 0 0 1 -0.37,0.11 z"
           style="fill:#263238"
           id="path2862" />
        <path
           d="m 389.73,162.32 -10.4,-2.77 c 0,0 -10.2,25.11 -13.81,26.74 -4.9,2.24 -17.31,10 -22.59,13.67 -0.29,1.25 -0.06,4.56 0.6,5.47 9,-1.64 26.23,-8.27 29.83,-11.64 8.21,-7.69 16.37,-31.47 16.37,-31.47 z"
           style="fill:#e58a7b"
           id="path2864" />
        <path
           d="m 382.47,409.9 a 2.19,2.19 0 0 1 -1.43,-0.39 1,1 0 0 1 -0.31,-0.94 0.59,0.59 0 0 1 0.34,-0.5 c 0.84,-0.43 3.19,1.06 3.46,1.23 a 0.16,0.16 0 0 1 0.07,0.18 0.21,0.21 0 0 1 -0.14,0.15 9.48,9.48 0 0 1 -1.99,0.27 z m -1,-1.56 a 0.53,0.53 0 0 0 -0.23,0 0.22,0.22 0 0 0 -0.12,0.21 0.68,0.68 0 0 0 0.2,0.65 c 0.39,0.35 1.37,0.39 2.66,0.14 a 6.63,6.63 0 0 0 -2.54,-1 z"
           style="fill:#ec4899"
           id="path2866" />
        <path
           d="m 384.41,409.63 a 0.13,0.13 0 0 1 -0.08,0 c -0.75,-0.42 -2.16,-2.07 -1.95,-2.91 a 0.61,0.61 0 0 1 0.59,-0.47 0.94,0.94 0 0 1 0.75,0.23 c 0.83,0.71 0.88,2.89 0.88,3 a 0.15,0.15 0 0 1 -0.09,0.16 0.17,0.17 0 0 1 -0.1,-0.01 z m -1.34,-3.05 H 383 c -0.23,0 -0.26,0.13 -0.27,0.18 -0.12,0.49 0.77,1.74 1.51,2.33 a 4.14,4.14 0 0 0 -0.75,-2.36 0.61,0.61 0 0 0 -0.42,-0.15 z"
           style="fill:#ec4899"
           id="path2868" />
        <path
           d="m 355.92,408.65 a 2.87,2.87 0 0 1 -1.89,0 0.94,0.94 0 0 1 -0.49,-0.76 0.59,0.59 0 0 1 0.21,-0.53 c 0.8,-0.72 4.07,0 4.44,0.14 a 0.16,0.16 0 0 1 0.12,0.16 0.19,0.19 0 0 1 -0.11,0.18 14.64,14.64 0 0 1 -2.28,0.81 z m -1.63,-1.19 a 0.69,0.69 0 0 0 -0.31,0.15 0.21,0.21 0 0 0 -0.08,0.21 0.63,0.63 0 0 0 0.32,0.51 c 0.53,0.28 1.76,0.06 3.35,-0.61 a 9.84,9.84 0 0 0 -3.28,-0.26 z"
           style="fill:#ec4899"
           id="path2870" />
        <path
           d="m 358.17,407.84 h -0.08 c -1,-0.18 -3,-1.33 -3.06,-2.19 0,-0.2 0.09,-0.48 0.57,-0.64 a 1.28,1.28 0 0 1 1,0.06 c 1.08,0.53 1.65,2.45 1.68,2.54 a 0.18,0.18 0 0 1 -0.05,0.17 0.18,0.18 0 0 1 -0.06,0.06 z m -2.37,-2.53 h -0.1 c -0.31,0.11 -0.31,0.24 -0.31,0.28 0,0.52 1.45,1.47 2.46,1.79 a 3.78,3.78 0 0 0 -1.4,-2 0.92,0.92 0 0 0 -0.65,-0.07 z"
           style="fill:#ec4899"
           id="path2872" />
        <path
           d="m 343.78,199.37 -10.43,4.8 -1.21,3 3.85,2.59 c 0,0 7.2,-0.78 9.25,-5.41 z"
           style="fill:#e58a7b"
           id="path2874" />
        <path
           d="m 344.22,205.6 a 14.06,14.06 0 0 0 -1.94,-5.66 l 1.65,-1.24 a 16.09,16.09 0 0 1 2.32,6.55 z"
           style="fill:#263238"
           id="path2876" />
        <path
           d="m 346,200.79 a 2,2 0 1 1 -2.44,-0.78 1.82,1.82 0 0 1 2.44,0.78 z"
           style="fill:#263238"
           id="path2878" />
        <polygon
           points="333.35,204.17 326.3,208.05 327.69,209.45 337.05,205.45 "
           style="fill:#e58a7b"
           id="polygon2880" />
        <path
           d="m 366.49,390.83 c 0.06,0 1.42,3.82 1.42,3.82 l -13.84,5.82 -2.18,-4.06 z"
           style="opacity:0.2"
           id="path2882" />
        <path
           d="m 394.78,395.68 c 0.06,0 0.46,3.85 0.46,3.85 H 380.08 L 379,395.11 Z"
           style="opacity:0.2"
           id="path2884" />
        <path
           d="m 392.44,159.44 c 2.75,8.87 -8,21 -8,21 l -14.85,-6.06 a 154.08,154.08 0 0 1 6.08,-15.07 c 4.56,-9.83 13.99,-8.82 16.77,0.13 z"
           style="fill:#ec4899"
           id="path2886" />
        <path
           d="m 392.44,159.44 c 2.75,8.87 -8,21 -8,21 l -14.85,-6.06 a 154.08,154.08 0 0 1 6.08,-15.07 c 4.56,-9.83 13.99,-8.82 16.77,0.13 z"
           style="opacity:0.2"
           id="path2888" />
      </g>
      <g
         id="freepik--Screen--inject-1">
        <rect
           x="238.49001"
           y="70.57"
           width="6.3899999"
           height="1.03"
           style="fill:#ec4899"
           id="rect2891" />
        <rect
           x="319.14001"
           y="119.42"
           width="17.18"
           height="1.03"
           transform="rotate(-87.42,327.73111,119.94011)"
           style="fill:#ec4899"
           id="rect2893" />
        <polygon
           points="314.63,320.91 325.61,75.19 207.61,75.19 196.63,320.91 "
           style="fill:#ec4899"
           id="polygon2895" />
        <polygon
           points="311.11,324.29 322.09,78.57 204.09,78.57 193.11,324.29 "
           style="opacity:0.56;fill:#fafafa"
           id="polygon2897" />
        <polygon
           points="307.58,327.66 318.57,81.94 200.57,81.94 189.58,327.66 "
           style="opacity:0.07;fill:#ec4899"
           id="polygon2899" />
        <polygon
           points="304.3,207.91 305.14,189.11 204.42,189.11 203.58,207.91 "
           style="fill:#ffffff"
           id="polygon2901" />
        <polygon
           points="259.44,183.8 259.81,175.39 205.03,175.39 204.66,183.8 "
           style="fill:#ec4899"
           id="polygon2903" />
        <polygon
           points="302.03,258.65 302.87,239.85 202.15,239.85 201.31,258.65 "
           style="fill:#ffffff"
           id="polygon2905" />
        <polygon
           points="283.39,306.57 284.4,284.04 216.67,284.04 215.66,306.57 "
           style="opacity:0.47;fill:#ec4899"
           id="polygon2907" />
        <path
           d="m 279.87,310.07 h -67.73 a 0.18,0.18 0 0 1 -0.09,0 0.14,0.14 0 0 1 0,-0.09 l 1,-22.54 a 0.11,0.11 0 0 1 0.12,-0.11 h 67.73 a 0.09,0.09 0 0 1 0.08,0 0.08,0.08 0 0 1 0,0.08 L 280,310 a 0.13,0.13 0 0 1 -0.13,0.07 z m -67.61,-0.24 h 67.49 l 1,-22.3 h -67.49 z"
           style="fill:#ffffff"
           id="path2909" />
        <polygon
           points="247.6,234.55 247.98,226.13 202.76,226.13 202.39,234.55 "
           style="fill:#ec4899"
           id="polygon2911" />
        <path
           d="m 283.11,128.38 a 26.53,26.53 0 0 1 -5.57,15.05 26.88,26.88 0 0 1 -21.2,10.57 24.31,24.31 0 0 1 -24.46,-25.62 27,27 0 0 1 26.75,-25.62 24.29,24.29 0 0 1 24.48,25.62 z"
           style="fill:#ffffff"
           id="path2913" />
        <path
           d="m 285.52,108.12 a 7,7 0 0 1 -1.48,4 7.17,7.17 0 0 1 -5.64,2.81 6.48,6.48 0 0 1 -5.38,-2.81 6.61,6.61 0 0 1 -1.12,-4 7.18,7.18 0 0 1 7.11,-6.8 6.46,6.46 0 0 1 6.51,6.8 z"
           style="fill:#ec4899"
           id="path2915" />
        <path
           d="m 215.27,198.51 a 3.19,3.19 0 0 1 -3.15,3 2.85,2.85 0 0 1 -2.88,-3 3.17,3.17 0 0 1 3.15,-3 2.86,2.86 0 0 1 2.88,3 z"
           style="fill:#263238"
           id="path2917" />
        <path
           d="m 228.75,198.51 a 3.18,3.18 0 0 1 -3.15,3 2.85,2.85 0 0 1 -2.87,-3 3.17,3.17 0 0 1 3.14,-3 2.85,2.85 0 0 1 2.88,3 z"
           style="fill:#263238"
           id="path2919" />
        <path
           d="m 242.24,198.51 a 3.18,3.18 0 0 1 -3.15,3 2.86,2.86 0 0 1 -2.88,-3 3.18,3.18 0 0 1 3.15,-3 2.85,2.85 0 0 1 2.88,3 z"
           style="fill:#263238"
           id="path2921" />
        <path
           d="m 213,249.25 a 3.19,3.19 0 0 1 -3.15,3 2.86,2.86 0 0 1 -2.88,-3 3.18,3.18 0 0 1 3.15,-3 2.86,2.86 0 0 1 2.88,3 z"
           style="fill:#263238"
           id="path2923" />
        <path
           d="m 226.48,249.25 a 3.18,3.18 0 0 1 -3.14,3 2.85,2.85 0 0 1 -2.88,-3 3.18,3.18 0 0 1 3.15,-3 2.85,2.85 0 0 1 2.87,3 z"
           style="fill:#263238"
           id="path2925" />
        <path
           d="m 240,249.25 a 3.18,3.18 0 0 1 -3.15,3 2.87,2.87 0 0 1 -2.88,-3 3.19,3.19 0 0 1 3.15,-3 2.85,2.85 0 0 1 2.88,3 z"
           style="fill:#263238"
           id="path2927" />
        <path
           d="m 253.46,249.25 a 3.19,3.19 0 0 1 -3.15,3 2.87,2.87 0 0 1 -2.88,-3 3.19,3.19 0 0 1 3.15,-3 2.86,2.86 0 0 1 2.88,3 z"
           style="fill:#263238"
           id="path2929" />
        <path
           d="m 267,249.25 a 3.19,3.19 0 0 1 -3.15,3 2.85,2.85 0 0 1 -2.88,-3 3.18,3.18 0 0 1 3.15,-3 2.86,2.86 0 0 1 2.88,3 z"
           style="fill:#263238"
           id="path2931" />
        <ellipse
           cx="257.87"
           cy="119.82"
           rx="10.6"
           ry="10.13"
           transform="rotate(-44.36,257.84971,119.8105)"
           style="fill:#ec4899"
           id="ellipse2933" />
        <path
           d="M 277.54,143.43 A 26.88,26.88 0 0 1 256.34,154 24.27,24.27 0 0 1 236.1,143.43 c 4.86,-4.84 12.55,-8 21.07,-8 8.52,0 15.94,3.16 20.37,8 z"
           style="fill:#ec4899"
           id="path2935" />
        <ellipse
           cx="257.87"
           cy="119.82"
           rx="10.6"
           ry="10.13"
           transform="rotate(-44.36,257.84971,119.8105)"
           style="opacity:0.1;fill:#ffffff"
           id="ellipse2937" />
        <path
           d="M 277.54,143.43 A 26.88,26.88 0 0 1 256.34,154 24.27,24.27 0 0 1 236.1,143.43 c 4.86,-4.84 12.55,-8 21.07,-8 8.52,0 15.94,3.16 20.37,8 z"
           style="opacity:0.1;fill:#ffffff"
           id="path2939" />
      </g>
      <g
         id="freepik--character-1--inject-1">
        <path
           d="m 130.41,212.44 c -0.95,2.08 -1.95,4.37 -2.82,6.59 -0.87,2.22 -1.76,4.51 -2.53,6.79 a 86.24,86.24 0 0 0 -3.58,13.8 l -0.22,1.47 a 2.15,2.15 0 0 0 0.07,0.75 7.8,7.8 0 0 0 1.1,2.32 29.28,29.28 0 0 0 4.44,5 67.35,67.35 0 0 0 5.52,4.61 c 1.92,1.48 3.94,2.92 5.93,4.28 l -1.87,3.51 a 70.87,70.87 0 0 1 -13.45,-7.71 32.39,32.39 0 0 1 -6,-5.68 14.25,14.25 0 0 1 -2.39,-4.27 9.7,9.7 0 0 1 -0.48,-3 c 0,-0.24 0,-0.59 0,-0.76 v -0.49 l 0.1,-1 a 78.22,78.22 0 0 1 3.27,-15.34 c 0.78,-2.46 1.61,-4.91 2.56,-7.3 0.95,-2.39 1.93,-4.73 3.14,-7.16 z"
           style="fill:#e58a7b"
           id="path2942" />
        <path
           d="m 136.91,257.43 7.07,-3.58 -1.83,7.76 c 0,0 -4.85,1.36 -7.1,-1 z"
           style="fill:#e58a7b"
           id="path2944" />
        <polygon
           points="143.98,253.85 150.45,255.12 148.57,261.54 142.15,261.61 "
           style="fill:#e58a7b"
           id="polygon2946" />
        <path
           d="m 160.43,175 a 20,20 0 0 0 1.57,4 1.63,1.63 0 0 1 -1.59,0.51 z"
           style="fill:#df5753"
           id="path2948" />
        <ellipse
           cx="160.22"
           cy="173.91"
           rx="0.75"
           ry="1.15"
           style="fill:#263238"
           id="ellipse2950" />
        <path
           d="m 160,172.8 1.52,-0.43 c 0,0 -0.74,1.18 -1.52,0.43 z"
           style="fill:#263238"
           id="path2952" />
        <path
           d="m 140.9,182.34 c 0.91,4.65 1.82,13.18 -1.44,16.29 0,0 1.28,4.72 9.93,4.72 9.51,0 4.54,-4.72 4.54,-4.72 -5.19,-1.24 -5.06,-5.09 -4.15,-8.71 z"
           style="fill:#e58a7b"
           id="path2954" />
        <path
           d="m 138.37,171.74 c 0.48,7.77 0.52,11.07 4.44,15.06 5.91,6 15.35,3.72 17.2,-4 1.67,-7 0.61,-18.52 -7,-21.61 a 10.62,10.62 0 0 0 -14.64,10.55 z"
           style="fill:#e58a7b"
           id="path2956" />
        <path
           d="m 139.14,163 c -3.9,1.42 -9.1,0.36 -7.06,12.39 2.16,12.74 -1.16,16.93 -1.16,16.93 0,0 14.79,3.15 29.89,-0.19 0,0 -4.61,-8.06 -3.32,-14 1.65,-7.5 0.35,-10.27 0.35,-10.27 0,0 -13.22,-6.86 -18.7,-4.86 z"
           style="fill:#263238"
           id="path2958" />
        <path
           d="m 155.64,175.79 a 7.81,7.81 0 0 0 1.22,4.17 c 1.06,1.62 2.31,1 2.62,-0.72 0.28,-1.51 0.07,-4.18 -1.28,-5.22 -1.35,-1.04 -2.54,-0.02 -2.56,1.77 z"
           style="fill:#e58a7b"
           id="path2960" />
        <path
           d="m 135.75,164.31 c -1.12,-3.15 4.22,-8 15.52,-6 11.3,2 11.79,11.41 11.79,11.41 l -2.28,-2.72 0.1,2.86 -11.61,2.23 z"
           style="fill:#263238"
           id="path2962" />
        <path
           d="m 136.71,199.16 v 0 a 1.77,1.77 0 0 1 1.45,-2 c 3.52,-0.58 11.52,-1.76 15.54,-1.2 3,0.42 3.78,2.16 3.91,3.59 a 1.76,1.76 0 0 1 -1.85,1.9 l -17.38,-0.78 a 1.78,1.78 0 0 1 -1.67,-1.51 z"
           style="fill:#ec4899"
           id="path2964" />
        <path
           d="m 136.71,199.16 v 0 a 1.77,1.77 0 0 1 1.45,-2 c 3.52,-0.58 11.52,-1.76 15.54,-1.2 3,0.42 3.78,2.16 3.91,3.59 a 1.76,1.76 0 0 1 -1.85,1.9 l -17.38,-0.78 a 1.78,1.78 0 0 1 -1.67,-1.51 z"
           style="opacity:0.6"
           id="path2966" />
        <polygon
           points="157.55,359.24 146.76,373.86 153.21,378.34 164,363.71 "
           style="fill:#e58a7b"
           id="polygon2968" />
        <polygon
           points="141.27,358.1 131.72,373.57 138.53,377.45 148.08,361.98 "
           style="fill:#e58a7b"
           id="polygon2970" />
        <polygon
           points="157.54,359.24 163.99,363.71 158.43,371.25 151.98,366.78 "
           style="fill:#cf6f64"
           id="polygon2972" />
        <polygon
           points="136.34,366.07 141.26,358.1 148.08,361.99 143.16,369.96 "
           style="fill:#cf6f64"
           id="polygon2974" />
        <path
           d="m 152.2,248 c 0,0 25.18,31.73 20.45,62.08 -3.81,24.51 -25.91,57.7 -25.91,57.7 l -10.39,-5.16 a 339.26,339.26 0 0 0 18.7,-45.44 33.59,33.59 0 0 0 -4,-29.1 C 138.29,269.45 117.85,280.54 131.6,248 Z"
           style="fill:#ec4899"
           id="path2976" />
        <path
           d="m 152.2,248 c 0,0 25.18,31.73 20.45,62.08 -3.81,24.51 -25.91,57.7 -25.91,57.7 l -10.39,-5.16 a 339.26,339.26 0 0 0 18.7,-45.44 33.59,33.59 0 0 0 -4,-29.1 C 138.29,269.45 117.85,280.54 131.6,248 Z"
           style="opacity:0.6"
           id="path2978" />
        <path
           d="m 164.55,268.38 -3.66,-3.64 c 0,0.29 7.09,44.06 9.08,56.36 a 74.53,74.53 0 0 0 2.69,-11 C 175,295.21 170.11,280 164.55,268.38 Z"
           style="opacity:0.4"
           id="path2980" />
        <path
           d="m 163.44,248 c 0,0 30.32,39.88 31.18,63.79 0.71,20 -33,58.75 -33,58.75 l -9.8,-6.34 c 0,0 19.73,-27.52 24.7,-50 C 174.6,291.92 134,248 134,248 Z"
           style="fill:#ec4899"
           id="path2982" />
        <path
           d="m 163.44,248 c 0,0 30.32,39.88 31.18,63.79 0.71,20 -33,58.75 -33,58.75 l -9.8,-6.34 c 0,0 19.73,-27.52 24.7,-50 C 174.6,291.92 134,248 134,248 Z"
           style="opacity:0.6"
           id="path2984" />
        <path
           d="m 125.93,200.41 c -3.24,0.77 -6.35,12.55 -6.35,12.55 l 12.67,8.46 c 0,0 4.22,-9.32 2.74,-13.4 -1.53,-4.25 -4.99,-8.58 -9.06,-7.61 z"
           style="fill:#ec4899"
           id="path2986" />
        <path
           d="m 128.41,208 -0.88,10.27 4.71,3.16 a 42.2,42.2 0 0 0 2.87,-9.14 z"
           style="opacity:0.2"
           id="path2988" />
        <path
           d="m 167.19,200.64 c 0,0 3.74,1.31 -3.75,47.35 h -31.86 c 0.54,-13 0.55,-21 -5.65,-47.58 a 94.29,94.29 0 0 1 13.53,-1.78 101.16,101.16 0 0 1 14.47,0 c 6.22,0.57 13.26,2.01 13.26,2.01 z"
           style="fill:#ec4899"
           id="path2990" />
        <path
           d="m 170.43,208 c 0.72,2 1.48,4.15 2.28,6.22 0.8,2.07 1.56,4.2 2.37,6.3 l 2.45,6.28 0.62,1.57 0.32,0.78 0.15,0.39 c 0,0.07 0,0.07 0,0.06 a 2.06,2.06 0 0 0 -0.7,-0.62 2.85,2.85 0 0 0 -1.3,-0.39 2.61,2.61 0 0 0 -1.11,0.21 c -0.46,0.21 -0.46,0.3 -0.45,0.29 a 1.21,1.21 0 0 0 0.22,-0.23 13.63,13.63 0 0 0 1.43,-2.33 c 0.47,-0.92 0.92,-1.9 1.37,-2.89 0.88,-2 1.69,-4.07 2.5,-6.16 0.81,-2.09 1.58,-4.2 2.33,-6.33 l 2.28,-6.38 3.85,1 c -0.76,4.56 -1.74,9 -2.92,13.52 -0.57,2.25 -1.24,4.48 -2,6.73 -0.38,1.13 -0.8,2.25 -1.28,3.4 A 21.55,21.55 0 0 1 181,233 a 9.32,9.32 0 0 1 -0.88,1.08 5.42,5.42 0 0 1 -1.82,1.29 4.48,4.48 0 0 1 -1.94,0.36 4.4,4.4 0 0 1 -2.11,-0.63 5.38,5.38 0 0 1 -1.82,-1.89 c -0.15,-0.26 -0.28,-0.52 -0.37,-0.71 l -0.19,-0.38 -0.38,-0.78 -0.76,-1.55 c -1,-2.08 -2,-4.18 -2.87,-6.29 -0.87,-2.11 -1.79,-4.25 -2.65,-6.4 -0.86,-2.15 -1.63,-4.3 -2.36,-6.62 z"
           style="fill:#e58a7b"
           id="path2992" />
        <path
           d="m 167.19,200.64 c 3.83,0.91 8.14,12.23 8.14,12.23 l -11.39,9.69 c 0,0 -7.37,-12.34 -5.88,-16.41 1.55,-4.24 4.13,-6.7 9.13,-5.51 z"
           style="fill:#ec4899"
           id="path2994" />
        <path
           d="m 187,201.19 4,-3.34 2.78,4.33 -2.05,3.61 c 0,0 -3.26,3 -6.14,1.47 v 0 a 5.17,5.17 0 0 1 1.41,-6.07 z"
           style="fill:#e58a7b"
           id="path2996" />
        <polygon
           points="190.97,197.85 198.22,197.86 197.92,198.95 191.59,200.01 "
           style="fill:#e58a7b"
           id="polygon2998" />
        <polygon
           points="165.86,368 162.4,371.05 150.98,363.67 153.03,360.11 "
           style="fill:#ec4899"
           id="polygon3000" />
        <path
           d="m 143,376.93 a 6.88,6.88 0 0 1 -2.82,-1 0.18,0.18 0 0 1 0,-0.34 c 0.31,-0.1 3,-0.93 3.78,-0.29 a 0.64,0.64 0 0 1 0.22,0.61 1.06,1.06 0 0 1 -0.57,0.86 1.31,1.31 0 0 1 -0.61,0.16 z m -2.25,-1.1 c 1.25,0.64 2.25,0.87 2.73,0.63 a 0.7,0.7 0 0 0 0.36,-0.58 c 0,-0.16 0,-0.23 -0.09,-0.27 -0.42,-0.34 -1.92,-0.08 -3.02,0.22 z"
           style="fill:#263238"
           id="path3002" />
        <path
           d="m 140.25,376 a 0.2,0.2 0 0 1 -0.14,-0.06 0.19,0.19 0 0 1 0,-0.18 c 0,-0.09 0.65,-2.26 1.67,-2.75 a 1,1 0 0 1 0.83,0 0.66,0.66 0 0 1 0.46,0.67 c -0.07,0.9 -1.9,2.14 -2.74,2.35 z m 1.94,-2.73 a 0.68,0.68 0 0 0 -0.28,0.07 c -0.62,0.3 -1.13,1.47 -1.38,2.18 0.88,-0.37 2.09,-1.35 2.13,-1.9 0,-0.09 0,-0.2 -0.23,-0.3 a 0.74,0.74 0 0 0 -0.24,-0.08 z"
           style="fill:#263238"
           id="path3004" />
        <path
           d="m 157.27,381.25 c -1.13,0 -2.7,-1.45 -3.56,-2.34 a 0.18,0.18 0 0 1 0,-0.21 0.21,0.21 0 0 1 0.19,-0.1 c 0.4,0 3.87,0.52 4.36,1.5 a 0.57,0.57 0 0 1 0,0.58 1,1 0 0 1 -0.79,0.56 z m -2.9,-2.2 c 1.26,1.22 2.37,1.9 3,1.82 a 0.68,0.68 0 0 0 0.52,-0.37 0.21,0.21 0 0 0 0,-0.23 c -0.26,-0.54 -2.11,-1 -3.52,-1.22 z"
           style="fill:#263238"
           id="path3006" />
        <path
           d="m 154.48,379 a 3.27,3.27 0 0 1 -0.67,-0.05 0.18,0.18 0 0 1 -0.14,-0.11 0.21,0.21 0 0 1 0,-0.19 c 0.06,-0.07 1.41,-1.7 2.69,-1.81 a 1.39,1.39 0 0 1 1,0.32 c 0.39,0.34 0.37,0.64 0.27,0.83 -0.25,0.68 -1.98,1.01 -3.15,1.01 z m -0.26,-0.37 c 1.12,0.06 2.91,-0.31 3.14,-0.8 0,0 0.08,-0.16 -0.18,-0.38 a 1,1 0 0 0 -0.76,-0.24 4.38,4.38 0 0 0 -2.2,1.43 z"
           style="fill:#263238"
           id="path3008" />
        <path
           d="m 140.52,374.92 -8.48,-2.4 a 0.62,0.62 0 0 0 -0.75,0.35 l -2.86,6.43 a 1.26,1.26 0 0 0 0.83,1.69 c 3,0.78 4.44,1 8.17,2.07 2.3,0.64 5.58,1.83 8.75,2.73 3.17,0.9 4.23,-2.19 3,-2.85 -5.56,-2.94 -6,-5 -7.52,-7.2 a 2.06,2.06 0 0 0 -1.14,-0.82 z"
           style="fill:#ec4899"
           id="path3010" />
        <path
           d="m 153.94,377.74 -7.24,-5 a 0.62,0.62 0 0 0 -0.82,0.08 l -4.8,5.16 a 1.25,1.25 0 0 0 0.24,1.86 c 2.55,1.71 3.87,2.4 7.06,4.61 2,1.36 5.87,4.38 8.57,6.26 2.7,1.88 4.71,-0.7 3.75,-1.72 -4.3,-4.59 -5.24,-7.47 -5.95,-10.08 a 2.07,2.07 0 0 0 -0.81,-1.17 z"
           style="fill:#ec4899"
           id="path3012" />
        <polygon
           points="150.31,365.25 148.07,368.44 135.02,361.95 136.37,358.41 "
           style="fill:#ec4899"
           id="polygon3014" />
        <path
           d="M 131.1,246.12 130,249 c -0.11,0.22 0.15,0.45 0.52,0.45 h 33.08 c 0.29,0 0.53,-0.14 0.55,-0.32 l 0.28,-2.86 c 0,-0.19 -0.23,-0.36 -0.54,-0.36 h -32.27 a 0.61,0.61 0 0 0 -0.52,0.21 z"
           style="fill:#ec4899"
           id="path3016" />
        <path
           d="M 131.1,246.12 130,249 c -0.11,0.22 0.15,0.45 0.52,0.45 h 33.08 c 0.29,0 0.53,-0.14 0.55,-0.32 l 0.28,-2.86 c 0,-0.19 -0.23,-0.36 -0.54,-0.36 h -32.27 a 0.61,0.61 0 0 0 -0.52,0.21 z"
           style="opacity:0.4;fill:#ffffff"
           id="path3018" />
        <path
           d="m 136.31,249.73 h -0.87 c -0.17,0 -0.3,-0.09 -0.29,-0.2 l 0.41,-3.71 c 0,-0.1 0.16,-0.19 0.33,-0.19 h 0.87 c 0.17,0 0.3,0.09 0.29,0.19 l -0.41,3.71 c -0.01,0.11 -0.16,0.2 -0.33,0.2 z"
           style="fill:#ec4899"
           id="path3020" />
        <path
           d="m 156.71,249.73 h -0.86 c -0.17,0 -0.3,-0.09 -0.29,-0.2 l 0.4,-3.71 c 0,-0.1 0.17,-0.19 0.34,-0.19 h 0.86 c 0.17,0 0.31,0.09 0.29,0.19 l -0.4,3.71 c -0.05,0.11 -0.16,0.2 -0.34,0.2 z"
           style="fill:#ec4899"
           id="path3022" />
        <ellipse
           cx="135.55"
           cy="417.14001"
           rx="26.790001"
           ry="1.9400001"
           style="mix-blend-mode:multiply;fill:#f5f5f5"
           id="ellipse3024" />
        <path
           d="m 151.87,414.4 c -4.74,-1.38 -10,-3.15 -13.18,-5 -0.09,-0.06 -0.19,-0.09 -0.28,-0.14 V 387.8 H 148 a 2.86,2.86 0 0 0 0,-5.71 h -9.54 v -97.82 h -5.76 v 97.82 h -9.53 a 2.86,2.86 0 1 0 0,5.71 h 9.53 v 21.43 c -0.09,0 -0.18,0.08 -0.27,0.14 -3.23,1.88 -8.45,3.65 -13.19,5 a 1.4,1.4 0 0 0 0.39,2.74 h 31.85 a 1.4,1.4 0 0 0 0.39,-2.71 z"
           style="fill:#e0e0e0"
           id="path3026" />
        <rect
           x="112.6"
           y="274.31"
           width="45.919998"
           height="20.93"
           rx="3.0035822"
           style="fill:#ec4899"
           id="rect3028"
           ry="3.0035822" />
        <path
           d="m 117.45,295.25 v 1.82 c 0,1.5 1.63,2.72 3.63,2.72 h 29 c 2,0 3.63,-1.22 3.63,-2.72 v -1.82 z"
           style="fill:#ec4899"
           id="path3030" />
        <path
           d="m 117.45,295.25 v 1.82 c 0,1.5 1.63,2.72 3.63,2.72 h 29 c 2,0 3.63,-1.22 3.63,-2.72 v -1.82 z"
           style="opacity:0.3;fill:#ffffff"
           id="path3032" />
      </g>
    </g>
  </g>
</svg>
